<mxfile host="65bd71144e">
    <diagram id="dv17F9iS7549G3D24syp" name="Page-1">
        <mxGraphModel dx="2986" dy="1179" grid="0" gridSize="10" guides="1" tooltips="1" connect="1" arrows="1" fold="1" page="0" pageScale="1" pageWidth="850" pageHeight="1100" background="#ffffff" math="0" shadow="0">
            <root>
                <mxCell id="0"/>
                <mxCell id="1" parent="0"/>
                <mxCell id="47" value="" style="rounded=1;whiteSpace=wrap;html=1;fontSize=16;fillColor=none;strokeWidth=1;fontColor=#000000;fontStyle=1;strokeColor=#000000;" parent="1" vertex="1">
                    <mxGeometry x="-1095" y="830" width="257" height="100" as="geometry"/>
                </mxCell>
                <mxCell id="22" value="" style="rounded=1;whiteSpace=wrap;html=1;dashed=1;fillColor=none;strokeWidth=1;fontColor=#000000;fontStyle=1;strokeColor=#000000;" parent="1" vertex="1">
                    <mxGeometry x="-1231" y="669" width="1080" height="120" as="geometry"/>
                </mxCell>
                <mxCell id="34" value="" style="rounded=1;whiteSpace=wrap;html=1;fontSize=16;fillColor=none;strokeWidth=1;fontColor=#000000;fontStyle=1;strokeColor=#000000;" parent="1" vertex="1">
                    <mxGeometry x="-480" y="678" width="279" height="100" as="geometry"/>
                </mxCell>
                <mxCell id="31" value="" style="rounded=1;whiteSpace=wrap;html=1;fontSize=16;fillColor=none;strokeWidth=1;fontColor=#000000;fontStyle=1;strokeColor=#000000;" parent="1" vertex="1">
                    <mxGeometry x="-1124" y="676" width="401" height="100" as="geometry"/>
                </mxCell>
                <mxCell id="8" value="" style="rounded=1;whiteSpace=wrap;html=1;dashed=1;fillColor=none;strokeWidth=1;fontColor=#000000;fontStyle=1;strokeColor=#000000;" parent="1" vertex="1">
                    <mxGeometry x="-1229" y="822" width="1080" height="120" as="geometry"/>
                </mxCell>
                <mxCell id="9" value="&lt;font style=&quot;font-size: 16px;&quot;&gt;Data Source &lt;br&gt;Layer&lt;/font&gt;" style="text;html=1;align=center;verticalAlign=middle;resizable=0;points=[];autosize=1;fillColor=none;strokeWidth=1;fontColor=#000000;fontStyle=1;strokeColor=none;" parent="1" vertex="1">
                    <mxGeometry x="-1350" y="852" width="111" height="50" as="geometry"/>
                </mxCell>
                <mxCell id="20" value="" style="rounded=1;whiteSpace=wrap;html=1;fontSize=16;fillColor=none;strokeWidth=1;fontColor=#000000;fontStyle=1;strokeColor=#000000;" parent="1" vertex="1">
                    <mxGeometry x="-647" y="830" width="446" height="100" as="geometry"/>
                </mxCell>
                <mxCell id="23" value="&lt;font style=&quot;font-size: 16px;&quot;&gt;Ingestion&lt;br&gt;Layer&lt;/font&gt;" style="text;html=1;align=center;verticalAlign=middle;resizable=0;points=[];autosize=1;fillColor=none;strokeWidth=1;fontColor=#000000;fontStyle=1;strokeColor=none;" parent="1" vertex="1">
                    <mxGeometry x="-1342" y="701" width="89" height="50" as="geometry"/>
                </mxCell>
                <mxCell id="33" value="" style="shape=image;verticalLabelPosition=bottom;labelBackgroundColor=default;verticalAlign=top;aspect=fixed;imageAspect=0;image=https://cdn.intuji.com/2023/08/Apache-Kafka_logo_16_9.jpg;fillColor=none;strokeWidth=1;fontColor=#000000;fontStyle=1;strokeColor=#000000;" parent="1" vertex="1">
                    <mxGeometry x="-407.94" y="690" width="134.88" height="76" as="geometry"/>
                </mxCell>
                <mxCell id="40" value="" style="rounded=1;whiteSpace=wrap;html=1;dashed=1;fillColor=none;strokeWidth=1;fontColor=#000000;fontStyle=1;strokeColor=#000000;" parent="1" vertex="1">
                    <mxGeometry x="-1229" y="511" width="1080" height="120" as="geometry"/>
                </mxCell>
                <mxCell id="42" value="" style="rounded=1;whiteSpace=wrap;html=1;fontSize=16;fillColor=none;strokeWidth=1;fontColor=#000000;fontStyle=1;strokeColor=#000000;" parent="1" vertex="1">
                    <mxGeometry x="-932.5" y="518" width="487" height="100" as="geometry"/>
                </mxCell>
                <mxCell id="48" value="&lt;span style=&quot;font-size: 16px;&quot;&gt;Batch&lt;br&gt;Sources&lt;/span&gt;" style="text;html=1;align=center;verticalAlign=middle;resizable=0;points=[];autosize=1;fillColor=none;strokeWidth=1;fontColor=#000000;fontStyle=1;strokeColor=none;" parent="1" vertex="1">
                    <mxGeometry x="-1190" y="855" width="81" height="50" as="geometry"/>
                </mxCell>
                <mxCell id="49" value="&lt;span style=&quot;font-size: 16px;&quot;&gt;Streaming&lt;br&gt;Sources&lt;/span&gt;" style="text;html=1;align=center;verticalAlign=middle;resizable=0;points=[];autosize=1;fillColor=none;strokeWidth=1;fontColor=#000000;fontStyle=1;strokeColor=none;" parent="1" vertex="1">
                    <mxGeometry x="-754" y="851" width="96" height="50" as="geometry"/>
                </mxCell>
                <mxCell id="51" value="" style="shape=image;verticalLabelPosition=bottom;labelBackgroundColor=default;verticalAlign=top;aspect=fixed;imageAspect=0;image=https://cdn-icons-png.freepik.com/256/4693/4693280.png;" parent="1" vertex="1">
                    <mxGeometry x="-556" y="841" width="66" height="66" as="geometry"/>
                </mxCell>
                <mxCell id="52" value="&lt;span style=&quot;font-size: 16px;&quot;&gt;Web App&lt;/span&gt;" style="text;html=1;align=center;verticalAlign=middle;resizable=0;points=[];autosize=1;fillColor=none;strokeWidth=1;fontColor=#000000;fontStyle=1;strokeColor=none;" parent="1" vertex="1">
                    <mxGeometry x="-565.5" y="902" width="86" height="31" as="geometry"/>
                </mxCell>
                <mxCell id="54" value="" style="shape=image;verticalLabelPosition=bottom;labelBackgroundColor=default;verticalAlign=top;aspect=fixed;imageAspect=0;image=https://cdn-icons-png.flaticon.com/512/2621/2621231.png;" parent="1" vertex="1">
                    <mxGeometry x="-460.22" y="837.78" width="72.44" height="72.44" as="geometry"/>
                </mxCell>
                <mxCell id="55" value="&lt;span style=&quot;font-size: 16px;&quot;&gt;Server Logs&lt;/span&gt;" style="text;html=1;align=center;verticalAlign=middle;resizable=0;points=[];autosize=1;fillColor=none;strokeWidth=1;fontColor=#000000;fontStyle=1;strokeColor=none;" parent="1" vertex="1">
                    <mxGeometry x="-479" y="905" width="110" height="31" as="geometry"/>
                </mxCell>
                <mxCell id="56" value="" style="shape=image;verticalLabelPosition=bottom;labelBackgroundColor=default;verticalAlign=top;aspect=fixed;imageAspect=0;image=https://cdn-icons-png.flaticon.com/512/9708/9708985.png;" parent="1" vertex="1">
                    <mxGeometry x="-340" y="842" width="57" height="57" as="geometry"/>
                </mxCell>
                <mxCell id="57" value="&lt;span style=&quot;font-size: 16px;&quot;&gt;Sensors IoT&lt;/span&gt;" style="text;html=1;align=center;verticalAlign=middle;resizable=0;points=[];autosize=1;fillColor=none;strokeWidth=1;fontColor=#000000;fontStyle=1;strokeColor=none;" parent="1" vertex="1">
                    <mxGeometry x="-360" y="901" width="110" height="31" as="geometry"/>
                </mxCell>
                <mxCell id="64" value="" style="shape=image;verticalLabelPosition=bottom;labelBackgroundColor=default;verticalAlign=top;aspect=fixed;imageAspect=0;image=data:image/png,iVBORw0KGgoAAAANSUhEUgAAAKoAAACrCAYAAAD2KgcnAAAAAXNSR0IArs4c6QAAAARnQU1BAACxjwv8YQUAAAAJcEhZcwAADsMAAA7DAcdvqGQAAFkESURBVHhe7Z13fFX1/f+f59y9szcJSYCwCbKVoSJOVNxW1FatddVuO7StWm3VWhfinrX+rLhqtW4Ekb1nWAkEkpC97t7n8/vj3pwMNiQB/eb5eFwe5J517z2v8xnvz3tIQghBH32c5Mhd3+ijj5ORPqH28Z1A6uv6T15CoRBNTU20trbi8/nw+Xzo9XpMJhMmk4nU1FQSEhK6Hva9pE+oJ5hoNIrX68Xn81FRUcGiRYvYsGEDW7ZsQQhBOBwmEokQjUZRFAVJktBoNMiyjE6nQ6vVkpyczOTJkxk/fjzFxcWYzWbsdjtarbbr5b6znPRCFUIQjUYRQqg3rrq6mqamJsLhcKd9tVotdrudtLQ0rFYrGo0GSZKQJAlZlpHlYxvptH2GaDRKU1MTu3fvpqWlBUVRCIVCRKNR/H4/BoMBs9mMJEkYDAYcDgdpaWlkZmai0+mQZRkhBIFAgNLSUqqqqigpKWH58uWsXLkSp9PZ9dLHxNixY7nssssoKiqiuLiY5ORktFrtMX//k4GTVqgul4t9+/ZRWVnJunXrqKioIBQK4Xa7qa2tpbGxEZfLhVarRZIkgsEgRqORtLQ00tPTMZvNmM1mtYscNGgQAwcOxGazkZSUhMPhUI89GMFgkOrqasrKyli4cCG1tbXU1dVRUlJCXV1d1907odPpyMjIICsri7y8PBwOBwMGDMDj8bB161Y2b95MWVkZiqJ0PXQ/2gSm0WiIRqMAR3ScxWJh/PjxFBYWcsYZZzB27FiysrK+ky3tSSNUIQQ+n4+qqipWr17Nhg0bWLx4MVVVVXi9XoLBYNdDjhiNRoPJZMJisZCZmcmIESMYMGAAWVlZjB49mszMTIxGIyaTCUmSaGlpoaysjK+++opvvvmGrVu3qi3o8aDT6VAURRVbGxqNBrvdTkpKCkajEYPBQGJiIkajEUmSsFqtGI1GjEYjbrebYDBIIBAAwOl04na7CYVCtLS0UFdXRyQS6XR+gMTERMaOHctFF13EaaedRl5eHmazuetuJy0njVC3bdvGhx9+yNdff83GjRvxeDxddzkgOp2uU6sYiUSOWFB2u50hQ4aQmZnJKaecwvjx4wF45ZVX2LFjB5s2bep6iErbMCM3N5ecnBz0ej3EJ0B1dXU0NDTQ2NiIz+c76OcZNmwY48ePJyEhgZycHAYOHEhCQgJ6vR673a4K1WAwqN8zEokQDAbVc7pcLnw+H16vl/LyckpLS6mvr2fBggVUVFR0vSQOh4OhQ4dy6aWXctlll5GZmdl1l5OSk0KoTz75JJ9++ikbNmzA7XZ33QxxQU6fPp3JkyeTm5uL2WxWJxUHE2pzczNbtmzhgw8+oKqqqsPZOiNJEjabDavVCkBtbe0BxZWZmcns2bMZPXo0FosFvV5PcnIyDodDHYMGg0Hcbjdutxuv14uiKEQiEaqqqvjyyy/ZtGkTP/jBDxg3bhzp6ekMHDgQjUaDTqdDr9cf8zhSCEEoFCIcDhMMBiktLaW8vJx//etfLFq0aL/v43A4mDZtGrfffjvTpk3rtO1k5IQJVQhBeXk5V155JSUlJZ22ybKMyWRixowZTJ8+nQsvvJC0tLRDjiePBI/Hw8KFC/n000/ZsWMHW7Zswev1qhO1rkiSRFFREbNnz+amm24iMTGx6y7diuj8D4oiCEfCCEUggLZvL2tkdJ3G1xKH+mnq6up4+umn+c9//kN5efl+3/W6667joYceIjk5udP7JxMnRKjhcJjly5dz//33s2LFCvVpN5lMjBo1ipkzZzJx4kTGjBmD0Wjsengn2j6+ELGbKcdn+YejtbWVzZs3s2vXLlatWsXSpUtxuVyqNSE7O5sZM2Zw2223MXz48AO2dNGoQigSJRxRVHG1iUankdFqNWjkw3+eaDRKTZObrXvqcfpCtLj9BNwe6lp9NLoDeAMhPMEIGlnCatBiMRnIdBix28wkJdpJtJvol2wjLcmKWa/DbDai03b+vJFIhJKSEt577z0++eQTduzYof7uZrOZq666ijvuuINhw4Z1Ou5k4YQI9auvvuKBBx5g48aNhEIhAFJTU5k9ezY/+MEPGDx4sDrm60gwHKHR6aWp1Yc/EMbjD+APhUGAEBAVAqNei9mox6DVYLcYSbQZSXJY0es0XU+n0jYJ2blzJwsWLKCyspJrr72WKVOmkJKS0mnfQChMZZ2TuhY3dY1ualu91Lt8KNHYh5A1MiadhkSbiSSrkSSHiRS7lX7pCSTYjAcUvKIobNldy7vflPDfFTvYVe8m3azHqI1/Zo3c/hgIAUrsL1ckik2rwajXkpVsIT3RSmqCmXGD+zFiQCZ5GYkY9Z1n+B6Ph3Xr1vHEE0+waNEi/H6/um3q1Kk8+OCDjB079rAPV2/Tq0IVQrB69Wp++tOfsnnzZvX9GTNmMHv2bM4//3ysVqv6IwkhcHkC7K1tYfW2KtaU1VLX7MbpD4ESJRpRUIRob8yAkKKg1WrQSxKyXkeiUUdSsp0Es55heWmMKkgjK82BQafDYtKjkdtvSDQaJRAI4HK5SEtLQ6OJCSUQitDq8fPR0u2sLq2lrr6FFl+QaChMOKoQjIjYZ47/lAatjCyBViMjazXIOi1ZCVaS7CYKsxI5o7iA/KwkrGY9mrhwI1EFrz/E+tJ9fL1hL/NX7cDvj2DQaw7ZrccuKQhHBdGoAFnCbtCQ5LDSLyuRy6cO5ZRB2djNhg7HCHbv3s0XX3zB66+/3ulejB49mrvuuovzzz8fg6H9mBNNrwq1rKyMH/3oR6xdu1Z975JLLuHee+9lwIABqjAAnN4gi9bu5P0lO1i7p55QIIJOCLQaCUmW0crERdb5Lipt400BYSXWyon4eBMhiOo0OCwmRvdPZfqoPIYPzKZ/uh2dTtfpPG1U1DTz7oJNfLB6F64WDwIJnSyh0Ujq9Q8mpFjjFxORUJRYqx8bFzA2P43po/I5fWwhuemdl0HdviDfbijnpf+toWRPPYkWA3KHB+pwCCEIRwSecAStQcfo3BRuuXAMY4bkYTG2f89gMMg333zDww8/zIoVKyD+Ow0fPpyHH36Y008//YA9wImg14QaDAZ54IEHeOyxx9T3zjrrLJ544gkGDBjQad/1O/bx/z5YzAcbqtDqdSQYtUiy1EWSx4YQgogi8IUVgsEwKTYjp2RY+cnVp3PKsDx1v6giWL5lL39/8xs2VzaTYNZj6DLuO1YURdASiBANhemXZuf6s0dz0ZQhpCbErA7EH7j6ZjdPvbOUl77eQv8EE1rN0V9fCEG9N4RVlrhp+jCuveRUUhwWdXs0GmXbtm3cfvvtrF69Wn2/uLiYuXPnMmbMGPW9E4nmvvvuu6/rm92Noii8//77PProo/h8PmRZZvz48dx7772MGDEivrQITS4vb321gd+8/DVbal2k2gyY9fFl0K4nPUYkKdYSGrUyRp2Gam+Ia885hQumtE8iWpw+Xv10Dfe/vhCnN0iiRY/2KFq0wyFJEmadBotRRyAYYf7a3fxv2XaCoQi5aXZMRh0aWcZqNnDWuIGkmLSs2VlDOCqQpXjvcIRIkoRVH7MQLN5Zy7frd+OwGumX5kCnjZn30tLSmDx5MlVVVZSVlSGEoLa2ll27djFu3DiSk5OP6po9Qa8ItaqqiocffpgtW7YAkJScwi9+9WvOnnGWOmlqcHp46aPVvP7ZenSShN146OXN4yUSVQiHo9wxcww/uXiC2sVV1Lbwl399w7yvN6PVajEbDj4J6w40soTJoMMfiLB0SwUV+xrR6bUk2y2YDLFuetTALHJSrOyscVLX4kWvlY/6wdXIEiadlppWHytLKnCYjeRlJKiTreTkZEaOHMnmzZvVhYK9e/fidrs5/fTTD2t96Wl6XKjhcJivvvqKefPmqcb8yZOn8Nvf/Q6H3QaANxDi9U/W8M6CzUiShE539DfiaGnyhTnrlAJ+duVpWM2xm1BV28JDby/hy7W7SbTo0XdTV384JAm0WhmDTsOuGicrtlfR7PEzMCsJmyW2OlWQlURRTgpb99RRUefCGO9pjgZJApNOQygcZfXOfTg9fkYUpKsPREpKCiNGjGDjxo1UV1cDsGfPHkaOHElRUdFRX6876XGhNjc388orr6j2UkmSeOKJxxkxvL2r/WDBZh5+bwVGjYzuGFqLo8UdjFCYncTvfjCF/plJSBI0tbp57J2lzF9bHhsTn4CbIkkSOq2GcCRKye56SnbXUpiVRGpCzBMsPclKYWYSe+paqGjwYNQd24Ok1chEogprd9VR0+hkVGEG1rhVIDU1lYyMDLZs2UJjYyOhUIiNGzdy3XXXnVArwLF90yNECMGuXbvYsmWL6ihxySWXMHXqVHWfPTUt3Pny1yQYNPsZqXuCqBKbTF09bRjDCzKQJAiFo3ywZAefrd6FVd95Sba3iRkFZIw6mcXb9vHzuZ+wpbwe4gIbPzSHh285h0FZCUSi+y/zHik6jYxNr2Hekh089d/V+EOx+6PVajn11FOZPn06JpMJ4kOAXbt2dTlD79KjylAUhTVr1rBu3ToADAYDP/7xj9UnMxiK8MQ7S0iQYz9cbxCOKpxalMnpxf1Vk09ZVSP//HwtmiNc1eoNJEki1aKnrtHDXXM/ZuXWSqLxHik/M5E/XTOFxkCEQPjYxaqRJTKsehas2slH324lEBerzWZjwoQJ6mJHNBrl/fff73J079Kj6vD5fHz00Ufq39OmTWPEiBHq32u2lLNoSwVJ9t4bqMtamVmTh5KR6gDA4w/x5LtLqWnxYTrGrrSnkCQJu0VPVaOHu1/4nK/X7iYcibkIjhuZz2s/OwdZpyF0HGLVaWSCwQgv/m8VW3bHfGx1Oh1FRUVkZGRAXKjLly/fz0egN+nRO+PxeFi2bJn698SJE9Wn1OUNsmDDXmQlvqrTC7iDEYoykzhtVH/0Wg1CCBau2MbSzRWkWPZfsj1ZsJn11Lf6eOT/LWLp5r1qlz9tbBG/uGQCOr2G8HEMAww6DbtqnXy7cbf6Xl5enipU4o2Oy+VS/+5telSou3btUp2Ek5KSKCwsVLc1trjZWtHQ4xOnjuxz+Tm9uD/JcYN3k8vHa19sQKc9+hl0b2Mx6mh2+njtk7WUVTUghECWZS6YVMQZowsIhZWOK8lHhSSBUafl85WlaniP3W7HYmlfGAgGgzQ2NnY4qnfpUaG+/fbb6v9zcnLUVY5IVGF3TTM1Ld6uK6A9RlQR2A16Lj1jJJIkoSgKX6zYQUlFE0Z9z9pKuwu9Tmbp9n288N+VuDwxZ5Iku4UfnlNMdqqVQHB/z/4jxWbQsHpPYye/1cLCQnVCFY1GjyvK4njpUaF+++236v/T0tLULx2JKpRWt+D2BND20lry7mYvv798IqkJsVbC7QvywpebsJhO3i6/K5IkkWzWMW9pKW9+vRlFEUgSDOmfztVnjEJCavOLOWo0GhmlxYMn0B4mk5OTo058hRAHDHHpLXpMJUKITmOa5ORkdRUqGAyzt6aFUDjaKy1qKKJg0mq44LTB6ntrd1TR2uxGp+mFD9CNSJJEilnPW1+sY1VJe6jJxVOGMGNsvmpmOiY0Mt5ge2Rv1zCfE0mPCdXlcqkBaAADBw5UxzzuQIiyfU1Imp437gMEwlGmDM4iPSEWzBaJKqzZURMb050kN+JoMOs1eHxhHnxjAVUNsRDrRLuZ62YUY9LEQrKPCZ0Gnz/mHwyg1+tVoUqSdEKjV3tMqPX19Z0C9HJyctSu3+MPsbfe2SsiEUIgogqTR/XHYIj7FbS4Ka1sRNeNzi69jcmopWRfC58u3KjaPwcXZHLehAG4fO1iOx46xnDJsvz9FGpra2unsOCOXUgoFMHtDWLspW7XZtaRm+agbZxR2+SmotGJ1GPfvndIseh5Z+kOtpfXAqDXabh+5gRMBh1KPArgqAhGsFnal0ndbrd6D7VabScrQG/TY7eqY9YPuUuWklAkitsXPCpn4GPFHxFkJtvJz0pGkmLhLCV7GvH5Qr02kespNLJMVYuPj5dswxvvsguyErls6lD2udqHXUeDJe6gQjz0u80KoNfrT2ieqx67U16vV/1/RkYGqamp6t/hUBiOYzXlaJCEICvVTnpSrDUIh6OU1zTT6g31xsijxzFqZD5fu4utu2OtKsDVM4rJSbESjBz5byyEQG81YNK3S8LtdquORAkJCd/PFrVjV2+xWDpl5XD5O+eM6lGEIMFiQB8Pc4lEojhd3liQ3PcAvU6mxhlg4ea9BOIz9lSHhTNH9scXjBzxIkAgIuiX1B5hQNzFz+/3I0kS/fr167Stt+kVobZlnWsjeizjp2NEp5XJTkvEEO/SmtwBKhvdcIhhhxACRYm9TiZEPIxFUQSuQIQWfwRnIIpQFJau30113AJgNGgZUZBBss2gBhwejmAoQr90R6e4tdbWViKRCLIsM3LkyE779zY9JtS2GT5x5+mOxuKuIbw9hRCg18jkpdgw6GLXbHb6qKxv7bwf4AtFaXAFaGj10ej00+gK0OgN0dDqo8EdJHQU3Wh3I4Sg3hOi0elHkSQGplg4fWgWl4/J4fKxuVw+Pp9sm57KuhaEAJ1Ww+gB6eQkWYlEj0yoCEFhTpLaoLRlLyQ+x5g8eXKXA3qXHhNqxydTdMlE0ltG5IiiEJEkTCa9Oh5t8QVo9IYxaCVCEYV6T4hdzT7Qaph16kD+NPs0Xv7txbz5x8t4/a6LePwn07lx+lB0Bh1lzV4i0Vg0aW8gBLT4w+xp9XPaoAweu/lMXv/9ZTz3x6t45reX8defX8pffzaLR395CY/+5jLGD8tFkmK2jeQEK7mZSUccENgajjBuSK769759+2hoaID4/crNbd92Ijiyb3EM5OTkqDP9QCDQaZ1Yq5EO2fV2F0IBq0FLgqXdjdDt8ePxBVEkmQSHmfPG5PP/fj2Tbx67gQduPocfXjiRM8YM5NQR/Zk6upCLp4/ml7PP5MtHf8Tff3g6mcl2QpFojw8LhCKIRhWKshL558/P45m7LmHW9NEML0jHbollHeyIxajHZGw3LVlNBjISLGiP4GcWQmDQaEhPjoUGEY/MaLPcJCcnn/Cw6R67el5eHjZb7Is3NjbS3NysbrOaDOiM+mNfQTlCIlEFjUbG2sk26GfG8Fz+cNVkPrjvKp751cWcM3EwSXYTZmP7SkxHzEYdDouBGy4Yx5M/n8mZp+Tv10t0JyIe0j11VB5P/+JCzj1tmJpAQgiBxx+kyemlst5JZb2TmiYXTU6vaqICiCoKgXCUI/GpCkcF/ZIsODpco66uThXqJZdcckLDUOhJoer1ejVysWuLatBpSLIaCB3p+OlYEQKzRou5g21w3LBc/nLbOVw0bRgJ9nZzixACp9vP+h1VfLZ8Ox9/vZ7/fbOJ5Zv20OKKJVKTJOifkcitF08iPyeV1sBxrKsfAkUIBmQnc9slk+iXFrNdCiHYta+Z/8zfwNNvLeJ3z33BT576H3c9+xm/f2k+97+2gHlfrFFTJEWjCr5whAMkJdyPkCLIz0wkMz7rD4VCVFdXqybGadOmHTRBR2/RY0IlnqaxjdbWVtXX0WjQkWA30dM6Jd4ldvSQGtw/nbyMRPRteZ2A7RWNPPHvxfzob+9x62MfceszX3Dbywu57YX5XPOPj7jqL+/w9doyiIdvFOYkceO5owgh9UirWuUKMmvyYApzktVFkS+WlvCDe//Nb1/4iq837qG+yQXBICV7GlixtZL5a3dRUrqP6DE4UEuKQr8UG/b4EMnr9bJu3TrV/zQ9Pf2APU1v0qNCnT59uvr/7du3q2v/VpOOgvQEpGP4UY8Wo0GHsUOLqpElFCFodHr5fGkJ5//8Rcbc/CwPvr+CstpWWgNhJvRP4YZpg/n52cO4ZGw+LrefK379Bl+t2oEQAlmSmDgsjwuL84h081g1ElXoZzfyg7NHI8fF8c26XVzxx3eYOKwfX875MfPn/ISPHv0Rn/3jRp7/1UXkJJpRJAmj3dYejxaOxOyqh9GXEAKjTsPg/hkY4taYYDBIS0sL0WiUqVOndvL0P1H0qFAnTpyo/r+pqUntlow6LVlJliMYPR0nIhYTpOtoG3T7+WzZNv7w7Gfc8syX7Gz2Myw3mUEpVgwaiYI0O4//fCYP3Ho+v7nhHP5263m8/+Bs/nrnOfzpyf+xuzo21k6wmTh9dD6uYOc058dLsz/CKQOz1L+D4Qh/eH0h5jQHs6YOpSArSd0mhKCyrjXu8SRh7ZAsIxSK0Oz0HdY8JQQ4rEYGZSeijXteNTQ0UFsbW+kaPnw4OTk5XQ/rdXpUqEOGDFH/39zcrHb9er2OrLREdJpjd/Q9UoSI3dA2Xv9sHff+8xuWbttHmkVHilmndq8RBbzhaFtWR4jbfLNTHfxk1kRK692s3VYZz4cKwwdkk2bWdW/3ryhMHtmeA2v7nnrqWn2kWvS89eVGlm3aQ6PTS0VNMx9+s5l/frEWfyQ2frZYTGoLGghH8EcVxGFa1EBYwWYxkZIYy6KoKAo7d+5k27ZtWK1WNeXSiaZHP0FCQoKaxdjj8eDz+SDuTZ6dbMVs1sfSRvYUEviDYfwdnIFXba2g1RPAborld+qIQStT2+zl5Y9WUbavSRWgxx/iw0VbCRt0rN+xT51d989IID/B2K3fQVIU8ju0mntqmtEhsOo1rN5RzV0vfcUvn/mcn879jHvfWERtsxejTsaslclItiPFV68aWry0eg7vmBKJRMnPdJAZN00pikJlZSXNzc1kZ2erdQ1OND0qVJPJpK5o1NXVqXk4tbJEdqoDh8nY4/bIYChMINw+O09NsKA7iA1XksBh1PDeku3c/fzn/L+PlzPvk5X89dWveOTf35KbamNXg5tQJN4z6DSkpifiDnbPWLvtwVBE+/kiUQVD/PMa9RoC/iCby2qoqGlBH08DJITAbtaTnmQDSSIqBE0uH+FQ+KDflfj1/IogIyUBszE24QwEAixcuBDik+GkpPaH5kTSo0I1GAxqQF9NTQ2lpaUQX+mwmXSYDT16eYjf6I4zYaNBh/MQnlsaWcZu0FBW3cI9b6/kt/9vGZ+s2Y0sS5h1Ml5vEHcHp5rs9ESiHR6E7kB0eHiNeh1NodjnlTpkUTHq5E4ZBvU6Dal2I1L8+EZXbGHjUEQVgdVqYHxRpjqrDwaDfPXVVwCMGzdOtYWfaHpUKZIkkZeXp677t7S0qK2GzWoiIcF+2Fnp8RIIh1WvIoCMxCNzVdNrZTJtBjI7pL4EiXqvn+aW9siFCSP60+KKDWmOF0mSEJLE7or2YmuZSVb0h3EwD4QVDDotZlPMvKQIgcsfOmxLH1ZgTP80Rha0z+pffvlliDcyxcXFJ9S1ryM9LtT8/Hy1gEF1dbW62mE1GeifZDpk13TcSBJCI3VqoUwGXWyGdQxIEkSDEcrjM3+AoXlpcBzRn/uh0bB6Z7tvaWFuKkaDttN32A8hMBt0nXJ3BSMKwUj0kOE+oUiUqSP6YY+v3CmKwqeffgrAyJEj90uwfCLpcaFmZGSQnp4OwIoVK1Szh9moo1+qg2jMitRjKFEFRWk3IWmPZ4VFkghFBRVNLtXz3WLSY7KZum3mb9FrWLWrTj2fw2JkRG4qrg7Lo10JKQK9Qa86oCiKIBAKqw4qB0JRBHqdhhEFGarH1NatW9m+fTt6vZ6xY8eSl9dufTjR9KhQiXchbeOc6upqdbUjluk4IWbU7p57fESEjyOJggRoALcv1Mk+mWLuvtwAZp2GqkY3Zfua1PeuP2s4Nd6DCzUiINrhR5SlmKvfoVCE4LT8ZPJz2qu+LFmyBLfbTXp6OmeccYZaIO5koMeFajKZGDhwIHa7HUVRWLVqldoaFWQnE9ZoerRN1Wg1aDo4bXfMBHIsRISgwRsiGJ9ASRJY9TKecPcY/iUJ7Hot365rT/M4dnAuiTr5oA7nZo2EQeqwnCtJ+5neutLiDjBuVKGaz7+hoYE1a9ZA3KzYVlHwZOHQ36YbsFqtjB49Wg0Me/fdd1Un6oLMRAZmJBKMHPgGdAtdTt0dV3J5/PgCsRZOkiTSkm3duhzssOjZWl6vJkMzG3ScN2EgrYcI4YnGq660IUkHv7nRqEJmspUzxg6EuJlq9+7dfPnll+h0OqZNm3ZSLJt25GDfpduQJInk5GRVqBs3blQzqGg0GqYMyaLOe+zd8SERAo0SW2Bow+UPH3KCcTgkIOQPEm5rUYH0eJqg7kJCYltVE2VVse7fbjFw5ZkjsB4suYQs43L7Ypln4ph1Gix67QEfzEaXn+nF+fTPjJXMDAaDfPLJJ7jdbnQ6HZMnTz6hEacHoseFClBQUNDJQ7xjmZjp4wbiO540NIfBbNRjiRuzAeqbPZgOY+45JEIQiSiq55ckSej1xzFBOxAStLh9rCqpUIcYQ/unU5SbTDBuU+2IVo7FPLnjdlNJApNOi07bXqStDSEEioCLpgxV32tqamLFihUEAgGysrKYMGFCp2NOBnpFqElJSeoTKoTgP//5j7otM9lOfpKlx1aorGYDFlO7029FbSv64zGJSRJanQZNvFUWQuDxHX6p8miQJIlQSGHtjiqc7piNNtlhYeaU4YQO0KJqZYmQAi5fCEGsHqzVrMcYjxPrSLMvzKThuQzs1x6+/sUXX6gl36+++mrVSnMy0StClWWZmTNnkpaWBkBpaak6TjUbNJw9Oo8Wd/febOJjMbNRh7lDtbpmpxeOZ5IgBFqNjLaDzdJ/HOkeD4aQYHVZLVvLYyXZNbLEpKE5ZKfa9hurSpKEJxCiyeUFEfvbZjEQ1cid3BCFEGiBmZOKMMd9dL1eL9u2bVPt27/5zW9OuO/pgegVoQKMGTNGbVXr6urUmlN6vZ4zi/MP6+VzTMgyUpfcp85gFNtx5EMVkoTOaEAbN/8IAa5AGHGYWfbRotfK1LX6+GLdXnzxByE7zcFZ4wYh4qJrQwhBKKLQ5PQBMU8qm1GPzajrNEYNRgRD+qcwvH8ashyzEmzbto1FixYB8Mtf/vKEe/IfjO79dQ+Bw+FQx6k+n69T3fiUlASsFkO3d/9RScLUodv3B8M0unzHM5dCACl2kzruFQgaWj09kh7Irtcyf9VOdu+LrYQZ9VpmFPcnPyOxU0spSRL+iILH40XE/RVSEizY4/Wz2tDJMHZgFgXZSciSRCgU4ttvv6W8vJykpCTOOuusk8Kl70D02qcym83MmjUL4kItKSlRC6TlZyZwSm4ygcM4+R4NApBkidyUdqN1k8uH1x865q5NiFgJnfw0G4Z4WXVFgcoGNybdsZ3zUBj0Ghq9Id5esFF9b3BeKucU59J1SiURL1Icx6jXqh77xB1QLBYj04r7Y4sH8dXV1bFkyRI8Hg9nnXVWJ//hk41eE6pGo2Hw4FgiXa/Xy6ZNm1QzVaLNzMCsRMLdOPuXAKNGItXWnkrIfYjVnSNDYDFoGZjdHj7c5PIS9AaPWfyHI9ms49PVZWrFEpNBx+mnFGI06fdbAAgEQqqhWCNJ6oSP+PBgcG4qxQOz1c+6efNmli5dSmpqKjNmzFALgZyM9JpQAbKzsxkzZgyKouB0OvH7Y3noZVmmeEgedqlrO3F8yG05BOI0utq9no4FRRFIBj2F2e03dO3mPRBvoXoCrUbG7Q6wcMkmNWHZyEHZnDMyjyZn7PdrQ3RYdZMAWVGQ4sKt80e4YPwALPHPGgqFePnll3G5XBQUFFBcXHzSjk85EUJtc6QuLS1l5cqVahzVqIGZpCeZj6saXVfCUYG7Q0hzquP41q6jAoZnJ5Jkj7ktCiH4ev1ukq09WycryWZg7tfbWLm1EuJj0BsvnIDFqCN4CN/aNurcQWaOyOG8SUXqe59++imff/45Wq2W6dOnn9TdPr0tVJ1Ox5QpUzCZTKojtWqmMhnIys2k5bi753bCisK+eOIwgOxUO1rdsddk8oSiTByco06kGls9bKtswmHY317ZnWhkGSkS5c0vN6hG/dyMBH511WnUeAIxm74SK+fThgAUWUYBrBqJa88fo3pJud1uHnroIQAGDBjAjBkzTqp1/QPRq0IFOO2008jOzgagpKSE1tZYwjKr2cApA7NQIh39gI4PWUBtS3ueVpvZQGF2Er5jiBwVQpBo0jJ2cJY6SVmzfR/7mjy9kpDYZtKxdGslKzoUmLh02nAmDMzAGQgjZAmrzaz69QUjUQLhCE2+EFNG9GPUwNhvDrBs2TL27NmDwWDg/PPPP+GZ+o6EXheqw+FQl+iWLFmi1obXamSKcpNJT7IQ7abMeTLQ0BBLd9PGRZOK8B1D6IjTG2LqqP4MzI0tWrS6/fxv2Y5eq+Gq0chEooJ3vt1KXXNsEmq3GPnROaMxG7RoZYmMpPbgvvpmD60uH2lWAzfMHI81buCvrq7mjTfewOv10r9/f6644opOuWtPVnrnV+6AJElcdtllEE+fvnLlStX1bkB2MsPy0wl3k5lK0spUuv1U1rV3/xOG52HQaQ/s3HEQhBDUtXq54YLxam376kYXC7ZV9WoxNb1GYtveejbtrosX8IVTh/VjZH4qVouBotxkJEkiqgjqWrxUVrVw+eQhjIrnCQiHwyxdupTVq1cTjUa5/PLL1eiLk51eFyrx6Ma2vFSfffaZGu+fkmBlzMBMTN0U9GfSaYgGApRV1hONPwzD+yUxaWAazb6Du8x1pcUT5IyReQztH1sfVxSFL1aXIgXDPWaWOhB6jYzL6eOTpdtodcdm/GlJNi4eN5BJ/VNJS4w5qEejUXbsa0Iy6Tj/tCHo4zbfxsZG/vOf/1BZWUm/fv2YNWvWST3T70j3KOIo6devn9qqlpaWsmPHDogvG44bnIPJ2D2rVJIEvqDC4i2VNLbGuv8Eh5VZ00aQk2Q+omtEFYVwJMqtl7THt9c0uVm0fs9hveh7Ao1Ww8INe1mxZS/Ee6gRQ/px8VmjsMVXolxePzt2VnHttGEUZMfCnaPRKEuXLlVDoX/84x8zfPjwDmc+uTkhQrXZbEyZMoXk5GSqq6v5+uuvESJWZTo73UFOWkK3JXXQaiVW76xmXWk1QoBeq+HMUwo565SCWFLergd0wR9SmDAog+LCmCNxOKKwcH051U1OjB0cU3oLg1bGFYzwz8/W4otH1xZmJzN1VL7qfLOrupWWsOCiacNUC0V1dTXvvPMOra2tDBs2jOuuu67TeU92ev+XjpupiouLGTgw5mG+dOlSNX9qaoKN0fmp+LrJ61+rkWnxBJn39WZC4Zjpy2EzceX0YlKSbTg9wYOOV4WImXkmjczHYYs5R7e4vawoqSAYVpB6YbZ/IJLNOr7ZXsPny7dDvFXtOAR5b+Empo6MufK1vf/pp5+yYMECiLvytWWw+a5wQoQqSRJZWVmMHj0as9nM/Pnz1eQUOq3MlOICiCoHFdDRIAF2g4YvNuzljy/NV98vzEnmuV9ezBnF/dnd7DvgtcJRhexUKxOH5qCPZySpqmmhtroRwwloTdvQamSy7Gb+8tZiKuo61yN489O1LNlZw80zx6lj082bN/PUU0/h9Xq58MILufzyy9W6tN8VTtivnZKSwtixY7FYLASDQd555x21duq4of0YPyiTek/3GP8lSSI3wcjzX27kv4s2EVUUZEmiMCuRv916LrMnF1HhCuIKRDqtnwshyEmwkJXiQJIkIlGF1WU1lLccnwdWd2DUybh8IeZ9uQ5/oD2UJzcrgb9dPxVbPNdpKBTis88+o7y8nJycHK644grVjn0wotEooVCIYDBIKBQ64EPc22juu++++7q+2RtIkkQkEuGzzz6jubmZxsZGLr74YhITY3E8mQkGXvx0PSk2U7eIQpIkks0GNpU3kOwwk5NqR6fVYDLoGDekH6Pykql1+ml0+wmHoggRi5efUlzA9DGF6LQafIEw783fwI6qFtV76kRi1EqU7G3EbjUyODcNjUYmLyOJgg6+CO+88w6///3vURSFSZMmcccdd2Cz2RBCEA6HCQQCeDweamtrqaqqorKykiVLlvDxxx/z1VdfsWbNGmRZJikp6YS2wpI4gY9LMBjktttu4+2338ZsNvP73/+e3/zmNxBvCab/9l+4Wn2YOuT9PF4CYYXCnCQeuuksBuXFjPfEc1Q1tnpYva2Skj0N1DR7aPEE+OGMkUwfNwiAkvJ6rn3wHbyBMAadFqNORnOCxqlt+ENRrBYjD988g9NG5qnJf4UQlJeXc80117Bx40ZkWWbEiBGcd955mM1mJEnC7/fj8/lwOp3s3buX+vp63G43LpcLl8tFNBpFq9WSkZHBLbfcws0334zD4ej6EXqFEypU4st55513HqFQiPPOO4+XXnpJHej/vy828Jd/LiDBaugWe6WiCJDg9lkTuHTacDUVeFeEEDjdATyBIAlWE9a4x9HmXXW8v2gzCMH2qia27KojKkk4jD271n8wFEXgC4TJTbFx88UTOP+0IWpL7/f7ef755/n73/+uLlMfDI1GQ3p6OkVFRSQkJKDVatm+fTs7duxQnYZycnJ45plnOPvss7se3iuccKF6PB5mzpzJypUrKSoqYs6cOUydOhWA7XsbuOvZT9lb78bcoUbnsaAogp2Nbv7yg8n8+KJxmOOlbkKhEGvXrmXSpEldD9mPUDhKOBpVs+UtW1fG399bQSCikGDqXbEKIdjZ5OWui8ZyxZkjyU61YzLo1Ac6EolQWlrK4sWLWb16NWvXrmXbtm04HA6ys7PJyclhxIgRDBgwgIyMDKxWK5mZmVgsFmRZpq6ujueff5633nqLQCCAw+HgV7/6FXfccccJSZx2woUKsHjxYs4991wkSeKmm27ivvvuIzExkUAowqufrOG1T9cgdzHBHA1RRbC31ccfL5/Ez65qr0Dn9/t54oknePjhh5k4cSJ33HEHp512GmazGb0+VsrncF5F2/Y2cOEf30IvS9h7qWUVQrCr2ctds8bxu2vP6PB+LDRGQtpvXN+xJD3xVvRwOJ1Opk2bxo4dO7DZbNx666388pe/VOcRvcnxNVPdRH5+PuPHjycajbJ+/XoqKysRQmDUazm9OJ/0JNtRVUruSDSqEApHueWsEdx+WXur6XQ6efLJJ3n44YcJh8MsXryYq6++mjFjxnDdddfx0EMPsXTp0k6lMX2BMDWNznhu/NjnKeqXwv0/OA2zTj6miiTHQrM/wjkj8rjrmmnqey5vgJLdtXywqITNu2rx+IOdVt40Gk2nV1eC4YiaQ6ANvV6v5rfVarWkp6d3Kh3am5ywWX9HrFYrfr+fZcuWUVlZSX5+PmPHjkWj0WAy6tlR0ciW8noMOs1+LcWhEELgCylMLe7Pz66YTGLc4dnr9fLGG2/w+OOPq5Va2vB6vZSWliKE4OKLL1ZL1wRCEV74aBWvfL6e9TuryUiykp5oRZYl0pOtlFY2sae2tVPqx55AxKNef3XVafGUl7EQ8Nf+t5pXP13Le4u3s750H/WtXjy+YDz/hIitwCkKoajAHwwTCEZw+wLs2FPPtt01LN64B5NBT1piu3O5y+XiySefpK6uDofDweWXX86IESPU7b3JSdH1A+zcuZNbb72V5cuXU1RUxGeffabWqVqzrYrfvTIfZ6vniGt7ArT4wozon8qff3Qmw/PTkWWJQCDAu+++y9/+9jf27NnT9RAAJk+ezH333cekSZOQZZloNMqLH63myfeWgyyDEMycMIA//2g6DpsJfzDMPz9bxz8/X0t8vtZjBCMKyQ4T/7jtfIoHZhJVBJ+v3MED/1yINxDBrJcJRAR6jYTZoMVsMmDVajFYjWgNWpSIIOILosgSYX+I6mYXmYkWLpg8mAsmDyUjyQ5xx5s5c+bwt7/9DbfbzdChQ5k3b94Jy5l65He9h+nfvz8XXXQRADt27GDOnDnqtuJBWdx6zkhC4SNfrYoqCgMyHPzyilMZFhcpwPLly3nyySfZuzfm1NGVs88+m6eeeoqJEyciyzLhcJiPvt3Cq5+swW7SkWjWYTdqWbmtis3lsYA7o17LqPwU7Gb9ETm6HA/RqEKO3UiaI9Y7+INhNpbVEghEsBhimbFNcbOZPxihttFNaXUzW8pqWF9SyaYdVWzeU8eSbVWsr2hg8shcfnXt6cw+Z4wq0kgkwvz58/nnP/+J2+1Gq9Xy4x//mIKCgi6fpvc4aYSq1+uZPHmy2rU8//zzbNiwAeJLhtPHD2ZIdgL13sO750WjCq3uIL+8YhKnjeyv2jrr6+v5wx/+wNatWxEiFrqh0WiwWq1cddVVzJs3jxdffJEhQ4ao47h1O2p45qPVRDskW5NliQZPkH2NMQdmSZIwaGIiiXeyPYcAs8WsFnlTFAV/IIQi9r+yLEvo9RoMRi0GrYxQBDXNbspbfVw6oZC37rmMv916LpNH9lfPF41GWblyJX/605/Yvj3mS2C327nmmmtOaMz/ibvyARgyZAjnnXceJpOJQCDA888/T1NTLKNdksPMr6+eTGaSBX/o4OEqgbCCAjxw43TOGt8ezFZVVcX111/Pvn37GDhwIKeffjr33nsvy5YtY+/evbzwwgtceOGF6pg0Eo2yuqSCv/xrIdXNPvS69p/KF1YYlJXI8A6573sTa4fSQxqNTE56AlaHGXd8MtfmTAMQFBDR6tDbLZxxSj4v/PJCdr56B4///EImDs9T/VGj0SgNDQ08++yz/OAHP1BzUWVkZPDRRx+dMEN/GyfNGJX45Gfbtm3cddddfPPNN1itVh566CFmz56tlk5cuLaU37w0n2AgjMWgVceDIr5Kg0biZxeP58cXtvuP7t27lwceeIDKykquueYaxo8fT0FBwQErJiuKQl2Lm81l1Tzz4Rp2VDXjMOmQ4omxPcEoiXYjv7psEjNPbXdKXrdlD3e/9jWNLn+PZE1pwxeIcP6EQv5w/Zk4rLHuPxxRqG91U1PbgicYIaLE0vpoJAm7SU96qoNEm7lTDq42hBA0NTWxYcMG3nrrLf7973+r2/Ly8rjnnnuYPXv2CW1NOdmEStwA/+9//5tf/OIXhEIhRo0axcMPP6wuAoQiUf7flxuY+58VhEIRLPEf3x+KokgSPz5vNDecdwr2+E2sq6vj0Ucfpa6ujnvuuYeCgoL91qyFELg8fsqqmimvbuLz9eWUVjbS6vRj1LdbGlr9ETQ6md9fcSqXThvWKUvgui3lcaEGelSo3mCEy6YM4ddXT1EdT46VxsZGVq5cyTfffMP8+fMpKytTzXHp6en85je/4brrrjvhrSkno1CJm0VuvvlmPvroI7RaLTNnzuSRRx5Rc1d5/SG+3bibl95ZwtYaJ43hKANTbNx56SRmnjYYm9kY8+73+XjhhRf417/+xb333stFF12EFC+j6A+G8YeirNm0iy/X72Hj3kac3gAmjYQnEEEjx8OU46taTm+QfilWfnbVFGaMKcTUIecqvdSiChHzSbh6+khuu2SiGrDXlpjiUAsi0WiUSCRCKBSirKyMf/7znyxbtoympiZaW1vVqorEl0v//Oc/c9FFF50UIuVkFSrxnPKDBg0iEAggSRLXX389jzzyiPrDCREzcm/ZXYsvGGLkgCzSEizqzRJC8Nxzz3H33XczceJEnnrqKYqKYmPWuhY3j/17MW+8uQKPEkab6WBgcswm2kZUEYSisXpNWTYD508azK2XTSLZbjmgLbc3WlQhQCvBzReO4+qzR2PUa2lububjjz/GbrcftLhuXV0dy5cvZ8mSJaxbtw4hBIpyYAvKNddcw+23384pp5xySOH3NietUAHeeOMNfvvb3+J0OrHb7fzkJz/hpz/96WETzbpcLhYsWMDvf/979u7dS3Z2No899linFrWx1cPuykY2ltexeVc9u+qd1Lj9sbQ9kkSa1ciANDtTh/dj9JBcBvRL6WTDbWhoQFEU9bOs2RwTarO7Z4VqNmq5fdZELp4yDL1Ow+LFi/npT3/Kzp07u+5+RGg0GlJSUkhLS+POO+88qVrRjpzUQnW5XMydO5dnnnmG5uZmdDod55xzDnfeeSejRo3CZrOpg3whBIFAgD179vDmm2/y5ptvUl9fr55r5syZPPTQQxQUFHSaGEQiEfxhBaEIwpEooUgEjSyj12rR62SMem2n/UOhEJs2bWLu3LlcfPHFXHLJJQAs3VTOPa9+jcfbc0JVFEGyw8zd107jtJH5SBLMmzeP22+/nWAwiMPhIBKJqFkSO6LT6TCbzZjNZoxGI4mJiWRnZ5OVlcWMGTM49dRTsdvtB1xePRk4qYVKvIbqo48+yptvvonb7UaWZfLz85kxYwZnn3022dnZ6HQ6nE6nOilYs2YNKSkp6PV6ysvL1XNNnz6d2267jTFjxpCcnHzUocI7duxg9erVPP300+zdu5fnn3+eWbNmIYRg6aZy/vjagh4VajiqkJpo5eGbZ1A8KBshBP/617+45ZZbyMnJ4Yc//CGRSISKiopOZYpkWcbhcJCTk0O/fv1ISEggLS2N3Nzck6Yo7+E46YWqKAq7d+/mpZde4sUXX1TDVQwGA2lpaZjNZmRZJhQKqY6/er2eV155hfXr1/P44493Ol+/fv0oLi5m+vTpjB07lsLCwkNWAGltbWXLli3s2rWLOXPm0NjYSH19Penp6TzzzDNccMEFCCH4Zm0pf35jEX5/sOeEGlHITXfw15vPZmh+OkIIXnnlFe68807Gjh3Liy++SFZW1n7hI5IkodVq0ev1GAwGNQfVd4mTXqjEu3W/388rr7zCb3/7266bO1FQUMCrr77KuHHjcLlc/P3vf2fOnDmd3NzaVqRSUlLU0kJDhw5l0KBB2Gw2/H4/ZWVl7Nmzh71791JRUYHP51MTZRA338yZM4eLLroo1qJu3M0fX1/Ysy1qRGFE/1QeuPls+mUkIoTgySef5O6772by5Mm8/PLLJ1VZyO7kOyHUjlRUVPDss8+yYsUKKisrURQFWZbJycnh6quv5uKLLyYrK5bCpo3y8nIWLlzIggULWL58OZFIhGAwiMfj2c9P80CYTCZsNhtXXHEFFRUVfPzxx6SkpKjjVIDlm8q557WvcXl6VqhTi/tz3w1n4bAaiUajPPjggzz88MOce+65zJ0797CBe99VvnNCJR5rVVVVhcvlwu/3YzAYsNvt5OfnH7Jba2xspKqqisbGRkpLS1m+fDkejweXy4XT6aS5uVntNs1mM2lpaSQmJjJq1CimT59OcXExL7zwAvfffz82m41nn32Wyy+/HHrJPBUKK5wzcRD3/uhMjHotXq+XG264gY8//pgrr7ySRx99VK08833jOynU40UIQTAYJBiMJZ9oamqioaGBhoYG/H4/QggsFgu5ubmkp6djsViwWCyEw2EeffRRHnzwQfR6Pc8++yyzZ8+G3hJqROHKM0fwu2umIkkSzc3NDB8+nJaWFu644w7+9Kc/nZSmpe6gZ37RkxxJkjAajTgcDhISEigsLGTixIlceOGFXHnllVx11VXMnDmTkSNHkp6ejtVq3c/4HYlEuhjMpfirZxACwgISLEb1s4TDYVpaWiCezfu7kD7yWPk/KdTuQFGUTiagnkdglCEzsV2MdXUxf1jiURJHa277LtEn1OOgoxWgN/AjqaklAXbtipVKb7NifJ/pE+p3BQFWnYacjPYI0PnzY7m00tPTD7us/F2nT6hHgSRJB/XLlDQaJLnnWrWoEBhNBpJs7a59y5YtAyAtLa1PqH10xmQyqd1sx1BqjVaLpgcT+woBDosRfTzKVVEUdXk4KytLDYT8vtIn1KOkzbmDeKlM9X0N6IXSHgPSzbQGowzJjGUVJJ6YNxiMZfFLTEw8IUkhepM+oR4FkiRhsVjU2XVTU5O6sqXT6dDqDr7YcLzIkQj9MxPUocfu3bvbt8nyQYck3xe+39+um2kTalu2kJaWFnXmbzTo0JuOLzTkUMiyRF5GoirIsrIyiDvnJCfHqqF8n+kT6lEgSRJ2u13t+jt2v3qdjNUYCwLsbhRFIGk15Ga0u+Q1NjZCPJR5xIgRfeapPtqRJImUlBSs1ljam+rqatXtUK/VYjNo1fyk3YkQArtJrxaOANTrmkwm+vXr1yfUPtqRJAmr1arWyKqrq1OXUbVaDbYerIlakGYnIV4c2OVyqfkO2vxy+7r+Pjqh0+nUfAB1dXVq12816UlKsOIKdf+yanMgwqQBqSTYYmPj+vp6SkpKIJ5hpu3B+T7TJ9SjRJblTmvqHR1T0hMsPVLAV4pEKSho97FtaGhgz549SJLEqFGjvtfOKG30CfUo0ev1nTIut623A+RmJBLppjqubQQjCsl2I8MHxByiI5EI+/btIxgMqkI9VCjN94U+oR4lFouF7Oxs1Uz0wgsvqNuG5KeTmWDq1ox+Td4Q008pID8zZtD3eDx89dVXOJ2xQsRpaWn7ZX75PtIn1KPEbDaTk5OjimPRokWqu5/dYuDKacPY2dQ5OfCx4g8r2I1arj5rpPrerl272LRpE+FwmJycHIYOHdrpmO8rfUI9SnQ6HWlpaarRPxAI8MUXX6jbz59URIrVqKZOP1aEELiCYWafM5qB/WLhJYqisHjxYjUdZ2FhISNHtov4+0yfUI+BgoICNYiurahb27p/bnoCf71uGqGw0qkK4NEQjioEooKLJgzgR2eNxBTPXbpt2zb+85//QHxS99Of/rTLkd9f+oR6DAwcOJB+/fpBvOVbt24d27dvR8STA8+cPJQLJg2i1RcicoRFMoSITZwavSE0ssQPpo/krqsmk5ESywLtdDp599131bylU6dOZfr06V3O8v2lT6jHQEJCAiNHjsRkMiGEYNeuXSxatAiv1wuAxaTnllkTmTlhAN6wQpMvfMDWVQgRqxjoDVHR6kerlblkyhD+euN0fnrJBHLSE5EkSU3F+eqrrxIIBMjNzeWXv/zlAfO7fl/5PxmF2h2UlJQwa9YsqqqqkGWZAQMGcP/993PBBReg0+kQQtDs8vL1qp18vLKU5TtqoWN5HI2MkCSGZiYwIDuR0UU5jB2aS06KHZs5VuOKuCvho48+yosvvkhzczMmk4nbb7+d3/zmN/8nzFJt9An1GAkEAjz11FPcf//9qtF/5MiRzJkzh/Hjx3da0gyHwyzZvBeP04s3GEYIQWKCFbPJQFFeGukdSua0IYRg3759zJ07l5deegmfz4ckSVx44YU88cQT+yXZ+N4j+jhmWlpaxCWXXCKMRqP6mjRpkpg3b55obGwUiqJ0PeSQKIoifD6fKCsrEy+88II4/fTTRWJiojAajcLhcIiZM2eKkpKSrof9n6CvRT1ONm/ezO23305JSQl+v199/7rrruPSSy9l1KhR2O32A9YPbUstFAgEaG5uZsuWLWzdupUvvviC9evXq6Eu/fv3Z8aMGfzsZz87YXWeTjR9Qj1OhBCsXLmSOXPm8MUXX6hmqrZ8WKNGjWLixIkUFxcjy3In+2tLSws7d+5k06ZNNDU1sXXrVhoaGtShhN1uZ9q0aVx11VWceeaZ3/twk0PRJ9RuIBqNUllZyRtvvMGzzz6rLm/SwdnaZrMhdSgC3JZT3+fz4XK5Ojm3yLLM6NGjufPOO5k0aRIZGRn/J5ZJD0WfULsRRVHYsmULzz77LF9//TVVVVVddzkoKSkpjBgxgrFjx3LDDTeQm5uLLMvfez/TI6VPqD3E+vXr2bp1K1VVVSxdupTy8vJOrWZWVhajRo2iqKgIh8NBv379GDZsGDZbeyaUPtrpE2oP4/f7aW1t7TTRAjAajZjNZux2+/c+grQ76BNqH98J+h7lPr4T9Am1j+8EfULt4ztBn1D7+E7QJ9Q+vhP0CbWP7wR9Qu3jO0GfUPv4TtAn1D6+E/QJtY/vBH1C7eM7QZ9Q+/hO0OeU8h1GCIEQsfoWErF/ujuRsNJ2DSGQJAlZijmD9zZ9Qv0OIYSg1e2n0ekjGI7gD4TwBMKEowpaWUaWJRKsRox6LWkJFhw2M5qjTIMpAI8vSFOrF5c/hNPjxx+M4PMHMRr1JFqNmA06bBYjqYmWTlmwD0Y0qtDq8aPVyFhMBrSao+/I+4T6HaG+xc3yLRUsKalkV1UT3kAIfySKEolijte38keiSFoNDqOeon4pjCjMZMa4QjISrYf1eY1EIji9QRZtKGd9WS279jVR5/QixXNoCUUQVgRCljDqNKQlWhmcm8bownQmDM0h2WE9aG7YnZWNPPn+cjITLMyeUUxBdnstgiOlT6jfAbbvreepd5exo7KBJneQnGQrg/slodNIGIwGHKZYq+byh2j1Btm1r4U9dU6sJi0jCjL40YwRTBxZcFCxOj0BFm8o48s15WzcVUOLO0CS3cSw3GTSEq1oZAmb2YjHFyAQUWhw+tm2t55WTxCH1cCYoiwuGDeAM8cVHVCsizftZfZD7zMwzc7Dt5zDuKGxdEhHQ59QT3IanF5+NecTtu+tx2TUM3NSEedNLCI3zY5GIyNJMm3aUAREFYWKOif/W7KVT1buxB8Mk2w38ffbzmPUwP2TVnj8IebN38g7CzfR7Pbj9oW56fxTmD52ALnpjniCNglZlhCKQCDw+PxU1HuYv2oH7y3ehkaWsBj1/PzSCcw6ff/sgsu2VPLDRz6gMN3Ogz8+i7GDj1OomzZt4p133iEUCnXe6wDIskxKSgqTJk1i+PDh2Gy2gz6xfRwbQghe+Xg1r32+jkhU4ZIpQ/jVlacdUURqMBzlo29LeOHjVbR6Aozon8acX1yAzdqeX8AbCPHax6t4++tNhAUUZiTyxC8uJNVhPqJ7KYRg7dYKHp23hPKaVhQhuOuyCVx29phO49DuEKrmvvvuu6/tj9WrV/P444+zatUqGhsbqaioYM+ePQd8lZWVsXTpUl566SVWrFhBQUEBmZmZ3/syMr1JfYuHj5dso7ymhYI0O7+//kwc1iPL16/VyBTmJFNSXkdVvZN9rT7SHFaGF2ZAPGL2kyXbeP3z9SjAeeMHcvePziQjKRbWfSRIkkRmqoNBOcnsqW2hvtXD5r2NpDpM5GenqBO5ynoXHy7dRpLVwJmnFJCV4uh6qsPS6bHRarUYDAaKi4t5/PHHee211w76evnll3n44Ye58sorWblyJb/73e9YvXq1mn35ROP3+yktLaW2trbrpu8Mbm+QBqePqCIYPSibBGssecWRYtRrOWtsISFFoAN2VDao23ZW1PPCJ2tw+kKMKMxg9jmjD5gD63BIksSIAZncMWsCaQlWvP4Qn60oY29tS9ddj4v92nchBHq9nvz8fIYNG3bQV3FxMRdffDF/+ctfuOiii9iwYQMvvfSSWqjrRFNZWcmtt97KW2+91XXTd4ZAMEQwFMYTUkiwmTDqj76OVVFuOoFYuVbcvhChcOyPVz9azb5GDzabkVlThlCQlXTELWlXZFmmuCibO684FVcwyvqyahZv3EP4CHPDHgn7CRXVkHzoOZYkSeh0OjIzM7n33nuJRqOUlJR0KiZ7IvH5fCxbtow9e/Z03fSdQa/VYNBqMOtknN7AMTUCmUlm/nDpOG6beQpnntIfWRJs21PH2l11WAwaTh+Ry2nDco9ZpG3IssxZYwYwOj+VYCjKN2vLqKpv7brbMXNAoR4tiYmJaDQa3G43paWlXTf3cYyYzEYSrUZ0ssTKrVXUtR69UE1GA9dfOIEbLp7E+acORavVsn1PPYFwBL8iOGtMIVbL0Q0pDoZWI3PZ6cORZahucuPyHv3nPRjdIlRZlhk1ahThcFjNutyRtqx1Xq8Xp9OJz+cjGAwe0XhWCEEoFCIQCOD1enG73QQCAUKh0AGPVxRFfb8tI7MQgmg0qpYs70g4HCYQCODxeHC73fj9fsLhWA7TNroe23a+tn0URSEYDOLz+XA6nQe0mrRdx+fz4fP5CAQCamXqg5GWaGFIYSZoZCobXTz17mL2VDfjj+dYPRZC4Qj7GpxEFYWcBDOpibHU691FUW4aWUk2/KEIpZWNx110o42jH/QchKqqKiwWS6eMc0IIKisr2bp1K9u2baOpqQmfz4fVaiU1NZXRo0dTWFhIRkbGAbuehoYGKioqWLduHXV1dfj9fiKRCFarlYSEBEaMGMHgwYPJyIjNZMPhMLt27aK1tVXN+9TY2MjatWtxu91oNBqmTp0KgNfrpba2li1btlBSUqImKrNYLAwYMIAxY8bQr18/otEo69evh3je/LbvtGfPHgYNGoTdbmf9+vWsX7+e+vp6fD4fV111FePGjYP4pK6hoYFVq1axbds2VZw6nY4BAwYwduxY0tPTsdv3F4xBp+WsMQV8u3kvm8pqWbq5gppGD1NPKeSUwnSyUh3otDJ2qwlzvCDF4Wh0eimvbkGJCgrSE0hJODIrwpGSkWQmJyOR0lon2/bUceHk7ikv1Mk8VVZWxpdffkliYiLnn3/+Eafe3r17N0888QR5eXncdNNNpKSkAPDll1/y+OOP8/7771NZWYnNZsNgMFBbW8uyZcv48ssv2bRpE9nZ2ftlUK6uruavf/0rr732Gjt27MBut2O32zGZTLS2trJ8+XL+97//sXXrVoqKikhOTsbj8TBv3jzmzp3Lli1baG5uJhAIsGLFCv773/+yfv16Zs+ejdPp5MMPP+TJJ5/knXfeoaamBovFgk6no7a2lqVLl/L5559DfFjzj3/8gxUrVnDFFVegKAqffvopzz//PIMGDWLdunXcf//9fPPNN9TV1VFSUsIpp5zC0KFDaWpq4r333mPu3LksWLAAnU5HcnIyGo2G6upqPv74YxYuXIjb7SYnJ+eAYk2wmRiUnYjbG6C8ppXKZi/bymvZsruOhZv3sr2shr11rdQ0OHG7fWh0WqzxlaoD0ej0882aMmpa3IzIT2NKcSGGY5ikHYxIVLBhRxVl+1rIT09g2ugCapo9x22eOu5PGIlE+POf/4xGo6G4uFitFrJw4UJuvfVWbDYbv/jFLzjjjDNISkpClmVCoRDNzc0sXLiQOXPmsHr1al5++WXGjx+vnvexxx7jvffe45prruHGG2/sVIQsHA7jcrl46aWXePHFF2lpaeHVV1/FarVy1VVXMWPGDPbu3cvtt9/OqFGj+PWvf004HEar1eLz+Zg3bx5PPvkkdrudP/3pT0yaNAmHw4Esy0SjUfWzvfPOO6o9uS15mSRJeL1empqaWL58OZ988glTpkzh8ssvJz09nWAwSEZGBk6nkzlz5vD6668zceJEXnjhBdLT09X8qMFgkIaGBu655x4eeugh9u3bxx/+8If9cqBKksTwgkz+eP2ZXDa1lg+XbGP7nkZanR4aa1rZpZUQmyuICEGKxUCCxUReuoNxQ3IYO6QfOal29Lr226woCv5IFCHAbjNh7oGK2BEhiByguMZxEUs8HeOzzz4Tw4YNExdccIHYuHGjqKqqOuCroqJClJSUiIULF4rLL79c2Gw2ceqpp4qysjIhhBAbNmwQQ4cOFYMHDxZbt27teIn9WLFihUhPTxdDhw4V1dXVQgghKisrxfDhw8XMmTPF3r17ux6iEo1GxbXXXiscDod4++23O21bv369cDgc4s477+z0/urVq8W4cePEtGnTRGlpaadtHYlEIuKTTz4RRUVFwm63iwsvvFCI+DVfeeUVMWjQIGG1WsXf//73rocKIYT43//+J6xWq/j5z38umpubu25Wcbvd4o9//KPIyMgQL774ogiHw113OSClVU1i3pfrxH0vfyFu+/v7YsYvXhLjb54rxv54rhhz09Ni2A/niLwr/yGu/8u/xZerdohAIBA7rrJRXPeXeWLMTU+Lx/+9qOtpjxunxy9+//xnYsj1T4k/PPup8AdCYunmCjHg2ifFOb9+VazeVtH1kCNiv8mUVqtl27Zt/O53v+OGG27Y73XLLbfwwx/+kAsuuIBLLrmEVatWce655/Lss8+Sn59PIBDg22+/pbGxkVtvvZUhQ4Z0vUQnxo0bxx/+8AcaGxt5//33AWhubsbtdtOvXz+s1oMboRVF4eyzz6aoqOiIrQ3r169n586dXHLJJeTl5XXdrKLRaJgyZQoXX3wxWu3+rY7H42H48OHcfPPNXTcRiUR47733GDRoELNmzcLhOHhXZ7FYuOaaaxgzZgzz58/H5XJ13eWADMhO4soZo/nzjTN46LbzePLnF/HwLWfzkwvHMnFoP1KTLWQkmdm8p5E/vPAlc99fQV2zE41GxqLTIEvgdPsIhg49oTtZ2E+okiRhMplIT09n4MCB+73y8vIYOnQoM2fO5JZbbuHxxx/nmWeeYdSoUciyjN/vZ/ny5USjUW666aaup98PWZaZPHkyWq2W5cuXEwwGyczMJCsri7Vr17J48WJaW1sJhUL7zdq1Wi2zZs3i448/PuIqdp9//jlFRUVMmjSpUznzA2E2mzn11FPJyMjYb5YdjUaZOXPmAR+k3bt3U1payqBBgygsLDzkurkkSeTk5DBp0iRqa2s7Vas+EiRJwmE1MbR/GmeMGcgN54/hb7ecy4s/v5A7L55AXmYikgTvfbuV1z9ZRzAcwRh3NGly+nH797dQHA+RSJRQOIxWltDrNHCASfKxsN8vGA6HKSgo4C9/+Qtz58494Ovpp5/m6aef5uGHH+ayyy4jNTVVPd7j8dDS0kJhYeER15FPS0tj2LBhuN1uWlpaSE1N5YYbbsDlcnHPPffw85//nMcee4z//ve/rFmzhtLSUioqKnA6nVitVtLS0o544rdq1SqysrIO2Zq2odFoGDRoEElJSZ2EqihKbJ07M/OAre3evXtpamoiJyeH1tZWdu7cechX22Suurr6iHuGg6HVarFbDAzMTWX2uadw9zVT6ZeWQDgSZe3OGpxuP3mZCciyRHmdiyZnrOZAd9Hg9LGvwYNFL5OXnnjUjtsHYz+h0mFlSpKkg74Ohtfrxe/3k5OTc8j9OmIymUhKSlLtjADXXHMNjz32GLNnz8blcvHiiy/yq1/9iuuvv54rrriCG2+8kb/+9a+89dZb7Nu3r+spD4rb7Uar1R5QYAfCaDQesOVNSEjYb+LTRluVkw8++IBrr72WK6644rCvp556itraWjX/vy8QZtmmPbw7fyOfL9/W9RJHzCmDs7n8tMG4glE8gSC+QIic1AQ0Gplqp5em1u6phN1GTZObvXWtWIx6hhdmoO0mJ6UDCvV40Gq1aDQa/H7/EQs1EomgKApCCNVYb7FYOO+887jrrrv417/+xapVq/jwww/59a9/zcCBA9m9ezfPPfccP/nJT7juuuvYuHFj19MeEKvV2mlR4HCEQiG1jE5HrFarOoPvik6nQ6/X87Of/YxFixYxf/78w75WrVpFWVkZs2fPhvg6/wfflvDbVxfwymcxO+6xoJFlcnNSsBs0RCJRWt1+cjMS0GlkdMD8NbvwBbpvnPrZ8u2EI1EcZiM2i7G7ev7uF6rD4cBisbB169YD3uAD4XK5KCsrw+FwkJKSQigUwufzqSaltgWC4uJibrrpJt599112797N9u3bufvuu1m7di2//vWvD7gi1JUpU6ZQVVVFeXl51037EYlEWLNmDVVVVfs9dOFw+KDXczgcZGZm4nQ6MZlMpKamHvKVnJyM2WzGaDSq9aj0eh0ZyTZSLXr8/iDbKxq7XuaIkYCoAhFF4A9HGTkwi1H56QQiCl9v2sOKLXtRjnGlqyOlVU18uGQ7SBKnFheQm35kw7EjoduFqtfrycjIoLm5+YgdVKqrqykvLyc7O5uEhATWrVvH888/z5o1a7ru2ons7Gxmz57N4MGDcbvdVFRUdN1lP84880zKy8tZuXLlQYXWhtvtZsmSJTQ1Ne0n1EMxdOhQcnNz2bp16xG5GTY1NfHGG2/w/PPP09oac+TQamTSE61YTDoanD527jn8eQ5GOBzGGYyg08jYzXq0Gpkfnjsao0GL3xvgs1U7qW92dz3sqGh2+Xhy3mJsZj2FmYmcdUo+ZuP+Q6ZjpduFarFYOP/887Hb7Tz22GOHNbe0traqxvdzzz0X4rPmxx57jPnz5x/WY0iSJHVN/1Cz6zYmTZpEUVER7733HsuWLTvoECAYDPL222+zevXqg3bxB8PhcDBhwgTWr1/PsmXLCAaDXXdRiUajbNiwgVdffZXt27er42G9VsPA7CSSbWaiiuB/y3eyr6G9ftWR4g9FWLN9H2adBqNOR7LNjFYjM3RAFjecU4xRr2PN9n28/dUGao9RrPUtbl753xrWlVZjNem5ZOowBuW2T7C7g8Pf2aNEq9Vy6qmncumll/Lhhx/ywgsvHLBViUQi1NXV8cADD/DVV18xe/ZspkyZAsDw4cOxWq289957LFmy5KA32u/3s3btWkpKSkhKSiI7O1vdptfrSU5Oxul0dnpYCgsLue2223C5XNxxxx28+OKLbNu2jT179qhDgo0bN/LXv/6VN998k4suuoj8/Pz9zFOHY9asWRQWFvLCCy/w9ddfH3QYtGbNGp588kmMRiM33HCDau6SZYnB/dMZMSADrUZm464a5r6/nOajmKULIVi+qZx3l+7AopfJTnNQmBtb3jbqtVx5xkhmjC3E6w/x5oItPPPuUirqjtw1L6oI9lY38+KHK/nvkq0IAbddPIGZpxbFY606o5HkY55cdctaf1fMZjPFxcXU1dXxyiuvUFZWhsfjoba2ln379rF582aWLFnCgw8+yEcffcQvfvELfve736nLlGlpaeTm5vLSSy+xZs0aIpEI9fX11NbW4nK52L17Nxs2bOCDDz7gwQcfJDMzk0ceeYT8/Hz1M+j1erVF83q91NTUsHTpUiZNmsSgQYMYMWIEJSUlvPbaa7z++ut88MEHfPnllzzxxBO8+OKLKIrC3XffzfTp0/niiy/QaDRcc801AGzcuJFly5Yxffp0ioqK1Gt2JDExkWHDhvHNN98wd+5c9Ho9TqeTpqYmqqur2bx5MwsWLOCee+6hpaWFe+65h+nTp3eyRhgNOvIyElm4bjcef4jKulb2VtRhNulJS7IfMj7e6Qkwf3UpD7+zjJA/iNVk4JYLihk+IDuWrAIwGXWMGpCJyxtkR0U9u6pbWLO1img0SkqCGYupvRx7V5pdPj75ZjNP/Wcli7ZUIguBXa/hd9efiaNLJEJbKEqCJRbGHVUEDS1eGlqP/NUpuO+LL77gnnvuYfjw4TzwwAPquv2x0tzczFNPPcX777+vuv/ZbDZaW1vR6/WYTCZuu+02brzxRoxGY9fD+fzzz3nkkUeoqakhGAzicDiw2WyEQiGcTicajYaRI0eqn7kjQggWLFjAY489xt69e4lEIuh0OrZs2aLu02bjXLJkCWVlZUiSRP/+/TnzzDMZMGAADoeD8vJybrrpJmw2G//973+JRCK8/PLLPPfcczzwwANcdNFFna7bESEEu3bt4h//+AdLlizB7/eTkpKCRqOhvr4eWZbJyMjgkUceYezYsQc0gwFs2lXD/a8uoNHlJRAMYzLoKMhMZERuEv1y0khyWDDpdfgCIRqdXqpqm9lQWktFvZOwoqAI+MMPJnPhlGEHHB41u3w8/d5yvtywGyUcQRKQlmBl1MB0BvVLIy3JQqLNQrPbR01dC7v2NbFpVx01LR4kSUKRJCQhiEYVJg7L49ZZ4ynql4Iunm9g6eYKbvj7ByQYdSTZjGhkiaPsoHonXNrlcrF161Zqamrwer2kpKSQk5NDYWHhYcd/kUiEmpoaqqqqaGlpwe/3k5SURHJyMnl5eYdcniQ+BnS5XLS2tpKcnIxer6e1tRWz2azWJz0YQgg2btzIrbfeyujRo3nuuee67nLEOJ1ONm7cSF1dHYFAgISEBIqKihg0aFDXXQ+I0xPgq5U7WbW9itLqZpq9AZyeAJGIQigau4WyJIEEVqOWJJuJ3CQrowZkcPrYgYwoiLlCHoodFQ18vmI728rr2d3gpMUdxBMIowhBIKKgkSR0Gplki55EqwGHxciQfikML8ygos7Jp6t20uT0kZueyI9nnsK0UflYzEbWbq/iL68twGaJzSWOhV4R6snE5s2bmTNnDlOnTuWKK644YEveRjQa5a233uKee+7hvvvu48Ybb+y6S6+iKIJGp4faRje1LW527WshHIoQjDsntwk11WGhX5qdrBQHeZmJRxVrFQ5H2NfgoqbRSdm+FhpdPqKKQoM7gFGnwW7UY7cYyE6xkZOWQL80B4l2M25fkC9Xl/L6J2vYVediUIad+244i1FF2bh9IfZUN8WWVI+R/3NCLS0t5c4770SSJJ577jn69+/fdReVyspK7rrrLjZs2MD777/PsGHDuu5ywohEFYKhCAe6eRpZQq/VoDnEGPZwKIogGI4QjbvrRSJRJElCo5GRJQmdVla79jaC4Qhrt1Xw9IeryUyy8dtrppCR1E21Xbt4U33vcblc4p577hEpKSni7rvvFlVVVcLr9Xbax+v1it27d4tbbrlF5OXliTlz5gifz9dpnz4OTCQaFbVNTtHQ6hGK0nXrsfN/rkUVQlBdXc0zzzzDvHnzsNvtnHXWWeTl5anDgHXr1rF48WL0ej0/+clPuPrqqw87Fu6jZ/n/UHtv/+ykv+wAAAAASUVORK5CYII=;" parent="1" vertex="1">
                    <mxGeometry x="-1073" y="837.78" width="84" height="84.49" as="geometry"/>
                </mxCell>
                <mxCell id="65" value="" style="shape=image;verticalLabelPosition=bottom;labelBackgroundColor=default;verticalAlign=top;aspect=fixed;imageAspect=0;image=data:image/png,iVBORw0KGgoAAAANSUhEUgAAAJkAAACCCAYAAABVTWriAAAAAXNSR0IArs4c6QAAAARnQU1BAACxjwv8YQUAAAAJcEhZcwAADsMAAA7DAcdvqGQAAB4BSURBVHhe7Z15dFxXnec/971Xi5bSvluyJNvyviR2jO3EWU3IRkgnQKeh09NAGOA0ZJheCN2cME1muiEMfboZ0tN0chgg0N0kYcgkhCxgO3FCYmLHjh3Hiywvkm3J2lVSqVTbW+788Uq1SZatksuSw/ucU3/Ue/c+lep96/5+93d/v/uElFLi4JBDlMwDDg4XG0dkDjnHEZlDznFE5pBzHJE55BxHZA45xxGZQ85xROaQcxyROeQcR2QOOccRmUPOcUTmkHMckTnkHEdkDjnHEZlDznFE5pBzHJE55BxHZA45xxGZQ85xROaQcxyROeQcR2QOOccRmUPOcUTmkHMckTnkHEdkDjnHEZlDznFE5pBzHJE55BxHZA45xxGZQ85xROaQcxyROeQcR2QOOccR2SXCNC2iMZ3fx91ThbNnbO45cKKT1947iWGauFwayxsqWb1gHhXFvsym70sckeWYswPDPPTjFwlFY0gJiiLIc2sUeN1cu2IBd21eg8elZXZ7X+GILMc8/vxv2X2skwfu3Ex9VQl7j57m5T1HGQlHiMZ08jwuvnz3DSxpqMalqZnd3xc4Issx//DUVo73+Pn2Zz5MsS8fAN0w2XW4nZ1H2jl8qhdFUbjtqqU01ZTjcWm4XSqVxYUUFeS9L4TniCzH/PbAMR578S3u27KWW9evSDvnD4zx5uGTPLVjH5aUeFya/dJUKooLKfHl01xdyqZlzZQVF6b1vZxwRJZjdMPkwceexeN28YU7r6GppjztvGFanOnzc6yzh5FghIFAkKHREO29fsaiMbwuDV+el3s2r+La1S2oyuUXEHBEdglo7xnk4Z++zJUL6rj/9qspzPNkNplAJKbzdmsHz+08iD8YIqqbXLmwjk9uWU91aRGKIjK7zFnUb3zjG9/IPOhwcfHlechza7zy7nEUIVjeWJPZZAKaqtJYXc7mlQspKfASiuq0dvax60gHbrdGha8Ar9uV2W1O4ojsEqAoCjWlRQwGgmzb10ZLXQVVpUVpbXTDZGQ0hNutoYjkKOXSVJprK1jeWE2+y83h0728e6KLgZEg9RWl+PK9adeZizjm8hIyMBLk6z9+kQKPm2999s60mWNX/zDff+ENirxuHvyjD6X1G0c3TDoHhnn0FzvoHx2jprSIr/zhFqpK53ZQ9/LzIi9jKooLuXvTCgZGxzhwojPt3LzKEj505WIOdPSyt7Uj7dw4Lk2luaachz99ByvmV9M/EuSvf/Acp3qHsObwWOGI7BKzfmkTMd1g34mzmKaVdu7qlYtYWFdO+XnCFb58L5+74xo2r1iAJeHbT25l/7HOCdebKzgiu8SUFhWwuK6CM/1+BgPBtHOaqvD526+mqbYi7fhklBUX8vHrr2TLFS34xyL8+/Y9HDnTy1wc0ByRzQIfumopZ/qHOdM/nHmKuoqSzEPnpLgwjz+8cR13bVxBtz/AEy+/RWAslNls1nFENgssnV+DIqCjx48xQxPncWncefUqrmqpp9s/yveeeZVITM9sNqs4IpsFCrxuNi5tYk/bKcYi0czT06bA6+Fj16+luaaM1q4BnnxlL7phZjabNRyRzQJul8aVLfWMjEV470RX5umsaKgs4Y4NK8jzuHnzcDu/O9ye2WTWcEQ2CwghWDq/hubacn74m91EdSOzybQRQnDVkkauW95MKBpj+zutnB2Y6PPNBo7IZokCr5vbrlqKpip858mthCKxzCbTRlMV/tOtGykpyKO918/u1tMz9vkuBo7IZpGVC+Zx19Urae3q55k33sW0Lo4gPvOhDWiqwo79bQxlhElmA0dks8yNaxajmxYjoUjmqaxZ1lTLFQvq6B0Z4+2jpzJPX3Ickc0yrae6cakKTVUlFy1XLM/jZvXCelyawgu7DmeevuRcnP/KIWt2Hz1FodfDusXzM09ljRDQMq+SpqpS/GNhfnugLbPJJcUR2SyiGyZtnQMsqCmjpqw48/SMqC0rZun8Gjyaxq92tc5qgNYR2SzSOxRgNBpjXUt95qkZoyiCzSsX4HFrDI2O8e7x9KyPS4kjslmkZ2gE3TCntV45HRqqSrmiuZaYbrDr6OlZG80ckc0ioWgMy5JUleQm6VAIwd3XXoFhSU509dF2pjezySXBEdksEo7pkyYbmpbFqZ5BBkdmHuOqKStm84omBkZD7G07QzQ289WF6eKIbA6QuZjd5x/lsRd20nq676Lkh92yfjlel4u3Wk/RfxGEO10ckc0ieW4XihAMZNz4/9i2mzP9fg52nCWqz9yPqi0rYm3LPEbDUX7z9qWPmzkim0XKiwrRVIWeoZHEscGRUXYf68KtqexqPYV/dOZJiHkeNxuWNlGU72Hb/mN0TpIsmUsckc0i9ZUleNwaB9rPJo4dONmFpgoKvG48bo2Xdx9K65Mti+urWN5Yg0tV+N/Pvs6eo6fwB8YuyX5pjshmEV9+HvPLiznePcTAyCgAJ88OoghBU005G5Y08ttD7ZzpG8rsOm2KCvK4c+MqqooL6ejz89gLb/Ivz7/BC2+9hz8wltn8ouKIbBZRFMEdG5YzMhZh50E7ybDbH0BTFKqKfXxw3RJUVeVHv34rs2tWNNWU89B9t/DAXZtprCzlyOlenn79Xf7bT17ipV0HiV2EvLbJcCrIZ5nqsmJ2HjxBj3+UxupSXj9wEsMy2biskSsWNdDZN8TBU73MKytiXuXMgrZCgNftoqGqjOvWtHDD6oUUetyc6Blkz7FOugeGaaopp8DrRqRUsc8Up4J8DnDibD/ffeY1pLQYi8Rwaxp/9fGbaKmvIhSJ8T+f3gYIHrjr2vPWZGZDTDfYureVbe+0IaTkYzdcydqWhou214Yzks0BigvyqCn10esP4HVp3LxuKesWz0dVFFyaSsu8St492UU4qtMyrxLlIqUEjaOqCgtrK1g0r5KBwCi/2n2EcCRGQ0UxeV53ZvNp44xkcwTLkoSiMUzLosDrQVOTQpJScqp3iMdf3MmffeQ66isubsZGKqFIjN1HO/i3bXtYWFvOl/7g+hlv6uKI7DKiZ2iEp159h899+BryPDMfYaaivXuQH7y4k3AkxsOfvmNGQnNEdpkxGopw9FQPi+dXU1SQl3k6KyxLMjAySt9wkJGxCDHTxLQk7V39vH7oJIvrKvgvd99AcWF2f88R2WVIKBKj1x+gorhwRiNMOKqz+0g7rWf66PEHGBgZY3gsTFQ3cWkKJQVe5leW0FhTyW3rlzki+33DMC2EYEZ1Acc7+/jHZ3YQielYlqTCl8/aRfWsXDCPytJCvC4Nl2ZvljyTXbgdkf2e840nXqCj18/C2nI+e/vV1JQXc/EiZDbZ/wwc3hd84c7NVJX4ONY1wM9e3cvhju7MJjPGGckcONbZx3+8soe2rn6qiwu5akkjW9a2UF16cUIljsgckFIyGBjjqR3vsPNwOy5VpbasiM/cupGW+qrM5tPGEZlDGvuPneYnW/cwHAqjKQpfvudGljdWz2gt0xGZwwR0w+Stwyd581A7bV39fOGOa/jAsqbMZheMI7ILxTKQ0VGIBsCIgqqBuwiRXwZihvMnaSHH+pHhIdDDAAiPD1HcAFr2cbCZ4g+McaCjmx37jnL7hpWsX9qY2eSCmJHIOroHeGLrbmJ6eiGE26XywF3XTfuhU0MjQR597vWJ13OrfO0Tt8woVjMTzLYXMA89DoFDYJmABAQoKqgqSsuXUBd/GFHanNl1SqS/HfPIM1gnHwfDAGkgsW+HQAHVjSjdhLryfpTm6zK7T4r+8v3IkROJ98JThesPnk5rMx2klPQNB3h51xHWLpnPqua6zCbnZUYi29vawb+++DusjC2PhBB88qZ13HTlkrTj5+ONA8d5YttuLCv9I7lcrrRH+V0SLANr4DDGq/8VObQXtHIQ5xC5GQChoDR9HG3DXyKKp/7Fy9Ag5sEfY777v8CKgpr+dJI0pAH6IKL2OrRrvolSuXLKkTP2zIeRgwftHwESkVeP+743MptNm5GxMEc7ulmdRQrQuT/tBeAfC08auJNS0tbZP6HUayp0w+RARzdmhsAAkBL/mG1GLgmWgdW+FWPr/cjASXBV2TdWRsAcA6nbN98K2++FBsKDdeLfMd55LPNqaVgDRzC2P4C57zsg3LbApAnWmH2t8ZcVBiz72u5qZP9+jG2fx2rfnnnJSRB2v5nd3jSKC/JYu7QJj2t6AmOmn2JoNDxpcaqUku7BkQmlXlMxMBK0q3YmuZ5lWQSCl05kcvgkxu6HkaEBEC7bPMoYSvUGtI1fQ7vu22jXfwft+m+jbfwaSsu9iMJ60PJRV34i83IJrIFWjNf+HKv7NVB9thiMEUTRItSVn0Pb9BDa1X+LtukhlKY7QdFsQQMoechgF8Zv/xLrzK7MS18SNFUhm0nmjMzl4y/s5K0j7ZOOZqqicP+tm9iw/MJmJbtbT/F/Xto56faTQgg+dfMH2Lx6UeapnKBv/xusEz8BJW6eBahL7kO96ssIt8/2xcaxTDCjyIgfGeyxzZk2yaMGY0GM1/4Cs2NrfJQBjBHUlV9EXftF+7qqljBz6GGs/kMY2z+DjIaSfaSJKCzHdfc2hHdisNQ2l4fs9tJE5NVdFHM5E7IeyQzTIhLTEyVVmUKL6AYdvYMXZDJ1w6S9e4BwvIQ+MyYjpbx0lc+WjtX2z0mBYSHyfKgbH0R4S9IFBvZ7Vz7CNw+ldt3kApMS6/QOzM63kn6djKCu+jO0jV9F5FfY/YRqm2WhgrsQZd4GXB/dAZoJMv7jEyoyNIh19BfxCcjcJ2uRRWJ62q7N+R43pSn5TaoiONhxlnD0/BvuhqIx3ms/i6oITEtOuuvg8NjF2+5yKqy+I+kHzBGUBX+K0LJLcwEgNop5/DnQ/fbPUZqIkhaUJfeeN0QhCirRNn/f9tnGRWVJrM6XkeFkUfBcZgYiixGNxezBXdpVylcsqEuIQxGC033D9PjtesKp6PWPcrpvGEUIYqbJDWtaKPC4Eu6ZlPbImDrrDIyFOXm2n/bugcRr9AL2XR0NRdL6HOvsSxttZXho4rDsnmL2dwHIcB9W53ZQ4qOcsFDm3YhS1pLZdFKU+k2IynUg4w+WEApy+BRy6Ghm0zlJ1iKL6SaxxM2RuF0KVyyej6omzYklJfvbTifen4u3j7SDsAXk1VRWNNVR4PUkYkYg0Q0Dw0yK4XjXAP/0zA4eeXIbjzy1jW89uY1dracmhD8yeevQCb75s6088pTd7+s/fTltRiu0fEh1C5VCrM6XUg5MH+v0m3aYY1y9qoVS/0Hbsb8AhLsQtf66eIwOQEGOnUUGT2a0nJtkLbJIzCAaMxNfnKaqVJYU0FhZnBiB3JrKS3tbp9w63DAtdrx3Epeqopsmm5Y14XZrlPry0kroIzE9bRO3uvIiygrzbfEZJjHdoO1M73k3KGnvGUr0MQyTikIvXnfKzfZVpXuYwoXs34l59Hmwsit+NY+/ACJpFoXiQVQtT2szJaobSltALUgekyZypAPM87sjs03WIhuLxojG9MT90FQFl6Jy3aqFhFN8tXDM4Hhnf7JjBoc7zjIats2AlLBxeTOqUCY8DD4aM9IEVFFSmLZDoSIER073nnc3wVN9wwmTbloWyxuq084rJU2IsjVJ0wRgeTDf+XtbLNO9qaaO9O9Nmkos8FZOOjOcCuGpRHhKkn6ZABnsBXPq/3cukLXIIlGdiK4nfvOaqqJqKmtaGvC6kiOD16Wxfd+5fYdt7xzF69KQEip9BTRUlqIoIm4uk8QMg2jKcpOmqiytr0wIRggYCobp6B5M6ZVOOKoznOK3mZZkRVNtWhsAbcPfghVLuaEKMtiLuevr6G9+Hem/8OcWyWAvRPuSX7UVQRStzWx2frxl4M7LmGUOIbMcXS8lWYssqhsJn0zGb7pbUynweljTXJOId6mK4NDp3kmdcn9gjGNnB+1ZpbRY3lSD1+NCCIHH7UqboUdiBpGMXQJXNdehpqxnulSF1w4cS2uTSv9wIM2vAyZ9gKnSsBl15f125D0hNA0ZHcNq+zn6L2/H2P1dZDSQ2XUCMpixhaY0EfnTz9ESrjzQ4oFhsG9dbDQpujlM1iIzpUyL9quKkhhVbrpySdo5XTc4nLI90jiHT3WjG7ZwFCFYOK8Kj0tDUQRet5bUmBAYhjnB3yorLqS5qjThA6qK4N327kkDusR3m06dGJQW5lE0WbWP5kVb/zeoyz4FImwv+0D861KRuo6579voz34Uq2snxM4dw5PRwMRvOZtwiOpBpIU7BOih96/ILCntQGzKMU1NiqyhqoyywqTjbloW753qTXtGtm6YHD7dh5QSKaHCV0B9RTFCCBShUJDnSZhiAcQMc9L9Tm9c05LmA0ZiBofaJ3+8X3uvP7GYb1oWC2rK8KSY9jTchWjXPIx27eModVeB4kou8SBALUQG2tCfvwt9x19hnd4G+iRbMMVTd2aMoiWj/vaBuMBS78LcJDuRWZJwRE/8f4oQuOMjEECex8XyxlrMuMiklJwdSH/m9lAgSNfAcFyIkpryYuri5fdC2L6cS0t+vJhhpvlk46xYUJfmA3pcGtv3TXwCh2Ga9I0EE8K3JMyvLsd9LpFhz+rUxXeg3fQY2oaHECUtYKYEQIUbtBKsjl9i7PhzjLf/CWKTCC0T62I462Z80pUZ1Jt7ZCUyKWVaJF/EwxXjy0Eel4uWhqrkvy8EZ4cCac/cPt03TM9QID5yCRbWllPgTc4otRTzCxA1TGIZ/hTxp9ZuWNKQ5gMeOzs4YWO34WAI/2jymFtTqS0rTttz4lyIvFLUZffiuuNnaBu+CUZPutiUAmQsjHnoX9Bf+Wpq18nTchLxrmlg2flmabiLJ7/+HCOrT2hJme4fCYEnxQEXAurKiqjwFSDjIgxFdboGhjEtC8O0ONM/TCgebtA0bUIynKaqKEJJMwaRmDHp9pObli/ASPG1DNPkWGdfWpvBQIjh0TAgkFJS5sununQa++crKiK/AvWKz+L+4zaUpo+BGE9gxP4vRQFW+79h7PpeIptEFFSkWzQlDxlO/2wXhGUgU0dAqSM8RYjMtdQ5SHYisyQR3UikfViWREuJ9APUlRdTWepLiEIVgvdOdhGKxAhHYxxs70RV7Bvuy/PSWFOe1t+l2bPVVCLxhytk0lhdRqUvP+kDmhZHzvQlgsBSSnr9o4yEIonPXF1aRHXZNESWgvDV4tryj2jrvx5fe0xxvl2VWEe+iwycsdu6CzPcJoEMvJt64IKQsSDEImnmURRU2r7iHCc7kUlJOOVJs0KApqb7Br58L/OrylDid1UoguPdgwwHwwwGxmjv9aMIgW5abFjSMMFsuV0qLlVJjT3a5fSTjGRej4tljTUJHxAkXYPDiRw0w7Q4OzCSCLkIIaivKE4zz9NG86Ku/BO0DQ+Bkb5QLS2BdeZ39pv8jBCJUCHSc2G+WyrhfogGk+ZRgiiqA/V9KjJpWYRTIusCMUEkQghWNdWgxo+L+Izu8KmzHDjemRhlYobF9VdMXCh2a3ZwN3UYOJfIPC4XS+ZXJwSNEPQOBegcsG9+VDc43WvH44hv+raisSb1EtmhaKhLPo5SewtYKXFAC2TAnnyI/DLIb0wJgwBWFGt4Gg87lRYyeAIZ7Yt/kxK0AihsvOD1z9kkK5GZUhKO6glHXyikr//FWTK/hgJPcrRQhcKO/cd5/cAJXKqKaUkW1ZRTOcmzhVRFQUtN9xG2yCbzyYSA+ZWlVJf4Ej7g8FiE/kAQKWEsEqW1sz8hwnyPmwV1lZmXyQ5FRWm+FWRqqEKAEQ/UCgWl+sa0ZSppasiefcnm58OIIgeOpmQNS0RRE0rp0oyGc5OsREbcDxtHICYtLnBpKmsX1qEb9qilKIIe/yj+kH1DTMvi2lWTV/hoqppmgkV8b9PJfDKA6jIfVaW+5I0Q0H52gJiu897JLvT4zFQ3TD6wuIH8i7BNZQJpZPhdJniSUX1lwRa7YGQcKbG6fzNlEDcVGerBPP2KHTKxjyBKFyGKL96DWHNJViKTlh2MHWcyEzbO5lWL0kIP47E0AJeqsmphQ+J9KqoyMUNWN8yU9J90CrwemqrKEvupKgjO9A0RNUx2vHs8Yc5jpsWH1i/L6D0zzGM/ByUlGq+YiLJVybe16yCvISUEoSB792B17pi0piETc9/jEOpMBmOFtGsAXJewemsGZCcySAsZCAHujNnlOI015ZT78iaMQKYlaakrp7hgkmWduN807s+NE9EN5DlGMoCVzbXJpElFMDgaorPPz4meIRQhsCzJioZKKoonmudUrKHjyNC5F9pTMfY8hhzYCUpyqUioHpSGTcn3+RWoC24DOT5ZEshoEGPvo3aS5BQY+5/AbPsBqPEaVmmglF6B2vzBzKZzluxEJiW6aSZnjkLg1ib6ZMRv9i1rl2JmrLFJKVnWVDepmSUejE0NiwghCEf1lBnkRJprK8hP2Us1FNXZuucwnvjKgW5Z3HX1mpQek2BEMZ7/I2I/24Cx8xGsvn3IsX6IjtprhbExZHgYOdSG8epfY77zEGjj/p0EcwBlzUPpqTxaHsrCexCFjclwh3Aj/YeJPX0j1slfI8f67HXOWBAZGbErpt74O8xdD4JSYtt/aYFiom35ZzvH7EKQJnK0a+pXsDORMiQjI8jgWeRYHxgRZLDLXqEwInb1VuoE5gLJqlppcCTIVx5/LhFz0lSFL37kWlYvnPwxxx09gzz805eSs7/40tN/vu1q1iyavM9IMMS//uoNjp7pQwiBJSV1pUU8+ImbKZ5ir9Sf/vottu4/Zoc/UrAsybyKYr5y7wen7G8eeRbj1fvAXR3PwjAQvpWIsiXgKbDzw4K9yKEDYARTRjALrCjKwntwbflexlXtYKp58IcYe74FpoyX2tkiwBqDosUoRYvsdJ5IAMvfCuHO+AgmAAtRWI224X+gNG/JvHqCtGqlBFMvogvNxPXh3yAqFmMeewmz7WmErx615aMYr34edePfI5AY+3+I69ZH7cKXaZDdSBZ32i+UMl8B8ytLEr6blJLqEh/zKs+duKcqyoT96mOGeV4f5qoljZNXSAnYtKJ5QjJkJqJsAcriT9n5ZEIDtRQZOoN15kWsY09infwFsn+3vcwzLjCpg5Coyz6Fds1/z7ykjaKhLv9TtKv/DqH5wBy1v0mh2gW+wS6srq1Y7c9idb8KseFkbSa2mRRl6xBV5xmJsyHlK1VbbkNtuAW18RZEYQ2i+kas479GBnsQ3tLzfv+TkZXITCkZCUeJ6AYR3UA3p/7DeR4Xi+qrCUZiRHSDsG5SVlxIWdEUe2UICMUMwjH7b0R1k2AkOsG3y6SxpjxtxCQu6nnlxaxZMG9CFVQmSvVqXNc9guvO/4fScCcYfjD6bVMlPPYLYc8WjQGI9SB8TbhufgJt49fssrlzoXlQl3wC193PoSz6Y3sE03vACtp3WolfX7iT108Uj7iwzjyL/n83Yuz7EdI4R3aHHgC9315fTbz6pn5lIk2kFS/Dcxej1KzG6n8D4avOKrUoK3MZiensae3AFfeZNFVhQV0lpUUpOegZDIyMciKehq0ogobqMmrKzj2SmZbFia7+tIVuRRGsXtRw7vScOA88+jShaEqwWAhuXruUe2+cfkaqHOvH6ngdq/cdO8Bqhe25q7sKUbsBtekGRPnEYPKFIEODyM7dmB3bkcHjEBuyg47uEkTxcpTqqzDbfoIcehssTzzaL8AMIArmo37gIdSmLeBO/lit9teR+vSekSkEiIZNCT/SGjqGcBeBtwjZfxSlchly9CzSjKKUNJ23jC+TrEQ2lxkZC/OlR3+eWPeUUlJR7OPBe28676xyrmK2PofV9iOs/oNgWbaJlQag47r95yjzkjPZucjUtuMy5JdvHkh7r5sWf/LB9ZetwADUpR9Bu/H7aOu/CnmV9lqpNFCaPmJvizDHeV+JbPs7rbz23onEKBbRTT5501pWNk8sFrm8EAhfLerKT+O++5eoa/4CXIWoLR9LM5VzlcvSXFpSEgiGMSwLCYyGory2v403Dp1EStvHsKTkmuXN3HfzB84Zi7tskRYyFrS3TrgMsjAuS5EFQhH+4amttPf6IT7bdSkKmqrYC+hCsHFpE/dcu/qyNpPvFy5LcykgscLg1lTy4vUFUd2kwOvmns2rufeGtY7A5giX5UhmmBbvnehk695WjnUPIC1JRXEh16xoZsPyJsp8hRPy2xxmj8tSZA6XF87P3SHnOCJzyDmOyBxyjiMyh5zjiMwh5zgic8g5jsgccs7/B4yatapsJQhOAAAAAElFTkSuQmCC;" parent="1" vertex="1">
                    <mxGeometry x="-954" y="841" width="91" height="77.32" as="geometry"/>
                </mxCell>
                <mxCell id="66" value="&lt;font style=&quot;font-size: 16px;&quot;&gt;Storage&lt;br&gt;Layer&lt;/font&gt;" style="text;html=1;align=center;verticalAlign=middle;resizable=0;points=[];autosize=1;fillColor=none;strokeWidth=1;fontColor=#000000;fontStyle=1;strokeColor=none;" parent="1" vertex="1">
                    <mxGeometry x="-1330" y="539" width="78" height="50" as="geometry"/>
                </mxCell>
                <mxCell id="68" value="" style="shape=image;verticalLabelPosition=bottom;labelBackgroundColor=default;verticalAlign=top;aspect=fixed;imageAspect=0;image=https://panzura.com/wp-content/uploads/2021/04/minio.png;" parent="1" vertex="1">
                    <mxGeometry x="-1040" y="518" width="101" height="101" as="geometry"/>
                </mxCell>
                <mxCell id="69" value="Landing Zone" style="rounded=1;whiteSpace=wrap;html=1;fontSize=16;fillColor=none;strokeWidth=1;fontColor=#000000;fontStyle=1;strokeColor=#000000;" parent="1" vertex="1">
                    <mxGeometry x="-797.75" y="593" width="213.5" height="19" as="geometry"/>
                </mxCell>
                <mxCell id="71" value="Cleansed Zone" style="rounded=1;whiteSpace=wrap;html=1;fontSize=16;fillColor=none;strokeWidth=1;fontColor=#000000;fontStyle=1;strokeColor=#000000;" parent="1" vertex="1">
                    <mxGeometry x="-797.75" y="561.5" width="213.5" height="19" as="geometry"/>
                </mxCell>
                <mxCell id="72" value="Curated Zone" style="rounded=1;whiteSpace=wrap;html=1;fontSize=16;fillColor=none;strokeWidth=1;fontColor=#000000;fontStyle=1;strokeColor=#000000;" parent="1" vertex="1">
                    <mxGeometry x="-797.75" y="527" width="213.5" height="19" as="geometry"/>
                </mxCell>
                <mxCell id="131" style="edgeStyle=none;html=1;exitX=1;exitY=0.5;exitDx=0;exitDy=0;entryX=0.001;entryY=0.512;entryDx=0;entryDy=0;entryPerimeter=0;strokeColor=#000000;" parent="1" source="40" target="130" edge="1">
                    <mxGeometry relative="1" as="geometry"/>
                </mxCell>
                <mxCell id="75" value="" style="rounded=1;whiteSpace=wrap;html=1;dashed=1;fillColor=none;strokeWidth=1;fontColor=#000000;fontStyle=1;strokeColor=#000000;" parent="1" vertex="1">
                    <mxGeometry x="-1229" y="363" width="1080" height="120" as="geometry"/>
                </mxCell>
                <mxCell id="76" value="" style="rounded=1;whiteSpace=wrap;html=1;fontSize=16;fillColor=none;strokeWidth=1;fontColor=#000000;fontStyle=1;strokeColor=#000000;" parent="1" vertex="1">
                    <mxGeometry x="-1080" y="373" width="227" height="100" as="geometry"/>
                </mxCell>
                <mxCell id="77" value="&lt;span style=&quot;font-size: 16px;&quot;&gt;Processing &lt;br&gt;Layer&lt;/span&gt;" style="text;html=1;align=center;verticalAlign=middle;resizable=0;points=[];autosize=1;fillColor=none;strokeWidth=1;fontColor=#000000;fontStyle=1;strokeColor=none;" parent="1" vertex="1">
                    <mxGeometry x="-1343" y="391" width="104" height="50" as="geometry"/>
                </mxCell>
                <mxCell id="82" value="" style="rounded=1;whiteSpace=wrap;html=1;fontSize=16;fillColor=none;strokeWidth=1;fontColor=#000000;fontStyle=1;strokeColor=#000000;" parent="1" vertex="1">
                    <mxGeometry x="-490" y="373" width="227" height="100" as="geometry"/>
                </mxCell>
                <mxCell id="83" value="&lt;span style=&quot;font-size: 16px;&quot;&gt;Batch &lt;br&gt;Processing&lt;/span&gt;" style="text;html=1;align=center;verticalAlign=middle;resizable=0;points=[];autosize=1;fillColor=none;strokeWidth=1;fontColor=#000000;fontStyle=1;strokeColor=none;" parent="1" vertex="1">
                    <mxGeometry x="-1197" y="398" width="104" height="50" as="geometry"/>
                </mxCell>
                <mxCell id="84" value="&lt;span style=&quot;font-size: 16px;&quot;&gt;Stream&lt;br&gt;Processing&lt;/span&gt;" style="text;html=1;align=center;verticalAlign=middle;resizable=0;points=[];autosize=1;fillColor=none;strokeWidth=1;fontColor=#000000;fontStyle=1;strokeColor=none;" parent="1" vertex="1">
                    <mxGeometry x="-594" y="398" width="104" height="50" as="geometry"/>
                </mxCell>
                <mxCell id="85" value="" style="shape=image;verticalLabelPosition=bottom;labelBackgroundColor=default;verticalAlign=top;aspect=fixed;imageAspect=0;image=https://upload.wikimedia.org/wikipedia/commons/thumb/f/f3/Apache_Spark_logo.svg/1200px-Apache_Spark_logo.svg.png;" parent="1" vertex="1">
                    <mxGeometry x="-1034.87" y="384" width="136.74" height="71" as="geometry"/>
                </mxCell>
                <mxCell id="86" value="" style="shape=image;verticalLabelPosition=bottom;labelBackgroundColor=default;verticalAlign=top;aspect=fixed;imageAspect=0;image=https://miro.medium.com/v2/resize:fit:1200/0*HW6UvJ84r7yW2NC9.jpeg;" parent="1" vertex="1">
                    <mxGeometry x="-435.89" y="381.54" width="118.79" height="87.72" as="geometry"/>
                </mxCell>
                <mxCell id="126" style="edgeStyle=none;html=1;exitX=1;exitY=0.5;exitDx=0;exitDy=0;strokeColor=#000000;fontSize=16;fontColor=#000000;entryX=-0.003;entryY=0.51;entryDx=0;entryDy=0;entryPerimeter=0;" parent="1" source="89" target="125" edge="1">
                    <mxGeometry relative="1" as="geometry"/>
                </mxCell>
                <mxCell id="89" value="" style="rounded=1;whiteSpace=wrap;html=1;dashed=1;fillColor=none;strokeWidth=1;fontColor=#000000;fontStyle=1;strokeColor=#000000;" parent="1" vertex="1">
                    <mxGeometry x="-1229" y="205" width="1080" height="120" as="geometry"/>
                </mxCell>
                <mxCell id="90" value="" style="rounded=1;whiteSpace=wrap;html=1;fontSize=16;fillColor=none;strokeWidth=1;fontColor=#000000;fontStyle=1;strokeColor=#000000;" parent="1" vertex="1">
                    <mxGeometry x="-802.5" y="215" width="227" height="100" as="geometry"/>
                </mxCell>
                <mxCell id="91" value="&lt;span style=&quot;font-size: 16px;&quot;&gt;Metadata &lt;br&gt;Management&lt;/span&gt;" style="text;html=1;align=center;verticalAlign=middle;resizable=0;points=[];autosize=1;fillColor=none;strokeWidth=1;fontColor=#000000;fontStyle=1;strokeColor=none;" parent="1" vertex="1">
                    <mxGeometry x="-1349" y="233" width="116" height="50" as="geometry"/>
                </mxCell>
                <mxCell id="99" value="" style="shape=image;verticalLabelPosition=bottom;labelBackgroundColor=default;verticalAlign=top;aspect=fixed;imageAspect=0;image=data:image/png,iVBORw0KGgoAAAANSUhEUgAAAF4AAABtCAYAAAAoPNZtAAAAAXNSR0IArs4c6QAAAARnQU1BAACxjwv8YQUAAAAJcEhZcwAADsMAAA7DAcdvqGQAAD/BSURBVHhe7b15nB1F1f//rqru2/fembmzZSaZTPYdCEmAsCRASNhBNuVBRRGDsoMgKIiCLC6IgiKKKKgguIAgi+y7IItAgoQAAUIgIZnsM5n9bt1d5/dH9UwmARV5Ep7H3/f58MqLmTvdfbtOnTp19lIiIvwHwFpLHMcUi0UymQzGGJRSm1/2HwP1n0L4gRCR/2iiA+jNP/hPwH860flPJfz/H7DFCC8i/f/+D/8a/20ZL2Lp7S2womUF1sakgzSVlZUE6TSeMaTTAcZ4/78QD1sSH5rwVmIkVnT3tnPp967g+ut/TqlQIJvJMKhxCLlcjrraGr761a8xcdJ2VFRUkjIGP+VhPANo/l+eiw9JeMHGQmdvN8cfdzzPPnUnBx+8DQd9bCbZrKG7Cxa8tIJbb32c1vVglWHbqWMYM3ocp5x0GjtM24kgCPA8D63N5g//fwL/FuEHXloo9PLJoz7H668/yNU/OYE5e+2I7ykUgqARFCJl8sWQO+98mgUvreHm256nvb1AQ+MQjvjEYZx0wklsu812aK37RdH/KyLp3ya8iFAOy3zhiyfw+EM387OfzeVjB++K52m0eCAKUTGiBC0Ga919VixhFPHo4wv4890vc9+9L5MvwSc+8QnOO+88Jk2ahFLq/wg/EBaLRoEoClEv11z5K75z6dn84HuH8plPH0yQNmgChBhBQAGicCSMQQnK+oiyRHFMFAm9PWV+cMVtPPToYlauKfLxIw7ntJNPY8q0KXjad9+rLFptpngJoKxbVTYGLYCHQkCUm2gVo7AY5WMpIwJGGRAD2t37Pz29H4jwWLAayuUyj937EEfN/QQzpkbcfssIqiqa0P5OoMcgkgaVAfERldyIB0TJg5TbH6xFa49yMaKn0MU997/C5Vfcx9rWXqZuP51rrv0Zo0ePIGUq0O+hewj4KCxIiNiA1g1reGfJCn5940+476H7IK/A00yethPHHnMsU7efxrjxY/F9D6MFMMm7/M/hPYR3RNH9YkVpJ7Xz+SJ3/vkOzjjlNIYM6uKx+4bSMMigTIBC0DaL9QxWN2C8yWBHIlSitMFiHaOKpm8dAIiyqFgTRTHrNvQy/8XlnHPudfQWK9hjz9lcftl3GdLURDqd3ngPoLBYUXQVe/jZj67lvruvZOKEVZzw+QaqfI9ehDfeLHH9L9uZfdBMli8ztHdkufInVzG8eQK+J7D5SvqIsQnhrbWbbHLWWqy1dHS1c+MNN3LF97/D6OGd3PLbQQxtrEYbS6wUnsTESgOCEoWSFOgs1lSj1Si02hahBqt1wm3uWlHuesTtA2EU0tpe5E+3zuNn1zyIl85x9Gc+x2mnnkZtbS3GGASQuExbe54zzjgGKdzHOWfWMG5sFemsj/KaMbFPGK6jXArpyntUVx/F/X/p5OKL7+L7P/wx++63L5kg8z+6nygRKxZLT1eRm2++kaXL32XsqPFU5SpZt24dK1paeHnBSyx69Vn2m53nu98cyuDBGRQRCkWsNEocFwKIOLo6meshSiEqg1aDsXoYRo8AhmBVCoVCJIVVISiLlhQiMWFU5s231nHjb57i3vtfZeK2UzjrrHPZefqOZII0y1re5VsXn8U24+7nlM81U1ntJyLEQzCINwqtd4B4AdgVxHokEYdw+52vcsml9/L9S6/kwIMOJJ12okywqC1nxH8gKGtjKRdDzr/gXH51w7VktZDKKJRKUSjG5AsFwkiYubPHN78+hCmTMuSqQvAsWhzRbd8q2fzpA+CWlYdVPkoPwejxxGYYqBqQCrQ4uStKEFEglnI55M23V/PTnz7Kcy+8w/4HfoLttpvC72+8in33eoVzTxuBDTxSKFAxkhBPS4ZQD8H396a782VEXqaianfKaieuvfYFrvn541z98+vYc8/ZZDKpj5zoACoKQ1n4ykLmzJrDxAld/PwXdeSCNFZiWlvLvLawk2eft7S2QU/RR4virK9MYtqkbmrrFX4qwhCCpP8l4RWCUtbtHQRY8dFmKMpMI9ZDsLoqIYKHQiMWtFLkC2XWteU5+5xf8exz72BsLzf8cggzpmRJV4OvYne906lQGDRCSe9EMZrDFZd9hW98dRh+xecJ4wa+delD3P/AYm674zZGjx6Hp72P3IpWXV09MnHyWCis5a/3NjBydAWeToGKEBWDaMAS41HM51m1Wrj8Z2tYtDDDuec2MWeGkE0rtC//9OUFp+aBRolBiXYySfciEmAJ8LxmlDcTbBOxVohOI0Ro6zb7YlHTsqaVuXN/ytsrNrDjpG5uuG4CNbUF0joAXUCSPURRRsf1dIa7c9KZCznnjJVM2bYCgi9QKtRw0um/JbaNXP3z66irrUrU1n8ygC0Ms9/++1x803U/51e/8NlpWgU6HSC6jCgLSjkOVAalI1KpFA31KQ7ZP8cRh1fR2VXgyqtaCHJVDGtSKO025X/0+gqdcLQgOgYsCg8kRukIaztR0StEshBUL0ZqURIAvpt639JQW8ExR+/BhPFD+dX1r3LrXZ1sP76GwUNL+CqD0hHa+lh8RJXAtNE8ZBYnnvoAxxyZwfgdBJkJbLv9GH7y49tIpTJM23Eqvpfa/HW3KsySt966uCqzgu9dNBI/MBircP8NVP2k/+c+AymTNowa5rP/gVV0tHezdKlCkyNXXcYYQayglHGbrZLEplIo8VAqSpjL6fVo5SZBuQ1aSQEdr4J4IaJWolQaqEcrC0pjPMU2EwZz9GfmcN/dL3L1r5ejRbPDjmk8k0Jrt/ErFWPQNA+ugOx2PPTws8zaWaH8gLracQweWs9VP72djx10CDW1NR+plmPK+bUX//7mDMMbsqANoi1som2/FwkZUTpES4ohTQHDR3lk0paujhilBT9w/hqkjlgL1kQYq9Cq7IiPRZSAUiAaJT5KfFDWaUQAxKi4HWsXImoRSnlANZDCKk1VpebYz85iZWuJn133Fq++3MacfbJkMwYlxlnNlMB0Mm27vbn08qXM2aeXyor1pMwwRo6ZwJLFq3j2hcXsPWcOvu8s5o8CZsJ4e/G5ZzRitEHrGFHOnP5nhAdxXCweSsVoZTFojGfJZH0830v0SoM1PaT0BIydRKwbsaqKmBCFYMSgRYDYiR5lNzWwEESHGDEY24vEy7D2ZYwojBqMqBTKE/afPRmiFLf8+Q3eeLmDgw6oJAhMYjO4CfBlBbMPPoHXFzzKmJE+Sq8mbSYybtJwfvzTO5m52x40NTV9ZFxvpmzHxXM/UwM6i6KMwvwLovetBz9xCTijSIkGZUFH6D7FTkCJQqQdUauwup2Utx1azUL5O1AmQ0TaiSAVoiRK9gA39e4/z7kfFChCtJSxtgVLEU+PJNYKz8DOu4xm1coy819awpFHVJDLKRTJRFqFVu2Y9Fhu+8MTzNyjgpSOiFUX2arJvPtONwtfe4c999wL3/c/EuJrrUGUj1ZFdOJZ/CBQ/f4XccaTit3O0KePo9yqUAJEKCnj2Q5s+Uls/Ads+Qk8PQo/OJBYz2VD7+doad2PlWubWd3qs64tRWuHT6ErICz5xDYglgCJnYgz4bOE4SMo6QEFFUGKL3xxN+Koko6eEjp2TjmF4Bw+ARl1LyXqIU4hymLitaT8iNNPm819997LwoULPxKiA5jRo7n4mP+qSxQ+/1/K94H41yLJwe0IApJyU6J7sHSgwreBNwjjNnp7U5RKNXTlx3L3fRE3/HYFd9yh+O1dPfz+1hJ/+GM7Dz/SRVA9lsb6LoJ0jGIlyNDEKjbU1mRY8NJ6CsU32GlKFdrXiUcyBDRGhMlTDkfs66QDUPgofxqFYswfbp5PbV0DM2fO/EiIb+pqufizn67G92JEGTRuc90q0E6UiDidSXQJJI+n1pNLr2RQ9Rrq63qYOnUU+x0wh0MOm8msGTswfFQ9zSO35aHHl3H77S28vaSDfWbX4PsaZZei1QhiU0GgAqrq0tx4/dMceXgVQeCDigGFVWBsDKn1dLV3kqsyaAmwZgpd3Smuv+kp5szZl+nTp38khNcrVkBrT4yRFPRpGlsBCoW2Tld2slvQojACRiKgm9iuwcSvkvHuoy67mkG1VYwcNYjp02ZQ6C2w9+ydyWTS3HpPmVtuX4+SMooiUfwAftSB1XnGjWkikjp68s5C7gvIiI4An4xpZ2hTzqmwyonE9tYsxgQceuihHwnRAbTn1/PkX9cRh8rJ+AHK3BaHioAwMe0NFoMLWfR9rybWATAMS47OfJ5X38rzo6tv5cUFb/Po4/Pp7CoQi88VV/WQ7xAiT6FlLTZ+ErE+gwenmTZ9MmtW592TRbvAiPWwOsIojdFFp8ViKJYsv/jF3cz9/HHU19dv/sZbDfrr51/Ity4ssa4rjxB+YLn9YeD0fy/ZRSyaCIUgCqwEKJrxOByTOgLrN5EJfKZNruQnPzya3/7qNB576Dyefep8Pvfp3Wltz3D/X1cTlnArNX4beInAV3zp1KPoKhrKEjutSoFJuKlv0pWAENDba3l18XJ22WXnTfz+Wxv6U588mrJu5E/35SmWNCr2Nr9mK8IkxpRGa4tSG8DcRRz/FqIbyfA4aW89Og5J+XlqaysZNWokV17+Kb77rRO45DIhLHe71aJ7MPFf0fSSq4B7HuikXMTJdtlUU1MAookwLHu3RG9vxLSpO2xyzdaGrqmp49477+P73y/yt3ldxBJufs1WROzUUImBAkgvlC06asO3q7DhAuLStUTxNcT2YTw2IFIgSGX4xJHboGwtq5ZrbCxoCdBxD1H4KEHGUuqZQPsGi0hIpDZPIXFGWynyufa6xznk8EOoqMhuds3WhTaeZpsdp3HJd6/m7K+HLF4aEzuXyUcElXgsnRdUTB7EA0mBCiE2mLgLyguISzehwnvRaj11NZo/3fVNbrp1HVEkKCJER3jyFinzDvt//HDOvqDIqtU+IpsTXqHQdHb4/H3BEg46+OME6WCza7YutAJSyvD5uZ/n6KMv5OuXlFi7TifyMXZRpM3v2mJwnsqNPytH9MRZ5rLNnFNOA1p6UdFCpPwb/PhlJoyqYlDjvhSLTkW1aCDClwfYbZpi9p5tPPjAO+QLm65iSfyiz89rx8Y+9XXpjzwYot1gFVp5nPGVE5ix21l8+bx22tYrrDIond+aes6/BUcwAeklih8kKt/Hl079GGVyaBOjExeFjg2Vqcc5YJ+xfPHYUWRS7yVqjKa7K8Wg+iEMqm9IQigfHbTzt4BSvWTSNZxx9hnsMedrfPGUHtauj7FSkVi0/1tgUFi8yMeoBSgep6FuGkiQ8FGM9bpImXU0DClhPDBen3ujDwIieFrwPQ/P++fRs60Bx/GAkgq0gmwmy7FzT2CXmcdzzHEdrG4tfGD/zdaG2w3KidezjJIYI6+h4g6UqsAq6xx3kQETkgt8Ig3KvldT85QlyKyjVOqiq7s3SUD56OAIr4DEYlUKanI1nHLql+mKR3HGWavY0FlGYZMUDrAf0rpNMjn6w4mikuGKddmW4hwWFkGwiCgiBVhn8itRSWgvEQzigQVhEUiU+OANSvlo7YNKwozvw8+iQrbfxqcqs4CvfvlU1q1d+5Hm9g8Qfu7lBBfCG9xYzW23/ZnlLaO5/4EebKRB7MZBfwhoC1pcZAgxbiZQiNKECkpiCUNDW3uGd1YM5Y67A277YxelMOrfg0VtDNQoSHz4MVYKLkcHQJfd9cqJmPcyikKRZtSwiD32hDcXPc+Pf/wTisXiZtdtPbwnk8xxklsA+WLE975/Ic8+9j3uvGUYFRUahSHWIcb+u3JfiBVuoxYFImjxKJahK59m1eoM8+d1sqp1MPfeu4iWtWV6CgU++bGYK38wjMoKDy2aWJMETzY+15mhfTzUF0zpc0U4J5lOVATVN0ZiiA1dRcVFl3rceU83Dz/8GNtss82AZ289vGe7V4m4QQvpjOXUU86guziaJcvixLeuNnLWvwEBvMggUYqeHp81a6t59PkMP7pmELP3a2H/I97glHPf4pLvPc2LC9tZu7aHsBgzfScIPOfsQkV9EnEAXOiwD4KiHMGGngrWdFTS0VNJHAZordED8n8UBmViKvwshx06iHQQcc899xBFm2/EWwfvIbyDYBMxUF2VZda+B/DnO9cSxc57qe2muYx9tBj48yZ/F02hqFnbFTP/lWGc9KUyc45YyiePXsQ3vzOfN5d107ahB2LlRFAi9tIpmLFjPSnjJfFbF6t9LwYygqYtX8mJx3XyheMX8tdn1lOWMrGNN5PhQqw02pTJpIqMHpPmul9eR0dHx39DmH5w/APCK7QCrXyCTAWnnHAOCxZmKYSe2/Z0GSc0xGVwqZhYeVjlOE7wwPoUy5beMGBlWwPnX+Kx7+EbOOqzfyETvMu3L8xSWalQxG7vEDWAMI64vg819T7iaYy4LLNNiUwytU7u923Iq1c3c9Dhvfz2hmEcdoBPNgBRLlGvL1APOhFdMbmqEjXZFXR0tnL11T8hijfuKVsL75Hx74cNnes5Ye5RnPSF19l3lzSRMlgdgWh04m20OkoirZawmGX9+kH87JdreGOpx4vzW1C6i0u/CQftN5ghdSnaCin+65gOnni6rY/OCfoIo6irFeY/MYQRwzPvIfdGuNd3K8tiozRvvFFk3ESPIBWCcrLeyflE8xEfq6Nk0gMsMR1dHmeco3jx5ZDnn36J6oYseivaLx+I8OVygZt+cws/ufJEDjmombIu4ts02pSoqIgYMaKGmkwN767s4c130jz82HqyFc0cccTHmDp9W95c+EdO/lwt2exfQYUosYRlzc9/4/ONi5ZRLIVoLFbRr2qCoq5GmP/kByM8uDmzsY9VEUYJ2vqgBFHOmYDVWBUT68ilk6DQOBvFxsKT86r47NwWvnDcyVx86ffw/4E82BL4QIS3WMr5MrfefgvPznsJVS6jVUy5HLOhrY36QdWowKciW80eM3fngP33wxiPtvXr2HHH6fzxthOYMe0FfHkXRUiitbNyXSV77PUmLetLKNtHQs+pgeIIP++JwYwckf0AhDdJAcRGURIRUg6H0trukc1aaiq7MOShX8dx9wsKsYZCQTjzfMXTz2mef/5ZaqrrtlpE6gMRHlz+ehzHRHGc5Mxs/Ny9m6tf0tqgtaJYLPDTn17DBRefzymfm8gPvmsJ/NImoqG7J+JL50T84Y9rsdqibYCl1P/sygq495ZK9titBmX6rE+9KZcPgBNQEJVTvPJ2jt/8wePmm18kjgVfh5wwFy782ihMELv6LGWxqoSOK1BaiEsejz07mGNOmM+85xcyYvRYvKRIw4WsBLEKTITC+yfM8K/xgReTUgrP80gHAel0uv9fJpMhnc6QTqcJggDf9xAR3lz8Fpdd9l3icsy9975GHBU30RYUkE1n+OzR9WQrPbAaGUB0gDCCRa/3EFqD4BGb0vvqNH1QQBhG/PnPb/Lagm4WvtZJZtAweiNLW7fPDruNxRqXPmh1hBYPv1xNvreClesCVneE5KoryaQy5EsFSDKQY1tm3epW3li8nPXtK7FxlGhXH96V8oEJ/0HhsnqL3HLLH+np7gJRdOZhzZperN2UUz0TsdPULqbvVO/4eDMWikJYuAjKUYyWEB27sp9/Bs8zHHHESLbdsZJvf/Mb3H/rn6jyKwlUyIa1WVrXKcKiQcU+iCI2ZXq8Rk44M8OBhxW5+leLiEJLyoN8Vw9L3n6LYz/3efY/YFcO3mcKBx64F8veaUHEEg+wH/5dfGBR80FhrWXt2rVMmTaFDetaXa1FINx1Q5b992nA79+xBIgol1L88rdlvnJhC1FRI5vx9KSxcOefhzFmsMIzfiKR/zEEKMUxi98ZzYMP9jJkaCc2XE0qKFCR8mluUEyeVks65Tm3t/g8+8Je1Aw5joM+dgTr1m7A9yIOOuggCqUeliyez847FvjU4Wl0dhinn9HGtOmz+N1NN5KuqMJ8yFqqLUd4AVREqaS4+uor+fo3vkFUDhGlQGm+flbMN748nHSlh5Y+KR0icZrV6ww777OUdWvKA/jZVQsaH8Y1w4UXDWPvvQy1OU2AwppE5jpldpPXiCKf5cvKZGtK1Fd7BNrDGoOVGGMsYjU2Vqxe30gh7zSdJ57p4Pbb3+GlBSGf/TT4FkjB5MmVjBs7mbeXvst2YyIu+F4try/p5cV5r9DQmEs29X8fH2663g8KwFAOe1i8+E3iMHKGlBK0FW64Cdq7LBJHSe59CHhoLdTXhZx1ygi0p9wrKZyGosBGsHi55pQvreazn+ngT3cp3mgRNnTlQZzZ9F5YRoxWDBkUkPINYgSFxSjlNFUxrNxQzaVXLOSqa5/ngm+tZN7zvXzp9B2ZtC1cfG4TY7cLGDpsAgv+bnjysec4eG9haHM92mhylTm84L8XKtxyhMdZn2FYZO26Rf1ZXMo6N29bp+GO+9ZiiwYRD2UrktVg8f2Yz3zCUF9vwNhEl9eJNasRsXT1WB6f38nxpy5n/4NauPqq1Ykl+97gvOdZjLIDKlT6VExXkWJjn3feaOG73xzE5z41ndi2UJNt4duXPc/+MyFXk+KLXxzEKcf2ctlFlXz9q2Opr68iooKW1V0cddQnSQeJG+NDYgsSXoGKMOKzxx71TBzbgNZ9Cp4QhjE//VlEa6EINgaVd05FFWO0x+DGkB98a3sCyTj/sXIuaLRT8BUpVASlyCI65MTTqhIX8aZDcGsmxmgGqL1Cn75uxdLd08GuM9MUVDU33vQ8v7xqCN+6cBx77z6MucfWo5RPUMyRTWsy6QxKWywxvYUaYvHZbbedCdL/Oqv6n2HLEh6NopfhTZVc/oO5ZIMqRCfBajG0rPL46TU9FPMKiwtQWDwgJPZjjtivi8Z6J937PI7KukCNKCf//cDyyQNgaG2tc1G8113p7u1bNZBMonPAWRtTW5shoJJXn1vKZd8aRq7ap624DRndwqChKYxYSn6RWGsibd3jIsMrr3RQLhuamppR/fW6Hw4f/s7NIFjiGJYtX8HwobXsvOtYTjl5P1fUJQYLlEPLT6/t4Te/b6VcKiMkrgI8AvGpqoq49HvbEARJb4KETx3Dut8zARxzTJqiEgyhcwsgyVBcLwVRCquc1SD0TQIoZfGMjxWhJ59n1qw6slUpCmXNi399nlPPrCOtq7DK4llBJHB5+0T0lqpZsqKOXLaaYSObNxn7h8EWI3yfSDGeobFxEBWV8I2v7MtuM4aCFzuiKEu+CJdc3st9D3YTlVMo0WgEq0Ni43HkwRuYMC5Ae26lbA5fQ2NTNb7NosQgKkZbH1HlpN7Wg8RHqnCbrxNJAyFUVUMq5UMMi18usdteJWoq0mjT6+5SCq2KKJvGkmH1uiwP3L+Uucd9gYpsdbLQ/lcYUG6jFNGEIViBbK6K23/bxIQm0MZ1z/Csz4Yu4eSz8lx/8yoKkQYRTKwxWNJBmsu+M4xsuq+OaVNEJcNLr3eipISoCIvBmgLKppBIMCrEagUGF7jpS44aAIVCWYM2IUKRyTt4NNbUkTIpJK5wK0i8pCYrJF9K8dz8iLYNMQcfsjepflvkw5Pvw9/5PlAKjE7Tuq7TcbLJU1dnePKREUyfGuP7MZYQa4WOHst534y46DtFWtZ7WOVUy4gye86wHH5ANf77aGyFKOYPt0SUI+dGQJUQcdUfnfksTz43hTcXj2Dd2hzFkoDuRanC5o9JeihoPJ0l5QtKuwp10QUX7FElRAmxKFatquNvL8C4CRMZVN/sVuL7rMZ/B1uM8C5GYRjUMIj1HXmIQwwadAWDBinu+P0w9pypSPkVGAvEQlc+5JrrWtj74CW8siQH+QDPpAlUxCUXjqMm5wIyjn3dxMalFPc8GHHLnT1upZBCiyKOszz1RJYVq++hsnotlUEPnifEEqBjJ35c0NsmIsptuEpbtCvKT+LBBiTpMIWlkG9mweuVPPjQEi44/2IqKytcba4b9aZE+DewxQhPsoRjCbnj9jdo7QhBQUpl8ZShsSHg+p80c+xnFV41WOWBNRSKsHS5x4GHLeKkC5fQ2l0g1JYhg9fylTMqqazx+21DQRPpkEIvfOPiXm78XZliZIl1iDJFdp/Zxt57bMcJJ3bw9MshNkyjRYgMICbJr9GJ8daHgSonLiwuLq4cRlUsXp7ndzeuYPr03Rg7dizGvFf8fRhsOcKrGERhxeOpZ97mk5/6Pi2r8+A3ubJ4HTGsWfHdi+v57tlphtRFGD9GAyqKaG0tcNPv4NgvtvPKKxk86/HFY2s58TPVZHIJUcRt4DZWrG7t4dyL1vHu8gJSTmGw1FVrlrybZcHr7Zx8WguPPFWmVDJgXR2U0hGg3yfdow9JKFKHWHxWrKrg/ocqeXHhKo49di65XG6L+efNxRdffPHmH35YKKUIyzGP/+URnv3bWzz55EvsOXMsVVXL0WLR2ifIwE5Tqjn08BzLl3ezdp1HMbRYq4gizdvL8tx9Tye9oWHKtlXsMRN680WWLY0oFZMGRrieOPkwYsU7vRx6SI6UB6s76vnK1zp4880Oenpi5v89T/OIGpqHaLwUKNUXeZL3ERPudyEmsmla23IseqeBK658g113253TTz+Tispskjry38cWJLxK3AaWxW+9xVNPP8madb38+Y5XmTBBM2q4wfghWgJSQcigao+D9s4yfGQ3a1dpevOWcmgRgd6S8NxzvTz2l27Gjanh4wdWss20Xbj/0VUE6YCqbCVBhSaXrebNFWVmzAxpqKvn6mt8/nT32xRKJSRWdPTGzHuhk6amehobs2QyMV6yV/QJlv4JSBpcWOuzrjXH4iVVnPf1hbR2CNf87JcMH9GM2ZKtGmWLIRYRkWKxKFdc8QPxU8btTxqpqTBy3U8nyvq3x0m0frTYDaOk1D5a7PoxUt4wTNqWD5MH72iS7ccjdYOQTAViPE+0CiTIaNluRJWMHZmSuoYa+ftLL8nbb78tb731lixevFh23mVnOea/kGce2V2GNGbE0y5dShlkaD1y6qn1Ul/ryVe/PEGefGRbaXt3opRbR0jYNkqiDcMlahsmUdsoKawfKYV1k2XZq7vIA/fuIYd9bIrU1lbL73//e8nn85sP9r+NLecWxvlNRCyrVq1iytQpbGhrd5nGJiLla6ZMgpuun8qIxnZSKYUNIrxIozxDGIVQKvLO8hIvv2H5wQ+6WbXaUChDMbSULTTUD+Evjz7EpG22BVx19MKFr3DAvrtx1jlpbv5dnrbuEj3rUnie8PnPB2TSO/DT3yxARZq6ap9TTx7FjF08mpssuVwRo8tIVElnp2Hl+pD1nc2cf/5zLH035uSTj+OSiy8hm81uMdnehy1MeIUIdHS2c/AhB/P83/6OsuHGhFMtVOcUB+1byyUXTmJo/WpSKY1WIRpDbBRGXIqf6JCO9pBX3+jksh9neOSxHnxjmDFzZ+68626qqqrQWtPb28v+Bx/EkkXPsOceTTQ1G3bYsZneDZXc+cDbvPJaF7+//nc0DB3El846jZfmv8bgBo8JowImTqpj8uSRRJHhxb+/yzvLirz+5gZiG/OTq67ksMM+RSazlXqXbb4EPjxiEbFirZVCMS+//OU1MmJElWhlXONVl4UjKCNa+5IJlMyZVSc/vXy0rHprqpTaxkrYOlbCDWMk3jBGog0jJdwwWtqW7SATx1RJVS4j206aLNmKSvn2t78tURSJte77Xl/0puy2x54S+L5o7YlvEKNTUldfK3+6/Q4Jo0jEWrGhlZdeWiA/uPz78rFDDpHKykrxfU+00ZKpyMrRn/m0/Pyan0t3V16iKBIREWvt5gPdItiCHL8R1lrefXcxf/ztN2ntXM2NNz5HW7va2KAzccMonGsl5XnM2b2Rww9Nsf/e9TQN7cbXMUhEy4omZh30MjZo4K+PPcb551/Efffdy5lnnsl5551HOh0gShNFZQo9ZR5/4hGWvdPCmHHD2XffA0kHPspzSatgicVAFGMlMZFEuwwHcU40pQ2e9l1PHesRqRAP4/qkaVDiXt6Ky1w2ViPajaZPLyJx12lRKKuITIiXNMbrS4bbKoQHoVzKc/n3L+ALx47FpBVXXv5t7rp3LS1LFHnru8KC2LU0kcTDmvJ8UsqQTsUcdeQ27Lu3oq2nm6+d20amKscLz75A7aAq3nj9Tb7zne+wcuVKzjn3HKZN25nmYYPJeBGF7p+zbvUaQmtRWlGTq6S+YTwrli50O64SMl6ZxiEHsnr9c/TmWxGbIm0Uw4c2sHZ9G4VIo3SBElUMrplBVd3exPGLtK56lHK5EysBgTIMbRpFsbyeVW0bgBSaEtqmUKKIVYzvRVTW7E5V3aFoNiX8FhQ1myIMyzLv5Rfkice+JWHhBilsOFtal42V++6slm23QWor+12IYpQvBr/Piy4axE95ElQi2SAtxkOqq3Jy5x33SByLRFEkPT090t7eLl3dXVIuRBJZkVg65anHDpbm5grJ1fnS2JiW884ZK2taviWjhtVKQ3VWaqtzsu9eSOuqm+RLJ+8qg+vTUpPLyYQxOVm67DQ59bjdpKY6J3XVgdTWIXfd8kXJF9ulp/VWmbpts9TWBFJdm5EJI7W8s+Q7cuNvjpXqmlqprMtITU1aamsyUluTlZraQIYNRZ5+6iSJ46KITfS+RHJtOct1M2ijmTxhOn++fwkbWnsxqQnU1o5h7xl1PPXgSB66v4ELzoWJIyBXAVa7TdgqAEVcjin1+OTLReIIekpdXHPtVaxatRprLRUVFdTU1FBVWelaegkua6Fg6OmArvaQjs4ShXweQkV7T4kNnSHt3V3keyCOYgp5j46uEh1d3XT2FrClBiZtm6Oju4f2zoj2dujoeR0koqN9Pa3t3bR3lOjqLBAaS0Uwlrik6Oxqp6ezQEdHkc6OMp0deTrbS/S2Q6mgkKRAYqN7Yku6DDaDUoZUSnHB+Zdz510vU7YWMTPQQRW1lZodJlfw9TPH8MQjw7jtZsO1V9VwxIEwZhg01CvSFYL2XIm/p1LEMTz7xN+Ys/csPve5z/GjH/2IJ598kueff4GXFy7ASoSWAKVKoEqJW7d/UaGIiVWSBSxuouMkdKgQ1/BO1VNfV4Wvk6oVYPWK5cRxD4ten0++5N4npT323SdNRdUYlIhz+ok7iEAhTotTEGvn+yFJWtHQX0q69QgPKC3UVDew3eTDuO+eZXT0NAH7EeksGiGdtjQO8pizexNzP13Njdc28fQjQ3nknmp+/RP4/gXwnW/CN79RZtxQKMZFWlpaGDZsGGEYsnDhQtasWcPYsWNd4BzXORAU6AhRrhOsTfpSKpzJanXi9+krtAAQizHCtGm7k83qJMNY85fHWygXW3h3+QrCcgQYPBOxzYQd8NPZAdxsqUpDQ6NlSBM0DYEhQyCdqUjey014X4B8qxGefuLDzjMOYF1bE8ef+HvuerjE+o596Ck2EGmwSezSGEW2soLGhoBtJtXwXx8fw5lnjOUbZ43la6eP4NpfbEeuWpPyPMaMGcPZZ5/N6aefziGHHEJlZaVrNUXf4AyIi/NqIakSj5xLeJMFvxEKQauAYSPHkHYJ9ShteX0xRMVX6c57xFYBMamUomHQGIwOAEOsFFiPyVPhkfsu5ZlHruYvj1/NAw9ex9ixB6PIJKvKZQGxtQnvZtd15PvC8aew++xD+fLZf2KvfW7j1zeMZf68HKvWCl09IWGYAhtjsa5ImBhNTGw9/ECx09QSh+ydIyqXue222yiXywD9blo3HHBp2a5RqUhEFEZ0dK4lsi7YMeDKTZFMUCqoYXBjBq1c4lOhDHFxIStXF7Gx84GkUimmTpsFaqM4Ax/lQW7ISJpGjGT0mKMZM+5YGofMRuNSwvvZfmsSXpKiSWc2KbKBxxknncV3LrmUsk1x7rf+yN6Hvc5uc9bw6c8XuP+R4axcM5H169O0tcd0tGfp6IKOriJt7ZDvUpx6+hhMWpg3bx6vvLKQnp4eSuVSv8eyDzppEh2K4uabuzjs8GsolapwKvjAK+mfCFEKa8oEfjOfOHK6C8CIpRgpli2dz/z5y4jiMigIKkoMGjQSEQ9UiBbQfoHX/q6ZPfN0jj/+E3T3Loc4cC5oFUF/8mHy7ZtpgVsdpVJJ/vLE49Lc3CRBkHLNth3LCEqJMr4MbsjJtpMaZLttGmXihAYZNqxW0hWe4Ln16nvI2HFpuffuW+S1N16UuJQXiUOJ4g558v79pC4XiKeM+B6SSinxfcR4GdFpxEsju++CrG35pRw3dzdJ+SkBZMhgX95d+ksJw0554PZPiNYIBOIZT2bsVCu5nO9Y20f23QNpb3tN4nCZ/Pq6zwoYV8KrEYMn+81G1q6a3+c3fF9sNY7/R0ilUuw1azbPP/8CR/7XkVRWVqL6Ej9FUHHI2rYuFr25ntdeX8ebb62npaWDUm+MH4MJBOWDKvgMH/YEIxvuBvsHiP+ElvvxvXbGji+x3bYxO06BfWYJRx0KR37M58TPNHLeqYPZfbdKjIspbgKFQuFTP7gJ3wd0iYiI5/7eTle300aynscnPzuWyoohyQEeEYbYxX9FY+mrn3K9NN9vP2Fripp/BqUUQ5uH8evrb+Bn1/ycMWPGukXYp8f319A64hgtVFcIRxwKV5wPj9xZS1dvN1N3/QX1Q37AmPHns/teF7HnnPP4+kVdpFPjKUeDWL2+jqeeg5cWQ3uPoqO7kWuuL/H0sz1E8WYkSXLEtfYZP3E2VRUVGGsgdo4/JTFKQOuIQQ3T8byMe7++TAgdYcQiClwtto+K/0m22eZL4KNEZGMplkuyob1Vvvzlk+ToT+0h1101Sm6/CXn0ViV/e8iXt1+qlLZljdK+YqT0rh4rxbVjpLRuhDz+4PbiB1owbolrjXjKiNFI1ke2n4zM3gO5/ufjZPmir0tjTYWQRlCezJiOrFlx3aaipjEty5f+SsTGku95SoYPH+Q8DHjiGmspAaS2Qckzz/xMJC5LFC6VG37xGYGMoJE9dkXefeM0aV/3TSmVloodaKpuhv8Rju+DUZrAT1FdXctll13Fdb+8j0ifyJhtvsfYyR9n2pSpDB/ZRHV1JVUVPqm0oFIRvoYdJkcMrsom5IBMCsZPjDlkFlx6xcdo25Bj3gLN64u6SWWylNCoEiBxIgocLzo9xVWIiHhO5Uzl2HlKQ39nQpe45EqO6ioNw0dNQ7RFSLlsaEpomyblQ+3gudQ0fIFUKovS7WDLRIQgidhJFtr/KOH7oJUmCAIqKquYe+LZjJ18KumGH/DD63fjb/OOY8Xao1i2ahvWtY6hrX0C766ZxIJXJlOKy4wcCV//agN/ffInPP7oPE45aybfuegZ1q3PU44tcRQkxxe9f5plv3pnnbUqypDWzZx55iyUl7RzTyZJC1QFEdmgBsGl97m/WUTHdHTC3Xf/mPvvvozHHvs2zz/3DZYtv9Z1pe0TSYnB9b+C8H1QSpHxU1QFORpqR/OVs77H9rucRFf5CNoLp/LkC3vywCNjeGvpLEzmMO584Gae/9srfO1bbzBtp7kMaRoPQR0l25UUCSsgcn3k/yUMSoQYC5KlYfB6ZyAp+snk+zB7FmSDWndGSmKJutYMIa8u8jjx1Fv49DG/4RMfv57/OvxXtLS84sp+VJRwvMvJ+V9FeJI9ThQYo0lnKqitrmPK9tOZusPefPzIs/nUMZez5wFnMnPPo9l910NpbJhMVboWbSpBaVJxwl3WGTeg3flU/wJ9NqXTtQ1NQ3egpjLo9+MDeCk49MgDSAW5Ad73xDQSQzkW8vmY7p4SXT15unud0w7emwfqLGr65N7AdjkDf+qr10sEqjAgYXPg+n3ftdyPzeub+j7t+273fn1Dcl03+jjO1ymCVCUVmSrSfjZRBxVWJ9fhcmFiT9AqBhU595SyQIgmdG4c42S1IInocWPTOI40KDCamuo9qa/3MJ7bVzWQ9qC6bneU8YHkaCTt/qZJGlsPCPK4FE6b1O1uyuNJekdyHI8CN3T3iXslRwpn4zieQBUT/0dCsGTgkPSg6euUtNmC6nNS9f/dJq3PlXaTriKXdy4kORhJbjzKRYeSEW1kgqRnpdikaVBMZ+fTrF3VztjRVUycUMUuM0axw5QZLFq0mLGjKxgzvoodtsuwz/5HsXLVa3ipEuPGp9hmYgMHHnIYlZUTiJWH1op33ryHQfUZJoyvYML4BnbYqY4jDj+HqtxwUBZte2lt+xsbWjcwflIF4ydmmTi+hvHja5g0IceEsRXsc/DuNA7ZF913KkRCZyVSTFguqetXZTSxO7WMclIt3Uf05BQEm05oWnQPEu0mg1R/fxhHwM3TmB2h+9o59B9HJxXuZAMlSdaX4z4lbmNMFjqaEtgIa4vY2KCNRhuFqMrE/dWDDoVYbXAsEgeIF6IJiMudpHSWmCxgCVMeqcgS2y7iOELF4KVq0UEKoRIoYqNudByD0liTx0gK0ZXuWD3lA91IpInoxdgApYqgijgTO3YnvUkW8Sow2iQ5l5FjmNg+IZ3r54NnicOUS3Wr8KhWn0dn3qG992niYh4dB+6MDoS6ioMh1UZX73OExWxCdOecMson7WVIpTw6urtRakBXDhUjuIMQM0EGv3IvAjOW3vhGurs63ekLUQUKwfgRNcH+qPRU0IKNuynII6xdtZr5zy5h3do2JmzTxHZThlJXcygZfwiWebT1/h2KKbTqdr3sxTW8EPGJvBK59DiCzIGoGIrxw7SsbOGpv7xJsVBgxxnNTBw/ldrU/qigEiUx3fkbKBd7EYmwWiGxj/ECfJMildoJ35+M8WIUi+nqfpqoWEDE1QOgLCWdoipVT2X2syidwipx+8bK9ddLU2OVBIERL+VLyjey3baBrFr1jKzruEt23nmE+H4gXspIyk9LbS2y7N3Hpa33dpk6dYwEaSN+gHgpX7yUkVxlSi65ZG/51Q1HiJ/ykn8m+eeJl0qJ5yPDmqrkxb/fIsX8Uvnudz8tgZ8SP5USP0BSXkoa6tPyyhu/lJJ0i0QlWb3+N3LwAdMlk/GdwWS0oJVkKz35zGcnS1v7Y7L0nd/K8FFNkvaRlJcVE3jiBVp8PyWBb8Skldx+x1wpFVbJK6/9UGbNmCKp5HmeRjzjyfjRdXLzrZ+XsFwUiXrl1FP3k6pcICnfFz8wkvKNZNNG6qur5ID9xsubb10jEneLyDOy36xtJF1RIV6gxPez4qd8yVT58r1L95ZyuUNEon5zSivrUSyVKJUVcTmkHMasWVcin3+TsGcFq9Z0EoclojAmiopEocZoRcoqwjgmLFvCEthyDFYhEoEV1xQijoniiDCKCUMhDCOiqExkDWEcu04eqpU163ophWVsuUwYZ4niMl29JRbMexlVhmKphbO/+nse/ct8SiVLNg3bT/PwjUc+H3HbLa9x8++uo1jqQcUlSjGUbRlbiojKligMiWyMjUHjky89zlln3MSz8xZRLobkqmDECIixvLO0gy+feSOrVvzR1V0p94wwDAnDGGxMGMW0dRV47PF3OOGECyjlW4GInsgSl0pEJSG0eawNUZFCTAGFIsadFNcndN0GpyOn9ipFFBnyxXfp6F5FT3febWYKrBhQrjX4JlAwrNly0qnbcvIZO7HzrtOYtM0YTj9jOiefMpGaCoNBowWmbpvm9NOmcNwpOzCofhiFcDXPPPVK32PIVbnvC0vC4sWLCKMyJbuKRa8uIQ7B9xSfOGocTz7+MMOHV6NVQCiK1o51VGWrOO4LUzn1zKmMHZNz25BoMhXCCcdP4ayvTGX0mCG8+3YrLy94l9hCRQVc++tjefixK6mvSyMoNrQZbrv3amwcJju525HqquDPDx7LBRftRzbtzpN9+e8bWLn++YSUSSwAj2HNcPyJUznlrJ3YcfoMlEqs4L6yoFVrb5Ta6oygtbMFdCDZrC/X/2Yf+evTZ0iuMuXa62slaCRXhbQsf0K6u++QbSePFK2VoJCdd8nJ+vWLpFzqlahcFhuWJSx0yPr2u6S5qd7tNwo59tip0tm2TIpRp8Rhr6xed6M0Da4TFJLxkdvuOFb8wGUanH32TOnpWSPtXY/K5KljRIEEAXL8iROklH9Bpk6tdKLJIOedv6vkO9dIVO6Vjg1vy0EHTRYP52qur0dWLL9PyvmixFFBbvzNWVKVywgKyVUZefgvX5KW5T+XpsE1rk7E8+XjR2YlLK2UU06dLem08+fUVCPz5l8mry25TGrqagSFVGaRl167XET+KjNnThDPd+7jObOHyZqWhVIuFiSOukWsiJVY+vKjtJupMlifTEqTy5WIooin/vIiS94o4inN9BkZskFqgMmt+n7oh9YeKa8S38+6szk8Dy9VRZAStE7sBNEoH3SQwpgc2mhKRUW57Kq4UwE0D4lBg0axZnUrUVRAolxyoK4mjBRvLe5m3YaXeejh61j89h95Y+ltnHnm9wgqcmg/ixcolK82VpZrMEGMH/hYA61ta5BYg+C0D5VGaQXKZbxCRG9PHtmk/02i3UoKQ4BWhUQKkHR57dPV3bVGpTB+Gi+wYILkCFXtEqXc+hBiyaJViSBtOPjgIRhP07KiyGMP/Q3rldh373Gkkvqtja+xKbq6Qlau/QmrVv6YYvdDWHEdl5xYcqcxkIT1BO2MG7F0dHYRxTFKQ0NjQH1DirROEythwYK3KPauJeOPYOLwajcI4LlnWjnwgG+w5N15DK+dzKjmj9FYNwuMe0khhbaeC3JLYnfaANzhRhTykfObk/SXjyNnUCWZBUqEuIRrEi19WQium0hrx/Pcc8srFAqOGJWVMKh2PJDFJuYoQG++kzXrf0bLqh/R03Y/yro2Aq6uNyE8yllxWsdMmTIMzzOsWe/z3LzlSJyhqqqY1CINUOk3w9KlBfba81pmzv4Wf7zzzy5pIrlu4ELpsxYVEMVF/vbMQkqlMkpBRTZFLjeJIOtuXL9O6Cq3oLMpLrnieMaPrcfDUIpCFr25niMO/DVzT/4ca1qfgthu0kzifV6xH5swjnO0DPxkM2x8UqEEn/rkPVx8+e/Blth+O7jsh0czuHYGEKGtcq4ADH9/eQNzZv+a2Xv+mEf/+hiRCkH8fpMy+b9z4CslTJkyglSgeWtJgRVruvD9EkMH1258AcXmrw5AKYzo7Oimc30Hhd58v3/jnyGOIl5//W3KkTtSIlvRTTYzlOpcBUp5RDHk21fgSYbxw4/iht9+m30PaKQi4yExtHUUufVPf+f4L57C8tUPYGOX97K1oAHP5PGTstJJEyfS3OQkBC4sgFXOhRyFQkdHDxta2yiXO5LtmX7nS5+fwH0oirraKjytKRVjwpIhHfhMmDBuMx56L+Gbm+DML+/E2V/Znx2n7sHmAZ73heTp6c5jLSg0DY2QTQ+iNpdD65hCSfPyopco2xJekGWHaUdy0003cP4Fe9I8xEcRUy4pHntoBdff+CNKxZ5/zrz/TaQz8Ic/fJHvfPtQlKe4864lnPuVG+jonQdJIpMoV7c7YrjmjC9P5fSzZ7HtxN1RuHMM++jYrxf2zUM2k6OmthKdRMezuSLZbOPGb/8HGDa4gvO/9ke+fuGd7LLb59HqvR2sN0IBMVba6O5yfYZFxURhwHMv3ksUxYhAGFrmP7+QqLCS19+8gnnPXcHStx/l0MN34aZbTqM6p1FKUbIh99z1NL29HU5ReB9sTK9wvdM2fu70C8eLzhHUJ00VDHDiK7SBmtpt2PvgmWTTGaIoZsnbHaxZ9Rr0ebPEgBLGjB3KN875Exde9DjbT5mLKBeT7fvmAaLbfeinG9lp+ig87SMaKjNgvAHnZ/wDjrKeQekUHtqdKKb+QYNkFbs6U0JK5RaWt7S7/JkYHn5Qsc+sX7HgtTXEVogjWL26l67etcyd+1vmzLmCOXv/kB9eeTd77noS+31sHDrpqL12VUyhtBp5nzYq4DZMAbAeFRVptHYaiyImMm6Pi4nxMFgDftrRXHBujmQrxOgIX1zfNXC9SsvlXvd3JNHVQWERIowYVHKwmag+u6Cf492RzqBIeQ1sv/1QtOcs1G23z5HyazaO4B+gHBlK8ULK4SJi+4ZzpL0vBIhReBQK61j+7rrEXazwUkUyQZmUdvkrKMh3R8RhiBaPMBRKZe0MKQmYM3tnVNJWxdEhdm2VNv9GBRbP9bfRvQxrHo5RGedNRRGFoWsUHkOUaEI1tVmU8vslM4lC8H6wm8s3q4iimFL8BqX4b0T2VZQtJK0d3SUbCS9usQkVVOcM2kDgaebsPRs/VbnJc98P7y4tMPfzF/DpT5/Ady/9IqVo1eaXJLPtDsRCLL35TgrFkiO6hjn7ax59/Ap22WEUnnbm9fIVrRTLHQxuSuMZAypiQ1vM6vz93H7rgv6CgUwWfFOfbHHvg74wna1m+x0b8bMWTEQcZlm9Yg2r17YThe6aQBkOOXQvlP7XJ10qXORs429ukl59tZvjj7uQz376TE46+ZN0d69K6nQTPb7P5+4gKKUZ2tiM57so0JCGsWizmYvgfdC+ociDD73K3fct4Pm/LSZ6f1ELkqRuSJm2dR6hBRA85TFrz6lM3+GLDB9d57xWaNau76YUt3Lql/chlzNEZcWD9y9m3IjzePQvrxHbEA0c+ckdqa4aAgNG0w9xho/LboORw3Znv73GkTaKfNjLySfezR57XExHe4xnhNFjYg6Ycz5G96WZ/PPxb/y+vngUtLbneejhV7jr9vk8/vhblMJ8sl8kerw2MGxIgWFDYfDgGM8YJm03ntHDheYhIZXVjXgGmgYXaB4KDU3goxDj0djQwdChwtAmGDYEhg6OaG6MqR4EnhJM7Ca1qamX5qFC8zCorSmjlSEMY95YMo/GuiJDm2HY0JAZu09BlM/kHXOMHBzRNNRSVwOlsJVZu53Md7//caZMTaE0lHp7MDamfhCcePIYzj3nV6QrB2EQfEJq60Kam4TmJmgajPN4iAJtCYKpXHX1pXz6mHHU55xaW4pD0pmQvWdnueWPv6aufnfQlpqc0NxUpnmoy/71PIMJCjQPLjBiKAxpAuUpUL0MGtRD09CYpqEuW7ipCYYNFWoHkRA9SWsElLVrpau7l6hsMJ6lIluPlpiefDtRZKjMZdBa0d3bQ0wKrUNymSa0101Pd4E4FmeRiQ/aHcRrjKEy24CnfJAuerqKRBRRGALj41dWovApFtophM4ENDok0HUE6UGUyy2UixGxKIwGL5UiSFdhy5picTlr2p6lJ78K36umsXpXqqu3w2QErV3wJoqFYrmVcsk6w4YUuUwTKuVy2EGQWCgV2ujsfZa29WuJ6SVXOZpBdbsSVFShTAWexJSKaykVQ+caUD7ZbCVKW/L5TreRW0MmXUOQDujp7iW0vZsYZAqL8TTZ9CiMrxP7RqNEbJJJH/VHwEUXE+M6AtJusgR3BERyQmW/hFJJ8zZVAJvpr5CG5PAmwf1NMv0vI7hCLwgTP0ffw0JEGRSl/k3SiQcfKCfvBJY4iW55rlVLEtNSeE5VFpL3wAW+TQ8u88lzGlciZwWFFQ2qw/WmkQrQLtUDQHSfNWwTERG7LLc+Ua6S905oJ6oXJRX94wRcOFOSfsnofrGlRCJxWoXb4YU+szehRT9Z3EwN/M29UAz47h7lwlr9N9FHANsv/QQved/YhfkGTh59g0nep5+App9ToG+iy8l39RGlLxs3IYYkz0X6QtgDJtj97JI5Nh7eovpGNvBdRLmTkEUnZUIbn6OI+kfVP+5N4O6HZBxi+sfjOB6bfDhwJukPNr8XfZH9zTcdO2BgA+/vI9pADJxd93c3nD7iDLxnIMHe7/eN2PiXTRmlnwhq06vec2f//yRhL5P83Hf9wOcMuC+Jpb4XA2mSvAdqa5Vb/h/+FTZnw//DR4T/D0Wr8upYmFK4AAAAAElFTkSuQmCC;" parent="1" vertex="1">
                    <mxGeometry x="-725" y="222.09" width="74" height="85.81" as="geometry"/>
                </mxCell>
                <mxCell id="128" style="edgeStyle=none;html=1;exitX=1;exitY=0.5;exitDx=0;exitDy=0;entryX=0.001;entryY=0.452;entryDx=0;entryDy=0;entryPerimeter=0;strokeColor=#000000;fontSize=16;fontColor=#000000;" parent="1" source="103" target="127" edge="1">
                    <mxGeometry relative="1" as="geometry"/>
                </mxCell>
                <mxCell id="103" value="" style="rounded=1;whiteSpace=wrap;html=1;dashed=1;fillColor=none;strokeWidth=1;fontColor=#000000;fontStyle=1;strokeColor=#000000;" parent="1" vertex="1">
                    <mxGeometry x="-1231" y="58" width="1080" height="120" as="geometry"/>
                </mxCell>
                <mxCell id="104" value="" style="rounded=1;whiteSpace=wrap;html=1;fontSize=16;fillColor=none;strokeWidth=1;fontColor=#000000;fontStyle=1;strokeColor=#000000;" parent="1" vertex="1">
                    <mxGeometry x="-804.5" y="68" width="227" height="100" as="geometry"/>
                </mxCell>
                <mxCell id="105" value="&lt;span style=&quot;font-size: 16px;&quot;&gt;Access Layer&lt;/span&gt;" style="text;html=1;align=center;verticalAlign=middle;resizable=0;points=[];autosize=1;fillColor=none;strokeWidth=1;fontColor=#000000;fontStyle=1;strokeColor=none;" parent="1" vertex="1">
                    <mxGeometry x="-1353" y="96" width="121" height="31" as="geometry"/>
                </mxCell>
                <mxCell id="102" value="" style="shape=image;verticalLabelPosition=bottom;labelBackgroundColor=default;verticalAlign=top;aspect=fixed;imageAspect=0;image=https://upload.wikimedia.org/wikipedia/commons/thumb/5/57/Trino-logo-w-bk.svg/1280px-Trino-logo-w-bk.svg.png;" parent="1" vertex="1">
                    <mxGeometry x="-782.04" y="74.16" width="186.08" height="87.67" as="geometry"/>
                </mxCell>
                <mxCell id="111" value="" style="rounded=1;whiteSpace=wrap;html=1;dashed=1;fillColor=none;strokeWidth=1;fontColor=#000000;fontStyle=1;strokeColor=#000000;" parent="1" vertex="1">
                    <mxGeometry x="-1228" y="-86" width="1080" height="120" as="geometry"/>
                </mxCell>
                <mxCell id="112" value="" style="rounded=1;whiteSpace=wrap;html=1;fontSize=16;fillColor=none;strokeWidth=1;fontColor=#000000;fontStyle=1;strokeColor=#000000;" parent="1" vertex="1">
                    <mxGeometry x="-1139" y="-76" width="432" height="100" as="geometry"/>
                </mxCell>
                <mxCell id="113" value="&lt;span style=&quot;font-size: 16px;&quot;&gt;Consumption &lt;br&gt;Layer&lt;/span&gt;" style="text;html=1;align=center;verticalAlign=middle;resizable=0;points=[];autosize=1;fillColor=none;strokeWidth=1;fontColor=#000000;fontStyle=1;strokeColor=none;" parent="1" vertex="1">
                    <mxGeometry x="-1350" y="-57" width="121" height="50" as="geometry"/>
                </mxCell>
                <mxCell id="116" value="" style="shape=image;verticalLabelPosition=bottom;labelBackgroundColor=default;verticalAlign=top;aspect=fixed;imageAspect=0;image=https://upload.wikimedia.org/wikipedia/commons/thumb/0/0e/Superset_logo.svg/2560px-Superset_logo.svg.png;" parent="1" vertex="1">
                    <mxGeometry x="-1143" y="-54" width="254.22" height="66" as="geometry"/>
                </mxCell>
                <mxCell id="118" value="" style="shape=image;verticalLabelPosition=bottom;labelBackgroundColor=default;verticalAlign=top;aspect=fixed;imageAspect=0;image=https://mellowhost.com/images/metabase_2.png;" parent="1" vertex="1">
                    <mxGeometry x="-865" y="-72.5" width="144.75" height="93" as="geometry"/>
                </mxCell>
                <mxCell id="120" value="" style="rounded=1;whiteSpace=wrap;html=1;fontSize=16;fillColor=none;strokeWidth=1;fontColor=#000000;fontStyle=1;strokeColor=#000000;" parent="1" vertex="1">
                    <mxGeometry x="-617" y="-76" width="432" height="100" as="geometry"/>
                </mxCell>
                <mxCell id="122" value="" style="shape=image;verticalLabelPosition=bottom;labelBackgroundColor=default;verticalAlign=top;aspect=fixed;imageAspect=0;image=https://www.wi6labs.com/wp-content/uploads/2019/12/Machine-learning-logo-1.png;" parent="1" vertex="1">
                    <mxGeometry x="-577.5" y="-63" width="118.09" height="77.67" as="geometry"/>
                </mxCell>
                <mxCell id="123" value="&lt;span style=&quot;font-size: 16px;&quot;&gt;Batch &lt;br&gt;Ingestion&lt;/span&gt;" style="text;html=1;align=center;verticalAlign=middle;resizable=0;points=[];autosize=1;fillColor=none;strokeWidth=1;fontColor=#000000;fontStyle=1;strokeColor=none;" parent="1" vertex="1">
                    <mxGeometry x="-1224" y="704" width="89" height="50" as="geometry"/>
                </mxCell>
                <mxCell id="124" value="&lt;span style=&quot;font-size: 16px;&quot;&gt;Stream &lt;br&gt;Ingestion&lt;/span&gt;" style="text;html=1;align=center;verticalAlign=middle;resizable=0;points=[];autosize=1;fillColor=none;strokeWidth=1;fontColor=#000000;fontStyle=1;strokeColor=none;" parent="1" vertex="1">
                    <mxGeometry x="-577.5" y="704" width="89" height="50" as="geometry"/>
                </mxCell>
                <mxCell id="125" value="&lt;p&gt;&lt;strong&gt;Apache Hive Metastore&lt;/strong&gt; adalah &lt;strong&gt;lapisan metadata&lt;/strong&gt; yang mencatat informasi tentang:&lt;/p&gt;&lt;ul&gt;&lt;li&gt;&lt;strong&gt;Lokasi fisik data:&lt;/strong&gt; Lokasi di MinIO di mana data disimpan.&lt;/li&gt;&lt;li&gt;&lt;strong&gt;Skema dan struktur data:&lt;/strong&gt; Format data (Parquet/ORC), kolom, tipe data, dan partisi.&lt;/li&gt;&lt;li&gt;&lt;strong&gt;Partisi data:&lt;/strong&gt; Jika dataset dibagi berdasarkan waktu atau atribut tertentu, partisi ini tercatat di metadata.&lt;/li&gt;&lt;/ul&gt;" style="text;html=1;align=left;verticalAlign=middle;resizable=0;points=[];autosize=1;fontSize=16;fillColor=#f5f5f5;strokeColor=#666666;fontColor=#333333;" parent="1" vertex="1">
                    <mxGeometry x="2" y="190" width="792" height="155" as="geometry"/>
                </mxCell>
                <mxCell id="127" value="&lt;p&gt;&lt;strong&gt;Trino (PrestoSQL)&lt;/strong&gt; menggunakan metadata dari Hive Metastore untuk:&lt;/p&gt;&lt;ul&gt;&lt;li&gt;&lt;strong&gt;Menemukan lokasi fisik data di MinIO:&lt;/strong&gt; Trino tidak langsung mencari data secara manual di storage, tetapi membaca lokasi dan partisi dari Hive Metastore.&lt;/li&gt;&lt;li&gt;&lt;strong&gt;Mengetahui skema dan struktur data:&lt;/strong&gt; Trino bisa memahami format dan struktur tabel tanpa perlu mendeteksi secara manual.&lt;/li&gt;&lt;li&gt;&lt;strong&gt;Optimasi query:&lt;/strong&gt; Dengan informasi partisi dan indeks, Trino bisa langsung membaca bagian data yang diperlukan tanpa membaca seluruh dataset.&lt;/li&gt;&lt;/ul&gt;" style="text;html=1;align=left;verticalAlign=middle;resizable=0;points=[];autosize=1;fontSize=16;fillColor=#f5f5f5;strokeColor=#666666;fontColor=#333333;" parent="1" vertex="1">
                    <mxGeometry x="2" y="-1.0000000000000142" width="1170" height="155" as="geometry"/>
                </mxCell>
                <mxCell id="130" value="&lt;li&gt;&lt;strong&gt;MinIO:&lt;/strong&gt; Object storage berbasis S3 lokal yang digunakan untuk menyimpan data mentah, data bersih (cleansed), dan data terkurasi.&lt;/li&gt;&lt;li&gt;&lt;strong&gt;Struktur penyimpanan zona:&lt;/strong&gt;&lt;ul&gt;&lt;li&gt;&lt;strong&gt;Landing Zone:&lt;/strong&gt; Data mentah dari ingestion.&lt;/li&gt;&lt;li&gt;&lt;strong&gt;Cleansed Zone:&lt;/strong&gt; Data yang sudah di-cleaning.&lt;/li&gt;&lt;li&gt;&lt;strong&gt;Curated Zone:&lt;/strong&gt; Data terstruktur siap digunakan untuk analitik atau machine learning.&lt;/li&gt;&lt;/ul&gt;&lt;/li&gt;" style="text;html=1;align=left;verticalAlign=middle;resizable=0;points=[];autosize=1;fontSize=16;fillColor=#f5f5f5;strokeColor=#666666;fontColor=#333333;" parent="1" vertex="1">
                    <mxGeometry x="-21" y="483" width="975" height="170" as="geometry"/>
                </mxCell>
                <mxCell id="141" style="edgeStyle=none;html=1;exitX=1;exitY=0.5;exitDx=0;exitDy=0;entryX=0.001;entryY=0.51;entryDx=0;entryDy=0;entryPerimeter=0;strokeColor=#000000;" parent="1" source="132" target="140" edge="1">
                    <mxGeometry relative="1" as="geometry"/>
                </mxCell>
                <mxCell id="132" value="" style="rounded=1;whiteSpace=wrap;html=1;dashed=1;fillColor=none;strokeWidth=1;fontColor=#000000;fontStyle=1;strokeColor=#000000;" parent="1" vertex="1">
                    <mxGeometry x="-1227" y="-240" width="1080" height="120" as="geometry"/>
                </mxCell>
                <mxCell id="133" value="" style="rounded=1;whiteSpace=wrap;html=1;fontSize=16;fillColor=none;strokeWidth=1;fontColor=#000000;fontStyle=1;strokeColor=#000000;" parent="1" vertex="1">
                    <mxGeometry x="-877.5" y="-230" width="432" height="100" as="geometry"/>
                </mxCell>
                <mxCell id="134" value="&lt;span style=&quot;font-size: 16px;&quot;&gt;Orchestration &lt;br&gt;Layers&lt;/span&gt;" style="text;html=1;align=center;verticalAlign=middle;resizable=0;points=[];autosize=1;fillColor=none;strokeWidth=1;fontColor=#000000;fontStyle=1;strokeColor=none;" parent="1" vertex="1">
                    <mxGeometry x="-1350" y="-211" width="123" height="50" as="geometry"/>
                </mxCell>
                <mxCell id="139" value="" style="shape=image;verticalLabelPosition=bottom;labelBackgroundColor=default;verticalAlign=top;aspect=fixed;imageAspect=0;image=data:image/png,iVBORw0KGgoAAAANSUhEUgAAAWkAAACLCAYAAACjgGhzAAAAAXNSR0IArs4c6QAAAARnQU1BAACxjwv8YQUAAAAJcEhZcwAADsMAAA7DAcdvqGQAADT/SURBVHhe7Z17fBNV+v8/SaaTpE1boLSEonItipfiKgoLqNwvwkK5FcQr4gVcgb38VlAUXVxXXXdVkF1QREBdERQFxKUXFUSoaIsuKPClWW4qtLS0kEuTyXSS+f2RTMhc0iZt0kzCeb9e84KcM5O0TfKeM895zjOaTuYreBAIBAJBlWh4nieSJhAIBJWi4Xmed/9wAPULH4DG1A4AoMvp7OvV6nz/pGf6dk7PgMZghCYt3bdfJ7OvP80EbabvWCor29fWrh08aemgadr3XISE5PnjZwAAj/fIlXYRCIQ2QMPzPF+3+Hdgit+BRp8h7ZfBu23SJoB1SlsAAPwF37/ay83QdukFnfky6HIvhzYrB7pOZlC5l0GrN4K67DLo2mdJDyfEmT9W/ox/nfO9iSV9uuKW9s1/PggEQnTR8DzPe87Xofq2y6BJNwMpBuk+0aGRCfw3IPogufMXAG2Pbki59iZQvfqA6pEHKvcy0D3ziMDjQEDQlA7gPETSBEKcCMSkPefrcHZ8P19rrEQdDo2MTOL8BYAaMBj0Db9GytX5oLvnQXNlHxJKiREiQQNE0gRCHBFNHKpG1Er4R+K82wawTp+4+/8a+kEjQV/3KxhuuImMuKPA88fPYGl13UVBg0iaQIgnsuwOz/k6nJ002CdFtYlaijDq9ktbd+21MIyaDMPgoTD2GyDdm9AMioKGT9KHr89D91SVfx4IhCREJmkAYFkWdQWDwFvPqV/UwQRJGwAMv3kYqZNmEGGHQUhBg0iaQIgnipKGX9T1d46B98yJxBJ1MI0MeHs1AMA4809IGzcF+uv6Sve65GlS0CCSJhDiSUhJC1RPG5bYohbwC1t72bUwzVmI9AlTpXtckqw5XYtHT1WHFjSIpAmEeKKVNkgxf/AFtF16iVLoEpIUAzQduoG3noPtybtxOt+IC6tXgGVZ6Z6XDGEJ2o9R1/w+BAIh+jQraQAwbyqFtksv8I4aaVfi4Ze1pkM3NLz+NGr7ZeLC6hXSvZKeSARNIBDiR1iShl/U9IBxySFqPxpTjk/Wr/0JZ4b0gatin3SXpIQImkBIHMKWNABkr3g76UQNAJoO3QAAdZOHom7x75I6BNJSQZv1KdImAoHQBkQkaQiiHjgh6UQN+Jalu3dtRe3AznD/cEDanfCU1FlbJGgCgRA/IpY0AGQvXwvD6LvB15+UdiU+KQZoTDmoHTcA9m0fSnsTlpI6KyYe/YkImkBIMFokaQDIeu5VGH7zcHKK2j+qtj15N86/+ry0K+FotaBbehyBQGg1LZY0/KI2zvxT0opa06EbnG8tRd3i30m7EoZWC5pAIMSVVkkaADosWpr0omY+eT0hRU0ETSAkPq2WNPyiTr1/SdKL2rviGWmXaiGCJhCSg6hIGgDa/+5xpM17KalFXfXGiwkh6q/O26Iq6Efa+W6XRiAQ2p6oSRoA2j34KNLmvQTv8eQVdfWHG1Ut6q/O2zDqyKmoCZpAIMSXqEoaflGbnkpeUaORgfbEf1Up6pgImvOgYzSfj0AgRETUJQ2/qDNXvJOcok4xoOrIaWh/OQq8qJ7JxJgIGr70uxyy2pBAiBsxkTQApE+YinYrNySlqHmnw/ef82dVIeqYCdrP5QZyL0kCIV7ETNIAYBpXgPZrP05KUVcfOwtoqYCo41Xv44STiamgwXmkLQQCoQ2JqaQBIG34mKQUNd9g9/3HL2r6mdltLuoTTgZX/9cSO0H7MWo10iYCgdBGNHtnlmjR8HkRzs+aBG0PX8W5ZCB3oP/O6gDg5QAtBfaZNaDp2IcH2krQbXVXlurqKmzauAkAkJGRgftmzZLukvDMvn8W6uvrMXrMGMyZM1faTSAoEvORtEDa8DHI+mhnco2ovdzF/2spwMuBfmY2POfrgveKOm0maD9tcVeWV195BaWlJdi58wu8/fY6lJWVSXdJeE6cOA6KonDk8GFpF4EQkjaTNAAY+w1A9qf7kkbU1cfOihv8ota9+GjMRF3tbmxTQaMNaklbrVZUVJQjNTUNNK1HVlZHbNu6RbpbwqPVtunXjZAktPmnRn9d36QStQwtBQAxEXW1uxHdD7StoNvitYqLi2A0psLr9U1SarU6fPvtN7BardJdCYRLjjaXNIJEnehLyAOTh1JiIOpqdyO67/8/aXNSsPnDzTAYfDHvxxY+BqezAZmZ7VBcXCTdtVmqq6tgsVhQXV0l7WqS4OMimQBmWbbFrwn/VYTFYoHFYonoddGK35WQWLTZxKESjSeOoWbitdCkm4GU2E5MxQJNqgmdr79K2nwRLwc0uuB5cg107bOkvWETEHQbjGqlPNIuHf/ofbm0OWpUVlZiwfx5MBgMmDixAPfNmoVJBRNBURS0Wh02bvJNJkqxWq2YVDABAPCX53w1v5e9+irq6mqRkuKbuG1sZDF1WmGTk3Tr1q7Fxo3vo7GRDRzndjO4+eb++N3vfw+zubP0EACAxWLBmjdX49tvv4Fe7/vsNjaySE/PQOH06bjjjpnSQzBi+FC0b98BPXv2xONPLMaSp57EDz8cDBzvdjMYPXosfv+HP4ScfGZZFqtWrsS2bVtEv2f79h0wrbAQhYXTpYcQEpy4jKQFUrr3RM7WH8Hbq4FGRtqd+GgpIMUI3V9mo/HEMWlvWMQlxCHQBkvCi3bsgMFggN1uw5ixYwAAEycWgOM42GxWVFZWSg8BALhcTmi1WmRnd8KaN1fj+b8+B6ezISAuiqLQvn0HfLp9OxbMnyc9HCzLYnphITZv/hAGgwEpKTQoyncFlJZmwrFjx3DXnTMVR6llZWV4+KEHcOzYMWRmtgP8ojQaU0FRFN77978x+/5ZiiNjrVaH2tpa3HfvPTh+/HhA0BRFISurI/bt+xp3zrxD8Vir1YrphdOwc+cXMBpTA8elpNDgOA5r33oLixY+Jj2MkODEVdJIcFEHVh42hV/UKSv+GLGoA4KOFzFeEs6yLLZt2wKKopCX1zswah0zdgzsdhsMBgOKduyQHhZAELLD0QCO43D3Pfdg7bp1WLtuHebNnw+O45CamobKykqUlBSLjn3rrTVwOhsAAEOHDsP7Gzfhk+2fYuu2TzBv/nw4HA60b98Br77yiug4q9WKJxc/juzsTnA4HJg4sQBr163D5o+24Jk//xkZGRkwGAyor6/HqpUrRccKOBwNYBgGU6ZMxfLXVmDtunV4/InFyMjIAEVR4DhO8dhFCx8DRVFgGAZ333MPtm77BJ9s/xRr163DlVdeCYPBgAMHDmDDhvekhxISmLhLGn5Rm7/8xfcggUStSTVJm5TRUoA+PSJRx13Q8I2ke6fqpa1RY9eunTAaU8EwDCZNnhxoN5s745prrgVFUdi2bYviqDIYm82Kp5Y8jcLC6TCbO8Ns7oxRo0bjby/9HXV1tTCZTFj9xhuiY86cOYOGBgd+dcMNmL9gATIzMwEANE1j1KjRuOnmmwEAFRXlotf/+KOPkJnZDk5nA2bdfz/umzULZnNnZGZm4sYb+2HlqtfBMAwoisKWLR8p/uxOZwN+/4c/4L5Zs5CXlwezuTMGDhyIl195FQzDgKb1st97//4KnDx5EhzH4Z5770Vh4fRASMRs7owXXvwbOnToAJPJhLfXrw96NUKiowpJA4CufRY6ba/wPUggUUeEX9TN3YlcFYL2c5leOTYaDT7+6CMYDAa4XE4MGTJU1Ddu/HgwDAOjMRW7du0U9QXj9XqQm5uLgQMHSruQl5eHfv1uAgCcP18vCl0sXfosiopLsXTps0FHXKRPnz7gOA4pKTTq6y9O/n7zzb7AaLegYJLoGPglf/c998DhcECvN8Dlckl3AUVRGDVqtLQZmZmZGDd+PFjWjZQUGidPXpxYLy8vh8FgAMMwuP32caLjBKbPmAGG8X139u/3f5cICY9qJI1gUacYklrU+nVPhxQ1y7KqETSAmK009GUmVILjOEyYUCCbKBsyZChcLicMBgM+/ugjUV8wHMcFRr1K3HDjjQHZnj59WtQnvGZ1dRXKysqwYcN7ePGFF7Bg/jx8tHkzaFp+FfHLL74rvtzcXNnPLFBYOB07ioqxo6g4MEIX8Ho9uOKKK0RtwfTo0QMcx4GiKNjttkD7kcOHQVEUTCYTampqAhkhwhZ8AqIoCnV10ckqIsQfVUkagqg/3nNJipplWWT+93+itrgSw0nDoh1FSE/PAMMwGHv77dJu0DSNqdMKwXEcLJZKxQk8AakIg2nXrl1Aem63OPRQUlKM6YWFuOvOmXh26Z/x9vr1KC0txqFDP4LjglaTBtHQ4JuHMJnCDHW1guCf1+Hwva5Wq8P8eY9i7pyHRNtdd87Ea8uXB1IZiaSTB9VJGkGi1mR2DIiad9SArz/p2xw10kPigiatFbeV8ovaVbEPUKOgY3zbrM2bPwRN62EymfDC83/F7Ptnybbyb78FTeuRnp6Boh2R50xL0QeFbpYseQqvvPxyILTQt29fTJ8+A48tXISVq97A6DFjwLJu0fHAxVWDSrHmaBP88waTm5uLrl27ybacnBxkZGQgNTUNXbsmT42cSx1VShp+UWdt2Qttbnfw9SdRNmwJ1t+7Gevv3YzvB84HGhmkWk/GdbRtviJD2hQZ+nQYN7wAV8U+1Qk6lul3+/dXiEaq9fX1ITev1wOa1mPz5g9FzxFMUysT6+rqAjHk9HTf+1VWVoayvXtgMplwXX4+tm77BC+8+DfcN2sWRo0ajby8POnTBBCeo77+vLRLRHV1VZOj/0jJzs4G/JOOa95a2+S2cdMmxRg9ITFRraThv+Q1vvkx5j5RiXvGLsArfW/HK31vx7RJT6Pvn0/ghdmlsGbl+WQdD1KM0pbI8Yv6vnPieGncoXS4MTNN2hoVPti0CSaTCSzrRr9+N2Ho0GEht9zcXHi9HnAcpzgZRlEUdn4RemJx95dfgqIoNDay6NSpEwDgq927kZ6eAYfDgSeffEoxtlz+7beg/HnTwQjxZJvNGvLksHzZMsy8YwbGj7s9aqK+6irfRCbHcSFzx+E/YYX6uQiJiaolDQDm7zLxdfvLYWIBeHyb8P81Vw3GDb8vwb/u2uxbYt7Wo2r/8u9Wk2LEnP/5wh6qgfMgzyifOGstQjElAOjQoQMWLlqE+QsWhNwef+IJnD9fD5PJhK1bt0qfDlqtDk5nAzZt2ijtQllZWSBDomvXboHYtdF48eQanLkhUFJSjJqaGmi18iuJQYMHg2EYGAwGxXzk6uoqbNu2BdnZnZCdnRNyxWKkDBo8GHa7DSaTCW+teVPaDQBYMH8eJhVMwPBhQ4iokwhVSzr7M7+QQ+EX9it9b8f1L7lwtstN8RtVt5J2zgvSprgTi8yO4uKLE4bTZ8yQdsswmzsjL683AGDPV7sV5WMwGLD2rbewZMlTvlBGWRlWrVqJZ5f+GRkZmTh/vh6P/Pa3gf0HDR4UEN6C+QtQUlIMi8WCyspKLF+2DK+8/HJgAk5KQcEkUBQFiqLw6fbtgdfcv78CmzZtxNw5c5CVlQ2bzYp77r1XeniLycvLw8BBg8FxHI4ePYpFCx9DZaVvQnX//grMnfMwfvrpJ2RmtsOgQYObnEwlJBZxrd3RFNmf+UfOEeCggbd3LMPI0kVwZsZ24qTZuh2R4OVwIPdqDBgwRdoTV1w3Xy1tajXTpk4Bx3GwWi+gqLhUMdQgpaSkGK+8/DIoisLd99yDwsLpqK6uwqz77oPJZELPnj1x6NAh0TGCSM+fr1es37F82TJs27YF6ekZgTCCcBz8qXA//fQT7HYb3v33e6IRsfDawmsEx9eF1LmRI0dj4aJFgXYAGDb0NmRmtoPZbMbKVa+L+gSE3xUAnlrytCi2zLIsFsyfh5MnTwZypgWEx71798ZLf/9HWH9XQmKge+aZZ56RNsYb406AVs6AahLaA2y8agBSs2/AwPI30Gjw1VWIBdp2WTBltXLiUID3YmePAdjawSztiRuPtEvH6Kzoj8Z+/PFHGPR6TJ4yBfn5faXdilx++RU4cvgw0tPTkZ+fj549e8HhcGDrli3QarUYNXo0HntsIWpqanDmzJlAfnG3bt0wb/4CTJp0cTWjQP8BA9Arrzd++fln1NbWorGRRWZmJgYM+DWeWrIEfftejx9/+AE9evTA7ePGQxd04wOTKR2FhdPh4Tyora3BuXO14LhGGI1GXJefj0fnzcO0wkLR6wHAsePHYdDrcettt+Gaa66VdgMAPB4vjh87hqysLEyYMAEm08UMG51Oh/Hjf4OcnBzUnD2Luro6NDay0Ov16NOnDx56eA4eeuhh0c9KSHxUN5Ke+TVQejGHv0U4aGDBoT1YtGZkzEbUuQOuj15M2m2HccqzMc1LjpQVXbIxu4svo0CNCKNZg8EQsuocgZAMqComHQ1BA7449bJrBuOF2aWxi1FHS9BeDge63qgqQYPzYFj72OVIEwiE8FGNpKMlaAFB1P+6a3PURR12YaVwaHRhQL8CaWvcicWkIYFAiBxVSHrm18DH9dLW1mNigWdvuB3vTVodVVG3aqVhMF4On/YZoa5RNIBHOsYulh9N3G4GDMPAzchXBhIIyULcJS0I2hSl6IEUEwv88Za7sOeWRVG7XZe5p29RRKvwckD7TpiaP0zaE3euTlP/KLpDhyyMHj0WQ4YMxcBBg6TdBELSENeJw1gLWoQOKHmjEJ1Ol7f6Vl25A/tJmyJHhZOFgC8effj6PBLuIBBUQtxG0m0qaPhyrkfN3gTe3brAtzY7CivI3HbMHf5b9QkavuXgRNAEgnqIi6TbXNACOmDp3J2tik+3OtThtmNF/xlY17GLtEcVxLLyHYFAiJw2l3TcBA3faPrtHvkoHflCy+PTrUm9c9uxoV8h/tQtX9qjDjgPCrKjv4CFQCC0nDaVdFwF7cfEAo+MWgBbt1siLsjUqlCHX9D397xe2qMqbmkfpVWUBAIhKrSZpJccjL+gg1k4cw1SndXS5iZpcajDH+JQu6ATJfWOQLiUaJPsjiUHgZd+Vo+gEVSMaWDRImg6hLd0POKsDq+vAMncW+9XbQw6AOdBSZ+uZCSdxFitVtTU1ED6lddoNIo3OrBarTh79mzgcUZGetRKrxLCJ+aSDinocBMbIqyEFxE64ODLN4G3nms2LU+b3RnmvAhE68+DNt4yW51ZHArEouodIX5YrVYUFxdh7549OHToRwBASoq8Op7bzeDBhx4W1T+prKzEzDumIzs7J9BWW1uD199YjRtvjHCwQmgVMZW0SNB+TzncgKHOt0LM6/CNNPlGb/Bh0KT4ojBav9mZLL3oOYAoyVsHTD51EC+u6N9sIaaIRtFuOw50vVF1pUdDwnmwxJyFx3vkSnsuSSwWC1a8tlzajJ49e2H+ggXSZlWybu1avP32OqSlmWAwGBRvYCDg9XrQs2dPvPDi3wJtJSXFeG35cqSmXrw7D8u6STGrOBAzSS85CKys8omQO+OG18GhsbYRfFAJUo10dC0heF/496fa6aBrT8vF3UJpO2jgi7ceQNfjn4ccTYddO9rLAY0urOg/Q70ZHEpwHpy48SqY9SnSnrhSUlKM48ePS5th0BswafLkmBW2X7TwMRw9elR2+6zz5+ux9NnnVH//wAXz5+H48eMiwTYFkbS6icnEoTCCZo81oGHvBTAWFxprGwG/aIWtOYL3FfbnLnjAWFzAvgtw7LkA9yE7uDNuODi/sEMPGBQxeYDnxz3d5CRi5/xe0iY5bjtOtcuFccqziSVo/4ShGgX9wvN/RXFRkWzbvPlDPDD7fukhUYWiKGi1OtFmNKbC4bBLd1UVixY+hp9++ilsQQMQ3bSAoD6iLuklB4FlexqAfRdEYo4mweLmLnjgPuGTdsPeC2ArGyITtgco7XS5r7aHo0ba66Op3GgvF0ivu2pY4sSfA3AePHqZ+upGr3lzDbKyOoKm9bItNTUNDodD8ca0lzJlZWU4cOAAaFp+b0qWdcNms8LpbADLukUbx3GKNykgqIOoSnrJQeClDy6ArWqMupibQ3i9xtrGiIVtYoFZ455Gmscp7ULujVdKm3z45Xwg92oYpzyr+vS6kKhwGXhlZSVsNmuTcVSTyYTPSj+TNl/SrHlzNUwmeRldm82KAQN+jeWvrcAn2z/Fx1u2irZPtn9KJgNVTNQkvX6vCy+9cz7sUEYsURK2KCSigIOGbyWidDStV1gm7bYD7Tth7vDf+iYHE230LMB5cPjaHtLWuFO0Y0fIG8EKaLU6FBfvAMs2dafilsMwDLxej2hzuZyi21mpierqKpw6dVJ2YmNZN6ZPn4GFixYpptkR1E9UJL1+rwtztjDQmDTSrrgjCFsIibgP2cGddctG1yYWeGT4At9oupEBGhn5CkMvB3g5rOg/A8ahD6k/97kZHunYTnWjaADYtm2L4iW7lLQ0E3bt2iltbjWzH3gQ11xzDXr27Cnapk4rVO2k4cGDB2E0pkqbQVEU7ps1S9pMSCBand2hZkGHgud88tZ3N4LqpPfJ2uMbTf9ly19gOPIfAMBv+/X0HeBflPJpr0GqrP/cIlSa0VFWVobn//qcbOKLZd0ycXu9HmRkZGDNW2tF7Zci69auxdat4pMby7oxeswY2Z3Sw4Fkd6iHVo2k91SyCSdoBI2uGYsLjj0XY9fX7/sYXx/dgSK6PYro9ph02FfW9NNeg2Cc8ERSCXpFV7PqBA0AG9/fIAt1sKwbcx95BCwrvgOLVqvDqVMnYbFYRO2XIsErAwU4jkOPHuoLZxEio8WSrrJ6MXJ1Q8IJOhghft5Y2whNxQV0+fLv8Bg6gqIoUBQFjuPQp0N/n5wTNe6sBKVT5Z3Aq6urcOjQj7K4qt1uw6hRozF6zBiZqNPTM/D552QCscHZIMvrBoCsrCxpEyHBaLGke75qS2hBh4u5NnT+dELCeXCirzonkIp2FCE9XVw7xOv1YOTI0QCA4cNHgGHElQtpWo+tW7aI2giEZKJFkl6ytUG2GjBR4TmAd/BA+gU0ZphEif16uw3W634l2j+h8RdRUmOYA4AspgoADocDI0aOAADk5eUhNzcXXq94eSlFUSgrKxO1EQjJQsSSPlLF4aU9bNzT7KIB7+ChaX8BuolvQlcwH6UPm0BRFHQNgK4BOPSb6ai6bTjadc6FKTPBy3j649BqrXK3f3+FbJQMAAaDQZTDO33GDNl+BoMBG9/fIGojJAZWqxWVlZUoKytDSUlxYCsrK0NlZSWsVqv0kEuOiLM7MpbZwV1oYaEMlcC7eKR0puDNXw/N5bsA7uIMtue0A1exJhxxnYbhhlUw6DqKjuWcTjisF0RtqicBCigtWfIUjhw+LIpHK2UTWK1WTJlcgKwscUy9rq4W7/77vaiV0ly1aiUO/Pe/oGlf1TiWZfHAgw+GvehDejwAPDpvvixX2Wq14tChQzh48ADOnDkD64WLny2WZTF02DAUFk4H/Ceyt9evDzr6ItXV8olDIftFaYFLczgcDjgcDaI2pfejJVRXV6FoRxG++mo3Tp06iZQUWjGeznEcGhtZdO3aDSNGjsTQoUNb9P5u2PAedn/5pei9ePyJJ1r0XAJKRbiU3t9IqKysxD9XvBZ4zLIsJk2eHJmktx9wY9oGJzTGxIxF8y4eGqMG2ps/gSZvq68xSNC8g4XntMP3wOMClXol0vP/Ad4jH+EhUYSdAIKOVLzhCr2lWCwWPPzQA8jKEp+gAeCDDzdLm2QoHc9xHK644gosW+77ElqtVqxauRKlpcUwGlMDk9VS6urO4eMt25CZmYnZ989CfX294n7SyVYBaWgoXJSer7V/4+rqKrz6yiuoqChHenpGoD5Kc3i9HnAcB7vdhpEjR2PO3LlhF9diWRZjRo+UvRcdOnRoVermb8aPE2UhCWHSj7f4vdICpk2VV808ceJ4ZOGOaR+6ElLQQtxZl/89dNMX+ATNpYkEDQBea9DqNZ0RnL0CLvaX4F1EUKmp6g6FcB480rGdqgUNAMXFRbKFGF6vB9dcc61M0AAwceJEOBz+k6kfmtZj08aNorbWoNf7yntKt3CRHk9RVGB15P79FZgyuQD79n2NrKxspKamgab1stfSanXQ6w1wuS6WK1Aq/NTUzyXdL9wt2pSUFOOuO2fi2LFjyMrKDvy+4aDV6kDTemRlZWPfvq8xZXJB2HMQNE2je3dfGqLwu9G0HqdOnUR1dZV097CorKwEx3GivxdN68EwTIvTQaurq3D+fL3sPRgxYmT4kl6/1wU0hj3oVg1C3Jma8SI0N//L1yiRswDvkCwx1qWD+79XoNE1vSpPkLXahP1Ix3b4R+/Lpc2qY/OHm2W50QzDYPqMO0RtAjfe2E9xNMkwjKqLLtE0DYvFgj/9vz8GRHUpsGrVSvztxReQlZWtKGav1yMr+hTqCkCQ9ZKnFmPTpvBOyiNGjpRV+jMaU3Hw4EFRW7iU7d0r+7zCPzdSUVEubQ4LpRWjDMNg2PDh4Ut67mfuhBpF85wvvKEbth26gvlAWlVIOcMfi5YRxmhaihqEbcpsh0fapSeEoEMVU3K5nE0uwZ4yZaosZ1rNRZe0Wh0cDgeeXLwY2dnye2VK64QIm9vNBL682dnZOH++Hk5ng2wLJTWWdcv2DWeT/m1byqZNG7F1yxZZKAv+31l47wcM+LUvlDJzJgqnT0e/fjcF+pV+t6ysbLzx+iqUlBRLu2T063eT4mTzF59/LmoLlx07digOEiiKwpaPW5YO+un27TLxu1xO9O8/ILyYdKLFonkXD02OFbrbVgGZ/2tSzgLc0XppU4A+dAdU9309ZGw6HDin75I1ljFsU2Y7UKmpmOmyJ4SgAWD5smXYufOLiJczV1dX4a47Z8q+/LW1Z1FUXCqaJIoUi8WC+fMeRUaGPO65cdMmaZOMpo4Pxuv1BMI23bp1U4yz3nDjjYGJQ5ZlUVEhv1LQ62m8vX49zpw5IzrZCTHkrl2bvuuQEgcPHkBxUZHsfYkkJl1ZWYk5Dz+oeFKy2azo27cvZj/wYJOTbfv3V+Bf//wnampqZKUC4H+/39vwvmJYLJhpU6fIBgJ1dbX4z47iiD4rzb23oeZRmoJlWdw+drTos+wNKnkQlqQTKaODd/Do0/cLWAZsCEvOkE4YKsHWIK3nk6DNI1slaimtFbcwUqdSL14mJZKglT6c8H+Bl7+2oskvLwDMnfMwzp07J/ryOZ0NmDd/PkaN8i2AaQlNfRGjJWlBUvfPfgC9e/eWdkeM0mSq09mAZ/7857AzUoKJRu2O6YWF8Ho9inJ86OE5gZNPOCxftgylpSUyUXu9HnTs2BErV70uapeyatVK2UnHZrPiL889F9HfZ8OG97Bp48aQoSqWdfuuBiL43ZTq1QQ/T7PhjiNVHBp/Uf/KFZ7zbbqJb0YkaEgnDJWgc9BwcllUBQ2/XIPDI8GbKbOdbJPuIxwfTKIIGgB27dopi8N5vR7k5uY2K2gAmDR5suJl7Mb33xe1qY26ulrMuv9+vPDi36IiaDVSUlIMp7NBJminswGzH3gwIokBwPwFCzB48C2yMIxWq8PJkyebnYu46SblkMfePXtFbc3xWWmpYqhDgKIo7PziC2lzk1SUl8uek2EY/OpXNwDhLGbZ8K0bMKg7zMFzQEpHHXQT50Jj/iYiQUNpwjAE9lOrm51EjBaCgIO35qi6PD4x8Jby8UcfyeJwDMNg9JgxorZQjBo1WpT5gAQoutRSSSUaG99/X/beer0e9OjRI+yRuJSFixbJZAb/XMQHzVzhKE0207QeX321W9TWFEo1u4W5AwGtVgeLpTKizJHS0hLZyNxgMAQGKs1K+qWv1b26kHfx0HY6A37cLGhMdMSCbjLMEYzOCE/VhxFNIrYliSbo6uoqWCyVspFWQ4MDo0eHJ2kAmDChQDa6UmvRJa/Xg9TUtBZLKlGwWCwymcG/QOa3j84TtUXKgw89BKdTvMhGq9WhoqK82dWJgwffIpuEdDgcYZ/Qd+/eLaot4/XfwFdaqiCSzBGLxSLLPBHmZASalPSeyvBGmPGCd/DQXnkU2tsXRSxngXBH0YAv7MEc+L20Ne4kmqDRRDGlwbfcqjiBFooxY8fKLmPVWnSJYRjMfmC2tDnp+P777xTf24yMzFaHd4YMGSqTGvxiPHTokLRZxC233ir7rBgMBnz//XeitlDs/OIL0Wic4zgMGz4cgwYPFv1MBoMBn27fHnjcFBUV5bIrDoZhcNNNNwUeNynpkiONQIo6Qx28g4f26qPQ3vZXgG0v7Q6LiAQt4HG1adijORJR0ACwefOHsks8h8OBiRMnitqao3fv3sjIyJSNkCgVFl3iOA75+Yl1J/mW8OOPP8pCCxzHYeiwoaK2lkDTNPr27av4fh88eEDUJqVfv36y8Fi4MWSlKz+73Yb8/HzceuutsNt9tefhH9n/8MPBZkf2CBHjbmxkRZOZTUparaEO3tV6QSOcCUMlgsIe8RZ1ogp6//4KxdGQtJhSuEyZOkX2fAaDAdu2qm803aFD8td3Pv2LPCTIRfEGBFdd1Uf2flMUhZMnTojapNA0Hci/FhBiyM0JVbrYxOv1oGvXbjCbO8Ns7oysrGzR86almfDNN/sCj5WwWq2ysJA3qDSvQEhJqzXUwbt4aHsda7Wg0dKRNPxhj+/mRD3bIxISVdAA8MGmTbKiPyzrxsSJBaK2cBk9egyskjTGcOOUhOhTX+9b3hwMx3FRuwFBbpdcmaQBoLa2VtokY9jw4bKQh9GY2qxQpYtNOI4TxY0LJhXIQh7NLZb55pt9suwmhmFwy623itpCSvrrY5zqQh08B2hyrNAOeSF+gg7CcWhxXEbTiSxoq9WKiopy2ZfYbrdhzNjwJwyDyczMxM0395ddAqenZ+A///lU1EaILSzLyiQo0FTeeCQoyV6r1cFmuxhyCEV+fr4s5GEwGLBnzx5RWzC+SoXiOwbZ7TbcGiRT6apGYZDQ1N3s9+zZI4tHNzQ40K+f+GoypKSfrfSoMtShvfXxFk8SBtOiUEcwOiM451HYjr7ZpqJOZEHDX0xJaVIpVDGlcJlWWBjzokuE8GhsVP5upadHXjJVifT0DMWRdKiTQzBmc2d07dpNFvIo//Zb0X7BSEe8waEOgby8PNnVodGYqrhCVKBs7x5ZqOO66/JlKyAVJV1l9apuAQvv4KEb9i407RqlXS0iGiNp6IzwnHsHbHVpm4g60QUNfzEl6UQJwzAYN368qC1SQsWyGYZBZWWltJmQhCiJWwmlgkvwz5Uo8cXnn8tCHSNGjhTtAwDjxo0XpYMaDAYUFe0Q7SOwf38FUlLEMg71PVCU9LGzHCC+Go0rPAdorzwGTdeSqIyiowqdg4Zjf4n5RGIyCDpUMSX4F6a0lnvuvVeWM20wGPDxRx+J2gixw+VySZtUhzQ0Af/npLxcXsHOVy9FHJ6z223o1+9iipzAoMGDZSGPsr17FEMe5eXy1DuXy6mY/aMoadWl3jXy0Fz/j1bHoQWiMooOhs4BU35nzESdDIJGiBWGAJCamoYlS57CooWPtWrb9/XXslE6TetRXLxD8YtCiD5Go1HapDqUQhO+VLydojYAqKiokIU6srKyFcsW5OXlyT7foUIe0joiSiEUAUVJv3rSq5p4NM8BuvzvoxbmQDTi0Ur4Mz6iLepkETTLsigtLZblRgscOXwYx44da9UmrQInkJZmwq5d8i8gITZIL+MF7PYwV/c2Q3BOcjBSQTbF8BEjRFddWq0OdXW1suXcRUU7ZKGOsWPHivYJZvSYMaLnpSgKX+0WLz23WCyykXyoEApCSVpV8WiGh+bK6IY5oj6SFtAZoyrqU52ar9eRKCgVUwpGq3B3kJZsShgSoOhSskDTyvcrBIAwCm6GhdvNyl7D6/WEHAAooVRwSbqcm2VZlH/7rehzxTAMBg0eHHgsZdgwcYofTetRWiquef3999/JTigMwyiGUKAk6SNV6opHp1xGAe0PS5vVi84IpvzOVk8mnuqUKpvlTWRChTraAq3Kiy4lG0rvM0VROHfunLS5Rfzyy8/SJgCA2SyvWx0KpYlmg2Q5d0VFhexkYDKZFEMdAr1795Ydk5JCiyYlpcvL4f/7hHpemaS/PR69sEJr4TnAk3YU8EZPVjEbRQfjn0x0n97aIlEnm6CVltQKeBXuRhKNTYpaiy4lI9KCQ/BLKJRcI6W6qlomOQDIze0ibWqSIUOGin5OrVaHQ4d+DMxffLV7t+h1WNaNcePk2RdSRo4cJcvyEEqiWq1W2XeBZd0YOXJU4LEUmaSPnfOqa9IwysQkHq0EnQPnz6thP/hHAAhb1t/npCWVoAFgy5Ytstxo+AWdm5sb9S0jI0MmCbUWXUpG+lx9tSzFjaIofLd/v6itpezdu1cW2mAYBt17dBe1NYdSwaXgib5du3aKXodhGAwcNChob2WkRb98IY8SAMChQ4dkYT9fCCX088okraZJQw0F6BquBLRtJNZo41/wcqF8Ktynfbd6DyVrjc6A73PSYNanSLsSnk+3b5d9qVjWjeEjRmDZ8teivr38yqs4f15+OzRKhUWXkpH8/L4ySWujtEzfYrHAZpM/B8dxuP76X0mbmyRUwaWK8nLF3HqDwRBWFT+lkAfHcbBYLPhq925ZOEhaUEmKTNKqmjT0/zz80WkAJa4h21LaJNwRjM4I6Ixw/rwaF767G+7TW8F4zkGjMwQ2xnMOs6reTEpBh5Ki3W5DQUHLanU0R2ZmpqyQDlRcdCnZ6Nevn0zS8IecWpuz/s47b8vS5xCBQINRKrhE03rs3bsXRTt2iF5HWuO5OZRCHp9//pks59rr9WDgoNATkZBKusrqVdWkIQDAoIFl4J34a+b0qIk6Luh8+aPOn1eDKb8T58unwX7wjzAfeBhM+Z14+fg7uGv3YulRCc+2rVtkIwev14O8vN6KOaHRYsLEAtmlbLRGc4SmoWkaQ4YMlS0somk9Nm58X5bmFi7791fIsi3QyuJcSgWXAOCrr3bLsjqGDRsu2qcpBg0eJAt5fP7ZZ7KfnWEYDG4iWwRSSR87Kz/7xROeA47/vwx0ztRiXva0xBc1/LKmcwAAnPsnHGHrfY/pHGw+9w1Glf5WekTCEqqYEsMwmDR5sqgt2gwcODDkaK64uEjaTIgy9953r2I+s8lkwrxHH434RGmxWPDk4sWKRZrsdluLP09KBZfgP6EHQ1FURCN1pfCF9DnhX2XYv/8AabMIsaRrPaqZNAwWtEDSiDoUOiO+sh/FDTvulfYkJErFlOD/YA4Z0voC8M0xsUB+ay2a1jd7PzxC6zGbOyve2kwQ1X333hOyVoaUkpLikHdfdzob8NDDcyK6m08wSgWXpDSXfREKpauJYLz+wmLN/exiSZ/zBj+MG0qCFpiXPQ1rsx5tkajbPB7dEnRGHHGdTgpRKxVTYlk3JkwoaJMMloKCAsXRnMPhUJwYIkSXOXPngqb1MgFqtTrQtB5PLl6MuXMeRklJMSwWC6xWK1iW9aepWbBp00bMvn8WXlu+XFHQLOtGjx49Wn1T31AFlwSay74IxYiRIxRDKQLNLYwREFnwaE3os0lbwbv4kIIWmNp+SItFnRAkgahDFVNiGAZjmlhWG03M5s7Iy+stk4SBFF1qE2iaxrLly+BwOGTvAfz1pc+dO4fXli/H/HmPYsrkAkyc8BtMmVyA+fMexYb33oPNZkNqqny1sde/wvClv/9D2hUxSgWXpCiFL5qjuWNcLqeoJnUoRCb85Ex80+94F4/vFqQ3KWiBS0XUxq2/Qb07svidGlBaYeiN0s1II2HS5MmyL6CwVJcUXYo9ZnNnrF23DvCPfKVotTqkpqYhIyMTWVnZon9pWi87ycMf4sjIyMA7774blSsypYJLAizrxtixt0ubwyZUyMPrL9QUzuS5yIa8Izpr61uCIOg+ncM/S1wKoobHhS5FdyWcqJWKKTEMgylTp4jaYs2QIUPR0CAv7GM0pkZcdElpNKhEtGpUtJamLuHbErO5M/793gYMGPBr1NXVKkorHFjWjdrasxg3fjzWvLU2KoIWkBZcErDbbS0KdQgoLZhBGIWagglIusoav3h0SwQtMLX9EGzU/46IWmVkZWWjrq4WNps1sHEch4KCSdJdYwpN0yicPgO1tWdFP0tV1RnF2zABQE5ODtxuRrR/be3ZkAVwpHTq1El2fF1dLbp16xZVsQTTo3sP1NWdE72m282gVy/lehDN0a1bd1RVnRE9388//9TiqyCaprFw0SKsXPVGQNY2mxUs64ZXspw/+DHLugOvP3ToMLy34X3MmTNX+vSt5o47ZsJut8nes2uuubbZsEVTDBw4ELm5ubLvQiQZThref9o/UsXhhmV2aIxtm93BO3h894eWCTqY//y8B9PdrzZZLY93sPCclo+qEgKPC9AZcXrMu+igl0+iqA2WZXHy5EloNL7PE8/zMZVUc0iLK6Wnm5q81JT+/PBfFoeL1WrF2bNnW3x8Swj+HXmeR6dOnZrNHGiK6uoq2Gx2aDQa8DyPjIz0Jv9mkcCyLH744SAqKytx5MgRWC9cQHX12UC/2dwJubld0L1Hd/Ts2bNVogwXlmVx6tSpwOPmPiORIP38de3aNezvQkDS2w+4MW2Ds00lHS1BC3xTcxAjbEubFDV3VL5cOKHwuHB63OaEEDWBQGg9gXBHnaNtCytFW9AA0D8nH59lLEne0Ad84Y8un05JqNAHgUBoOQFJ19jabrIjFoIW6J+Tj+8vW0ZETSAQkoKApO1s20iad/AofTAtJoIW6GXoElLUGlN4cSDVozOiy7ZR+B9zWtpDIBCSiICk22IhiyDowb1jL8qAqCVoM2P/2m0GnYPrPplMRE0gJDEBSe9wamK6kKUtBS3Qy9AF33f7q2hEnTQjaQG/qL+puXhvNgKBkDwEJN14LnYj6XgIWqCXoQtOXb5G2pxc0DkY8uWDRNQEQhJyccUhE5uYNO/g8cFdqXERtEAHfSZOdV8eeKzrorwENKEhoiYQkhIt/EncsUAQ9Pi+4d9qPVYEizrpQh4CflH/5+c90h4CgZCgaAGgzhX9YLSaBC1wqYh6yr4/ElETCEnCxXCHvNhUi1GjoAUEUeu6mHxLrZMRImoCIWnQAsAFZ/SKK/EOHqsKDKoUtEAHfSbsV62HJjOTiJpAIKgaX7jDHh1JC4K+d5Dvpqtqxzl8M/oYuyS9qFcf2SztIRAICULz1fXDJNEELfDd2PVJL+r5P/6NiJpASFB84Q5X69LvElXQAt+NXY9b0q8koiYQCKrDF+5oRQW8RBe0QMnIf2JKx/4AWyPtSg6IqAmEhKRV4Q7ewWPpMH3CC1rg3Vufw/JrH0t6US/ev0LaQyAQVIoWLSxTyrt8gv7T2FRpV0LzYJ8p2HXbal/oIxnDH3QOXj7+DhE1gZAgtGgkzbt4LL0t+QQt0D8nH9bx/0ne8AcRNYGQMGgRYS3pZBe0AE3TePfW53yjaiD5ZE1ETSAkBBGNpHkXjz/9mk56QQfTPycfromfYPOAf/gakknWdA5ePrUFd+1eLO0hEAgqIWxJC4JeOjH0TV6TmdsvHyyXdTLErHVGbD73DRE1gaBStAjjriyXuqCDEWS967bVF2PWiS5rImoCQbVoeJ7np6+2YdtPXsU7sxBBN02924rNxz/DypPbcMTxf4AuHdAlaEqix4UpHfvj3Vufk/YQCIQ40aSkiaAjQxD2B798ga8uVPiEDd9INWHwuHBL+pUoGflPaQ+BQIgDAUl/ckZcZIl38ZjQU4eND2aI2gnhUe+2Yl/ND9hb81+8/EuxLyySKNL2uNDH2AXfjV0v7SEQCG2Mhud5PmOZHdyFi3FpIujoEyzt8vojvpE2cFHcUJm8iagJBFUgkzQRdNvxP+Y0KmtP4LTjLL6s/Q6bzx8Up/jFW+B+Ue8bvho0naR3siEQVI5I0jwHTLhCSwQdZ/7HnEadrQ4H6yw46azCqYYqHG74BUdcpwGPXbxzsMgDbVEUuscF6IxwTfxE2kMgENqAixOHlR5M6E1G0IlAvduKet6BOlsd6tw2nHacxUlnFQDgVEMVatwXcI5zKEu9KZSEDwAeO05PKEEHfaa0h0AgxBgNz/M8y7L49iQwuDe5pE1W6t1W8WO/5AXq3DZRPwCcdpwFAORn5aF/Tr60m0AgtAH/H8Q9K5cs4sj1AAAAAElFTkSuQmCC;fillColor=none;strokeWidth=1;fontColor=#000000;fontStyle=1;strokeColor=#000000;" parent="1" vertex="1">
                    <mxGeometry x="-752.39" y="-215" width="181.79" height="70" as="geometry"/>
                </mxCell>
                <mxCell id="140" value="&lt;p&gt;Orchestration Layer berperan penting dalam mengelola &lt;strong&gt;workflow dan eksekusi pipeline data end-to-end&lt;/strong&gt;, mulai dari &lt;strong&gt;ingestion data&lt;/strong&gt;, &lt;strong&gt;pemrosesan batch dan streaming&lt;/strong&gt;, hingga &lt;strong&gt;konsumsi data untuk analitik atau machine learning&lt;/strong&gt;.&lt;/p&gt;&lt;p&gt;Dalam arsitektur ini, &lt;strong&gt;Apache Airflow&lt;/strong&gt; adalah komponen utama pada Orchestration Layer yang bertanggung jawab untuk menjadwalkan dan mengorkestrasi setiap langkah pipeline.&lt;/p&gt;" style="text;html=1;align=left;verticalAlign=middle;resizable=0;points=[];autosize=1;fontSize=16;fillColor=#f5f5f5;strokeColor=#666666;fontColor=#333333;" parent="1" vertex="1">
                    <mxGeometry x="2" y="-235" width="1692" height="98" as="geometry"/>
                </mxCell>
                <mxCell id="142" value="" style="shape=image;verticalLabelPosition=bottom;labelBackgroundColor=default;verticalAlign=top;aspect=fixed;imageAspect=0;image=https://getlogo.net/wp-content/uploads/2023/06/airbyte-inc-logo-vector.png;" parent="1" vertex="1">
                    <mxGeometry x="-990.97" y="688.5" width="134.95" height="75" as="geometry"/>
                </mxCell>
            </root>
        </mxGraphModel>
    </diagram>
</mxfile>